<svg fill="#1B1D21" height="65px" width="65px" version="1.1" id="Layer_1" xmlns="http://www.w3.org/2000/svg" xmlns:xlink="http://www.w3.org/1999/xlink" viewBox="0 0 512 512" xml:space="preserve"><g id="SVGRepo_bgCarrier" stroke-width="0"></g><g id="SVGRepo_tracerCarrier" stroke-linecap="round" stroke-linejoin="round"></g><g id="SVGRepo_iconCarrier"> <g> <g> <path d="M256,0C148.914,0,61.793,114.841,61.793,256c0,141.159,87.121,256,194.207,256c107.086,0,194.207-114.841,194.207-256 C450.207,114.841,363.086,0,256,0z M256,494.345c-97.349,0-176.552-106.923-176.552-238.345 c0-131.422,79.203-238.345,176.552-238.345c97.349,0,176.552,106.922,176.552,238.345 C432.552,387.422,353.349,494.345,256,494.345z"></path> </g> </g> <g> <g> <path d="M256,35.31c-87.616,0-158.897,99-158.897,220.69c0,121.69,71.28,220.69,158.897,220.69 c87.616,0,158.897-99,158.897-220.69C414.897,134.31,343.616,35.31,256,35.31z M256,53.044c36.564,0,69.927,19.862,95.036,52.966 H160.964C186.073,72.906,219.437,53.044,256,53.044z M155.102,397.92c-7.864-11.551-14.779-24.44-20.561-38.407 c17.822-4.151,60.699-13.096,105.796-14.904c-10.354,15.413-27.742,34.978-46.13,34.978 C172.713,379.586,160.965,388.341,155.102,397.92z M256,459.034c-33.364,0-64.058-16.729-88.254-44.641 c0.208-2.917,2.45-17.152,26.461-17.152c33.744,0,58.996-38.877,67.018-52.922c48.732,0.687,97.024,10.726,116.233,15.195 C352.809,419.051,307.595,459.034,256,459.034z M256,326.626c-18.277,0-36.45,1.299-53.271,3.195 c0.191-1.039,0.305-2.106,0.305-3.2c0-9.737-7.918-17.655-17.655-17.655s-17.655,7.917-17.655,17.654 c0,2.828,0.683,5.491,1.87,7.863c-18.453,3.1-33.097,6.376-41.253,8.333c-8.702-26.338-13.582-55.752-13.582-86.797 c0-50.595,12.943-96.905,34.317-132.493c0.331,0.037,0.653,0.139,0.994,0.139h98.127v17.577c0,0.388-0.446,0.757-0.398,1.132 c-15.262,3.896-26.853,17.72-26.853,34.178c0,19.47,15.712,35.31,35.182,35.31c19.471,0,35.247-15.841,35.247-35.31 c0-16.458-10.854-30.282-26.117-34.178c0.049-0.375,0.595-0.745,0.595-1.132v-17.577h96.08c0.339,0,0.663-0.102,0.992-0.139 c21.374,35.588,34.318,81.899,34.318,132.493c0,31.045-4.879,60.469-13.582,86.807C364.748,338.29,310.817,326.626,256,326.626z M256,158.897c9.737,0,17.655,7.918,17.655,17.655c0,9.737-7.918,17.655-17.655,17.655c-9.737,0-17.655-7.918-17.655-17.655 C238.345,166.814,246.263,158.897,256,158.897z"></path> </g> </g> <g> <g> <circle cx="317.793" cy="379.586" r="17.655"></circle> </g> </g> </g></svg>