<svg width="64px" height="64px" viewBox="0 0 45 45" fill="none" xmlns="http://www.w3.org/2000/svg"><g id="SVGRepo_bgCarrier" stroke-width="0"></g><g id="SVGRepo_tracerCarrier" stroke-linecap="round" stroke-linejoin="round"></g><g id="SVGRepo_iconCarrier"> <g clip-path="url(#clip0_2_1367)"> <path d="M37 23.501V25.501H9V15.501C9 15.251 9.094 15.01 9.26 14.827L9.35 14.74L15.704 9.29901C16.409 8.69501 17.429 8.66001 18.171 9.19301L18.307 9.29901L24.651 14.741C24.841 14.904 24.962 15.131 24.992 15.376L25 15.501V23.501M17.005 10.818L11 15.96V23.501H14V18.501C14 17.988 14.386 17.565 14.883 17.508L15 17.501H19C19.513 17.501 19.936 17.886 19.993 18.383L20 18.501V23.501H23V15.96L17.005 10.818ZM18 19.501H16V23.501H18V19.501Z" fill="#1B1D21"></path> <path d="M31.011 25.037H33.038L33.026 8.5H30.998L31.011 25.037Z" fill="#1B1D21"></path> <path d="M31.313 13.332C30.391 14.127 28.848 14.741 27.307 14.795L27.021 14.8V12.8C29.335 12.8 30.564 11.522 30.954 9.589L30.975 9.46C30.989 9.352 30.997 9.236 31.001 9.124L30.997 9.031L31.001 8.759L30.999 8.5" fill="#1B1D21"></path> <path d="M32.65 13.273C33.629 14.117 35.305 14.799 36.983 14.799V12.799L36.748 12.796C34.586 12.712 33.426 11.456 33.05 9.589L33 9.369H32.227L32.65 13.273Z" fill="#1B1D21"></path> <path d="M32.703 14.996L31 15.084L30.97 15.268C30.612 16.58 29.414 17.5 27.02 17.5V19.5L27.326 19.496C28.849 19.451 30.076 19.07 31.001 18.446L32.328 17.159L32.703 14.996Z" fill="#1B1D21"></path> <path d="M33 18.446C33.986 19.112 35.316 19.5 36.981 19.5V17.5L36.72 17.496C34.499 17.431 33.367 16.533 33.022 15.27L32.123 15.386L31.289 17.293L33 18.446Z" fill="#1B1D21"></path> <mask id="mask0_2_1367" style="mask-type:alpha" maskUnits="userSpaceOnUse" x="-17" y="-18" width="80" height="80"> <path d="M63 -18H-17V62H63V-18Z" fill="#1B1D21"></path> </mask> <g mask="url(#mask0_2_1367)"> <path d="M4.959 27.875C6.078 27.876 7.16 28.286 7.975 29.051C8.365 29.416 8.876 29.635 9.419 29.679L9.625 29.687V31.687C8.506 31.687 7.424 31.276 6.608 30.511C6.17 30.1 5.578 29.875 4.959 29.875C4.339 29.875 3.747 30.1 3.309 30.511C2.493 31.276 1.411 31.687 0.292 31.687C-0.747 31.687 -1.755 31.333 -2.546 30.67L-2.725 30.511C-3.164 30.1 -3.755 29.875 -4.375 29.875C-4.995 29.875 -5.586 30.1 -6.024 30.511C-6.84 31.276 -7.923 31.687 -9.042 31.687C-10.161 31.687 -11.243 31.276 -12.059 30.511C-12.497 30.1 -13.088 29.875 -13.708 29.875C-14.328 29.875 -14.919 30.1 -15.358 30.511C-16.116 31.221 -17.103 31.627 -18.136 31.681L-18.375 31.687V29.687C-17.824 29.687 -17.296 29.509 -16.877 29.181L-16.725 29.051C-15.909 28.286 -14.827 27.876 -13.708 27.875C-12.589 27.876 -11.507 28.286 -10.691 29.051C-10.253 29.462 -9.662 29.687 -9.042 29.687C-8.422 29.687 -7.831 29.463 -7.392 29.051C-6.576 28.287 -5.494 27.876 -4.375 27.875C-3.256 27.876 -2.174 28.286 -1.358 29.051C-0.918999 29.462 -0.327999 29.687 0.292 29.687C0.912001 29.687 1.503 29.462 1.941 29.051C2.757 28.286 3.839 27.876 4.959 27.875Z" fill="#1B1D21"></path> <path d="M32.084 27.875C33.203 27.876 34.285 28.286 35.1 29.051C35.49 29.416 36.001 29.635 36.544 29.679L36.75 29.687V31.687C35.631 31.687 34.549 31.276 33.733 30.511C33.295 30.1 32.703 29.875 32.084 29.875C31.464 29.875 30.872 30.1 30.434 30.511C29.618 31.276 28.536 31.687 27.417 31.687C26.378 31.687 25.37 31.333 24.579 30.67L24.4 30.511C23.961 30.1 23.37 29.875 22.75 29.875C22.13 29.875 21.539 30.1 21.101 30.511C20.285 31.276 19.202 31.687 18.083 31.687C16.964 31.687 15.882 31.276 15.066 30.511C14.628 30.1 14.037 29.875 13.417 29.875C12.797 29.875 12.206 30.1 11.767 30.511C11.009 31.221 10.022 31.627 8.989 31.681L8.75 31.687V29.687C9.301 29.687 9.829 29.509 10.248 29.181L10.4 29.051C11.216 28.286 12.298 27.876 13.417 27.875C14.536 27.876 15.618 28.286 16.434 29.051C16.872 29.462 17.463 29.687 18.083 29.687C18.703 29.687 19.294 29.463 19.733 29.051C20.549 28.287 21.631 27.876 22.75 27.875C23.869 27.876 24.951 28.286 25.767 29.051C26.206 29.462 26.797 29.687 27.417 29.687C28.037 29.687 28.628 29.462 29.066 29.051C29.882 28.286 30.964 27.876 32.084 27.875Z" fill="#1B1D21"></path> <path d="M59.584 27.875C60.703 27.876 61.785 28.286 62.6 29.051C62.99 29.416 63.501 29.635 64.044 29.679L64.25 29.687V31.687C63.131 31.687 62.049 31.276 61.233 30.511C60.795 30.1 60.203 29.875 59.584 29.875C58.964 29.875 58.372 30.1 57.934 30.511C57.118 31.276 56.036 31.687 54.917 31.687C53.878 31.687 52.87 31.333 52.079 30.67L51.9 30.511C51.461 30.1 50.87 29.875 50.25 29.875C49.63 29.875 49.039 30.1 48.601 30.511C47.785 31.276 46.702 31.687 45.583 31.687C44.464 31.687 43.382 31.276 42.566 30.511C42.128 30.1 41.537 29.875 40.917 29.875C40.297 29.875 39.706 30.1 39.267 30.511C38.509 31.221 37.522 31.627 36.489 31.681L36.25 31.687V29.687C36.801 29.687 37.329 29.509 37.748 29.181L37.9 29.051C38.716 28.286 39.798 27.876 40.917 27.875C42.036 27.876 43.118 28.286 43.934 29.051C44.372 29.462 44.963 29.687 45.583 29.687C46.203 29.687 46.794 29.463 47.233 29.051C48.049 28.287 49.131 27.876 50.25 27.875C51.369 27.876 52.451 28.286 53.267 29.051C53.706 29.462 54.297 29.687 54.917 29.687C55.537 29.687 56.128 29.462 56.566 29.051C57.382 28.286 58.464 27.876 59.584 27.875Z" fill="#1B1D21"></path> </g> <mask id="mask1_2_1367" style="mask-type:alpha" maskUnits="userSpaceOnUse" x="-17" y="-18" width="80" height="80"> <path d="M63 -18H-17V62H63V-18Z" fill="#1B1D21"></path> </mask> <g mask="url(#mask1_2_1367)"> <path d="M4.959 32.5C6.078 32.501 7.16 32.911 7.975 33.676C8.365 34.041 8.876 34.26 9.419 34.304L9.625 34.312V36.312C8.506 36.312 7.424 35.901 6.608 35.136C6.17 34.725 5.578 34.5 4.959 34.5C4.339 34.5 3.747 34.725 3.309 35.136C2.493 35.901 1.411 36.312 0.292 36.312C-0.747 36.312 -1.755 35.958 -2.546 35.295L-2.725 35.136C-3.164 34.725 -3.755 34.5 -4.375 34.5C-4.995 34.5 -5.586 34.725 -6.024 35.136C-6.84 35.901 -7.923 36.312 -9.042 36.312C-10.161 36.312 -11.243 35.901 -12.059 35.136C-12.497 34.725 -13.088 34.5 -13.708 34.5C-14.328 34.5 -14.919 34.725 -15.358 35.136C-16.116 35.846 -17.103 36.252 -18.136 36.306L-18.375 36.312V34.312C-17.824 34.312 -17.296 34.134 -16.877 33.806L-16.725 33.676C-15.909 32.911 -14.827 32.501 -13.708 32.5C-12.589 32.501 -11.507 32.911 -10.691 33.676C-10.253 34.087 -9.662 34.312 -9.042 34.312C-8.422 34.312 -7.831 34.088 -7.392 33.676C-6.576 32.912 -5.494 32.501 -4.375 32.5C-3.256 32.501 -2.174 32.911 -1.358 33.676C-0.918999 34.087 -0.327999 34.312 0.292 34.312C0.912001 34.312 1.503 34.087 1.941 33.676C2.757 32.911 3.839 32.501 4.959 32.5Z" fill="#1B1D21"></path> <path d="M32.084 32.5C33.203 32.501 34.285 32.911 35.1 33.676C35.49 34.041 36.001 34.26 36.544 34.304L36.75 34.312V36.312C35.631 36.312 34.549 35.901 33.733 35.136C33.295 34.725 32.703 34.5 32.084 34.5C31.464 34.5 30.872 34.725 30.434 35.136C29.618 35.901 28.536 36.312 27.417 36.312C26.378 36.312 25.37 35.958 24.579 35.295L24.4 35.136C23.961 34.725 23.37 34.5 22.75 34.5C22.13 34.5 21.539 34.725 21.101 35.136C20.285 35.901 19.202 36.312 18.083 36.312C16.964 36.312 15.882 35.901 15.066 35.136C14.628 34.725 14.037 34.5 13.417 34.5C12.797 34.5 12.206 34.725 11.767 35.136C11.009 35.846 10.022 36.252 8.989 36.306L8.75 36.312V34.312C9.301 34.312 9.829 34.134 10.248 33.806L10.4 33.676C11.216 32.911 12.298 32.501 13.417 32.5C14.536 32.501 15.618 32.911 16.434 33.676C16.872 34.087 17.463 34.312 18.083 34.312C18.703 34.312 19.294 34.088 19.733 33.676C20.549 32.912 21.631 32.501 22.75 32.5C23.869 32.501 24.951 32.911 25.767 33.676C26.206 34.087 26.797 34.312 27.417 34.312C28.037 34.312 28.628 34.087 29.066 33.676C29.882 32.911 30.964 32.501 32.084 32.5Z" fill="#1B1D21"></path> <path d="M59.584 32.5C60.703 32.501 61.785 32.911 62.6 33.676C62.99 34.041 63.501 34.26 64.044 34.304L64.25 34.312V36.312C63.131 36.312 62.049 35.901 61.233 35.136C60.795 34.725 60.203 34.5 59.584 34.5C58.964 34.5 58.372 34.725 57.934 35.136C57.118 35.901 56.036 36.312 54.917 36.312C53.878 36.312 52.87 35.958 52.079 35.295L51.9 35.136C51.461 34.725 50.87 34.5 50.25 34.5C49.63 34.5 49.039 34.725 48.601 35.136C47.785 35.901 46.702 36.312 45.583 36.312C44.464 36.312 43.382 35.901 42.566 35.136C42.128 34.725 41.537 34.5 40.917 34.5C40.297 34.5 39.706 34.725 39.267 35.136C38.509 35.846 37.522 36.252 36.489 36.306L36.25 36.312V34.312C36.801 34.312 37.329 34.134 37.748 33.806L37.9 33.676C38.716 32.911 39.798 32.501 40.917 32.5C42.036 32.501 43.118 32.911 43.934 33.676C44.372 34.087 44.963 34.312 45.583 34.312C46.203 34.312 46.794 34.088 47.233 33.676C48.049 32.912 49.131 32.501 50.25 32.5C51.369 32.501 52.451 32.911 53.267 33.676C53.706 34.087 54.297 34.312 54.917 34.312C55.537 34.312 56.128 34.087 56.566 33.676C57.382 32.911 58.464 32.501 59.584 32.5Z" fill="#1B1D21"></path> </g> </g> <defs> <clipPath id="clip0_2_1367"> <rect width="45" height="45" fill="white"></rect> </clipPath> </defs> </g></svg>