<svg fill="#1B1D21" height="64px" width="64px" version="1.1" id="Layer_1" xmlns="http://www.w3.org/2000/svg" xmlns:xlink="http://www.w3.org/1999/xlink" viewBox="0 0 512.017 512.017" xml:space="preserve"><g id="SVGRepo_bgCarrier" stroke-width="0"></g><g id="SVGRepo_tracerCarrier" stroke-linecap="round" stroke-linejoin="round"></g><g id="SVGRepo_iconCarrier"> <g> <g> <g> <path d="M477.875,128.017c0-4.71-3.814-8.533-8.533-8.533H334.72c-7.748-18.876-21.948-34.475-40.883-43.571 c-4.267-2.057-9.352-0.247-11.383,3.994c-2.048,4.25-0.256,9.344,3.994,11.383c23.339,11.213,37.828,34.825,37.828,61.628 c0,20.702-9.242,40.055-25.353,53.103c-3.661,2.961-4.232,8.337-1.263,11.998c1.69,2.091,4.147,3.166,6.639,3.166 c1.886,0,3.789-0.623,5.359-1.903c10.624-8.602,18.782-19.439,24.183-31.531h92.834v170.667H307.208v-76.8 c0-14.754-8.917-42.667-42.667-42.667c-33.749,0-42.667,27.913-42.667,42.667v34.133c0,4.71,3.814,8.533,8.533,8.533 s8.533-3.823,8.533-8.533v-34.091c0.051-4.284,1.51-25.643,25.6-25.643c24.09,0,25.549,21.359,25.6,25.6v25.6 c-4.719,0-8.533,3.823-8.533,8.533c0,4.71,3.814,8.533,8.533,8.533v34.133h-17.067c-14.012,0-27.375-3.644-39.33-9.992 c-0.009-0.009-0.009-0.009-0.017-0.009c-15.334-8.149-28.297-20.864-36.668-37.239c-2.159-4.19-7.305-5.862-11.486-3.703 c-4.198,2.142-5.854,7.287-3.712,11.486c9.31,18.202,23.313,32.751,40.013,42.556V494.25h-34.133V357.717 c0-2.995-1.57-5.76-4.122-7.305c-2.56-1.545-5.743-1.621-8.397-0.247c-10.163,5.367-21.376,7.552-38.682,7.552 c-47.053,0-85.333-38.281-85.333-85.333c0-38.016,25.515-71.782,62.046-82.125c4.54-1.28,7.168-5.999,5.888-10.53 c-1.28-4.548-6.033-7.142-10.53-5.888c-43.844,12.407-74.47,52.932-74.47,98.543c0,56.465,45.935,102.4,102.4,102.4 c10.462,0,22.255-0.614,34.133-4.335V494.25h-76.8c-4.719,0-8.533,3.823-8.533,8.533s3.814,8.533,8.533,8.533h201.429 c1.041,0.444,2.167,0.7,3.371,0.7s2.33-0.256,3.371-0.7h78.592c1.041,0.444,2.167,0.7,3.371,0.7s2.33-0.256,3.371-0.7h64.896 c4.719,0,8.533-3.823,8.533-8.533s-3.814-8.533-8.533-8.533h-59.733V375.483h42.667c4.719,0,8.533-3.823,8.533-8.533v-179.2h25.6 c4.719,0,8.533-3.823,8.533-8.533V128.017z M358.408,170.683h-18.987c1.229-5.786,1.92-11.725,1.92-17.766 c0-5.606-0.691-11.034-1.681-16.367h18.748V170.683z M409.608,170.683h-34.133V136.55h34.133V170.683z M290.142,494.25h-51.2 v-16.367h51.2V494.25z M290.142,460.817h-51.2V443.75h51.2V460.817z M290.142,426.683h-51.2v-17.067h51.2V426.683z M375.475,494.25h-68.267v-93.167c0-4.71-3.814-8.533-8.533-8.533h-59.733v-23.006c10.786,3.866,22.289,5.939,34.133,5.939h102.4 V494.25z M460.808,170.683h-34.133V136.55h34.133V170.683z"></path> <path d="M59.742,494.25h-51.2c-4.719,0-8.533,3.823-8.533,8.533s3.814,8.533,8.533,8.533h51.2c4.719,0,8.533-3.823,8.533-8.533 S64.461,494.25,59.742,494.25z"></path> <path d="M145.928,56.678c4.48,1.485,9.301-0.913,10.795-5.385c5.939-17.724,21.333-30.592,40.183-33.579 c13.329-2.108,26.667,1.092,37.589,9.02c10.906,7.927,18.074,19.627,20.19,32.947c1.835,11.588-0.444,23.509-6.391,33.57 c-2.406,4.062-1.058,9.293,2.995,11.691c1.357,0.811,2.859,1.195,4.335,1.195c2.918,0,5.76-1.502,7.347-4.19 c7.979-13.474,11.017-29.431,8.559-44.928c-2.816-17.826-12.416-33.485-27.017-44.092C229.922,2.329,212.07-1.989,194.244,0.853 c-25.165,3.994-45.747,21.24-53.7,45.022C139.042,50.346,141.457,55.176,145.928,56.678z"></path> <path d="M77.431,172.407c0.393,0,0.785-0.026,1.186-0.077c4.668-0.648,7.927-4.958,7.27-9.634 c-0.973-7.014-0.802-14.293,0.486-21.641c6.554-37.069,42.086-61.884,79.087-55.364c4.634,0.802,9.062-2.287,9.882-6.921 c0.828-4.642-2.278-9.071-6.921-9.89c-22.468-3.959-45.09,1.067-63.753,14.131c-18.679,13.073-31.138,32.631-35.098,55.083 c-1.604,9.105-1.809,18.167-0.58,26.957C69.581,169.318,73.241,172.407,77.431,172.407z"></path> <path d="M503.475,494.25h-17.067c-4.719,0-8.533,3.823-8.533,8.533s3.814,8.533,8.533,8.533h17.067 c4.719,0,8.533-3.823,8.533-8.533S508.194,494.25,503.475,494.25z"></path> <path d="M401.075,307.217c4.719,0,8.533-3.823,8.533-8.533v-68.267c0-4.71-3.814-8.533-8.533-8.533h-68.267 c-4.719,0-8.533,3.823-8.533,8.533v68.267c0,4.71,3.814,8.533,8.533,8.533H401.075z M375.475,238.95h17.067v51.2h-17.067V238.95z M341.342,238.95h17.067v51.2h-17.067V238.95z"></path> </g> </g> </g> </g></svg>