<svg fill="#1B1D21" width="64px" height="64px" viewBox="0 0 500 500" id="Layer_1" version="1.1" xml:space="preserve" xmlns="http://www.w3.org/2000/svg" xmlns:xlink="http://www.w3.org/1999/xlink"><g id="SVGRepo_bgCarrier" stroke-width="0"></g><g id="SVGRepo_tracerCarrier" stroke-linecap="round" stroke-linejoin="round"></g><g id="SVGRepo_iconCarrier"> <g id="tent"> <g> <g> <g> <g> <path d="M391.6,389.33H108.4l0.35-3.31c2.35-22.35,0.04-40.55-2.31-51.88c-2.55-12.29-5.71-19.38-5.74-19.45l-1.01-2.24 l1.99-1.43c74.86-53.65,145.04-170.55,145.74-171.73l2.58-4.32l2.58,4.32c0.7,1.17,70.89,118.08,145.74,171.73l2,1.43 l-1.01,2.24c-0.08,0.17-3.2,7.25-5.74,19.45c-2.35,11.33-4.67,29.53-2.31,51.88L391.6,389.33z M115.03,383.33h269.93 c-3.17-36.19,5.05-61.34,7.94-68.83C325.9,265.48,263.28,167.96,250,146.56c-13.28,21.4-75.9,118.92-142.9,167.94 C109.98,321.98,118.21,347.14,115.03,383.33z"></path> </g> <g> <path d="M391.6,389.33H108.4l0.35-3.31c2.35-22.35,0.04-40.55-2.31-51.88c-2.55-12.29-5.71-19.38-5.74-19.45l-1.01-2.24 l1.99-1.43c74.86-53.65,145.04-170.55,145.74-171.73l2.58-4.32l2.58,4.32c0.7,1.17,70.89,118.08,145.74,171.73l2,1.43 l-1.01,2.24c-0.08,0.17-3.2,7.25-5.74,19.45c-2.35,11.33-4.67,29.53-2.31,51.88L391.6,389.33z M115.03,383.33h269.93 c-3.17-36.19,5.05-61.34,7.94-68.83C325.9,265.48,263.28,167.96,250,146.56c-13.28,21.4-75.9,118.92-142.9,167.94 C109.98,321.98,118.21,347.14,115.03,383.33z"></path> </g> </g> <g> <g> <path d="M137.08,389.33h-28.58l0.25-3.23c1.72-22.6-0.57-40.84-2.79-52.15c-2.41-12.27-5.27-19.28-5.29-19.35l-0.86-2.1 l1.78-1.4c80.16-62.94,142.94-166.96,145.58-171.36c0.73-1.22,2.19-1.79,3.55-1.4c1.38,0.4,2.31,1.68,2.28,3.11 c-2.04,89.3-33.17,151.75-58.92,188.41c-27.97,39.81-55.09,58.2-56.23,58.96L137.08,389.33z M114.94,383.33h20.28 c4.51-3.22,29.26-21.72,54.1-57.16c24.16-34.46,53.15-92.18,57.27-174.12c-17.82,28.21-71.68,108.43-139.59,162.39 C109.59,321.7,117.2,346.7,114.94,383.33z"></path> </g> <g> <path d="M391.51,389.33h-28.58l-0.76-0.51c-1.14-0.76-28.26-19.15-56.23-58.96c-25.76-36.66-56.88-99.11-58.92-188.42 c-0.03-1.43,0.9-2.71,2.28-3.11c1.36-0.39,2.82,0.18,3.55,1.4c2.63,4.4,65.41,108.41,145.58,171.35l1.79,1.4l-0.87,2.1 c-0.03,0.07-2.88,7.08-5.29,19.35c-2.22,11.32-4.51,29.55-2.79,52.15L391.51,389.33z M364.78,383.33h20.28 c-2.25-36.63,5.36-61.62,7.94-68.88c-67.91-53.96-121.76-134.17-139.59-162.39c4.13,82.07,33.21,139.86,57.44,174.35 C335.67,361.76,360.28,380.13,364.78,383.33z"></path> </g> </g> </g> <g> <path d="M476.59,377.87h-6v-17.4c-63.55-24.51-120.56-82.06-157.35-126.25c-32.84-39.45-55.81-75.52-63.24-87.61 c-7.43,12.09-30.4,48.16-63.24,87.61c-36.79,44.19-93.81,101.74-157.35,126.25v17.4h-6v-21.55l1.95-0.73 c34.81-13.03,90.26-45.31,156.73-125.13c39.88-47.89,65.07-90.73,65.32-91.16l2.59-4.43l2.59,4.43 c0.25,0.43,25.45,43.27,65.32,91.16c36.69,44.06,93.66,101.53,156.73,125.13l1.95,0.73V377.87z"></path> </g> </g> <g> <g id="stars"> <g> <path d="M382.6,186.04l-5.67-10.37L366.56,170l10.37-5.67l5.67-10.37l5.67,10.37l10.37,5.67l-10.37,5.67L382.6,186.04z M379.06,170l2.29,1.25l1.25,2.29l1.25-2.29l2.29-1.25l-2.29-1.25l-1.25-2.29l-1.25,2.29L379.06,170z"></path> </g> <g> <path d="M357.08,158.81l-6.36-11.63l-11.63-6.36l11.63-6.36l6.36-11.63l6.36,11.63l11.63,6.36l-11.63,6.36L357.08,158.81z M351.59,140.82l3.55,1.94l1.94,3.55l1.94-3.55l3.55-1.94l-3.55-1.94l-1.94-3.55l-1.94,3.55L351.59,140.82z"></path> </g> <g> <path d="M397.02,137.9l-5.39-9.85l-9.85-5.39l9.85-5.39l5.39-9.85l5.39,9.85l9.85,5.39l-9.85,5.39L397.02,137.9z M394.28,122.66 l1.77,0.97l0.97,1.77l0.97-1.77l1.77-0.97l-1.77-0.97l-0.97-1.77l-0.97,1.77L394.28,122.66z"></path> </g> </g> <g> <path d="M123.16,164.5c-13.06,0-23.69-10.63-23.69-23.69s10.63-23.69,23.69-23.69c3.1,0,6.12,0.59,8.97,1.77l6.77,2.78 l-6.77,2.78c-6.67,2.74-10.99,9.16-10.99,16.37c0,7.21,4.31,13.63,10.99,16.37l6.77,2.78l-6.77,2.78 C129.28,163.91,126.26,164.5,123.16,164.5z M123.06,123.13c-9.71,0.05-17.59,7.97-17.59,17.69s7.88,17.63,17.59,17.69 c-4.96-4.41-7.91-10.78-7.91-17.69S118.1,127.54,123.06,123.13z"></path> </g> </g> </g> </g></svg>