<svg width="65px" height="65px" viewBox="0 0 24 24" fill="none" xmlns="http://www.w3.org/2000/svg"><g id="SVGRepo_bgCarrier" stroke-width="0"></g><g id="SVGRepo_tracerCarrier" stroke-linecap="round" stroke-linejoin="round"></g><g id="SVGRepo_iconCarrier"> <path d="M7.37422 1.08401L8.01618 0.696198C8.0104 0.686642 8.00442 0.677217 7.99822 0.667928L7.37422 1.08401ZM6.12622 1.08401L5.50222 0.667928C5.49603 0.677217 5.49005 0.686642 5.48427 0.696198L6.12622 1.08401ZM2.25022 7.50001L1.60827 7.1122C1.46834 7.34382 1.46404 7.63286 1.59702 7.86855C1.72999 8.10423 1.97961 8.25001 2.25022 8.25001V7.50001ZM4.50022 7.50001L5.11392 7.93114C5.27481 7.70213 5.29479 7.40258 5.16575 7.15421C5.03671 6.90585 4.78011 6.75001 4.50022 6.75001V7.50001ZM1.60022 11.628L0.986527 11.1969C0.973098 11.216 0.960569 11.2357 0.948982 11.256L1.60022 11.628ZM2.25022 12.75L2.24898 13.5H2.25022V12.75ZM11.2502 12.75V13.5H11.2505L11.2502 12.75ZM11.9012 11.628L12.5525 11.256C12.5409 11.2357 12.5283 11.2159 12.5149 11.1968L11.9012 11.628ZM9.00022 7.50001V6.75001C8.72032 6.75001 8.4637 6.90588 8.33467 7.15427C8.20564 7.40266 8.22566 7.70223 8.3866 7.93124L9.00022 7.50001ZM11.2502 7.50001V8.25001C11.5208 8.25001 11.7705 8.10423 11.9034 7.86855C12.0364 7.63286 12.0321 7.34382 11.8922 7.1122L11.2502 7.50001ZM7.99822 0.667928C7.86124 0.462491 7.67566 0.294048 7.45795 0.177548L6.75022 1.50009L7.99822 0.667928ZM7.45795 0.177548C7.24024 0.0610469 6.99714 9.15527e-05 6.75022 9.15527e-05V1.50009L7.45795 0.177548ZM6.75022 9.15527e-05C6.5033 9.15527e-05 6.2602 0.0610469 6.0425 0.177548L6.75022 1.50009V9.15527e-05ZM6.0425 0.177548C5.82479 0.294048 5.63921 0.462491 5.50222 0.667928L6.75022 1.50009L6.0425 0.177548ZM5.48427 0.696198L1.60827 7.1122L2.89218 7.88782L6.76818 1.47182L5.48427 0.696198ZM2.25022 8.25001H4.50022V6.75001H2.25022V8.25001ZM3.88653 7.06888L0.986527 11.1969L2.21392 12.0591L5.11392 7.93114L3.88653 7.06888ZM0.948982 11.256C0.818778 11.484 0.750673 11.7421 0.751472 12.0046L2.25146 12H2.25146L0.948982 11.256ZM0.751472 12.0046C0.752271 12.2671 0.821947 12.5248 0.953537 12.7519L2.25146 12L0.751472 12.0046ZM0.953537 12.7519C1.08513 12.9791 1.27402 13.1677 1.50135 13.299L2.25146 12H2.25146L0.953537 12.7519ZM1.50135 13.299C1.72868 13.4303 1.98647 13.4996 2.24898 13.5L2.25146 12H2.25146L1.50135 13.299ZM2.25022 13.5H11.2502V12H2.25022V13.5ZM11.2505 13.5C11.5131 13.4999 11.7712 13.4309 11.9988 13.2997L11.25 12H11.25L11.2505 13.5ZM11.9988 13.2997C12.2264 13.1686 12.4156 12.98 12.5474 12.7528L11.25 12H11.25L11.9988 13.2997ZM12.5474 12.7528C12.6792 12.5256 12.7491 12.2678 12.75 12.0051L11.25 12L12.5474 12.7528ZM12.75 12.0051C12.7509 11.7424 12.6828 11.4841 12.5525 11.256L11.25 12L12.75 12.0051ZM12.5149 11.1968L9.61385 7.06878L8.3866 7.93124L11.2876 12.0592L12.5149 11.1968ZM9.00022 8.25001H11.2502V6.75001H9.00022V8.25001ZM11.8922 7.1122L8.01618 0.696198L6.73227 1.47182L10.6083 7.88782L11.8922 7.1122Z" fill="#1B1D21"></path> <path d="M7.5 12.75C7.5 12.3358 7.16421 12 6.75 12C6.33579 12 6 12.3358 6 12.75H7.5ZM6 17.332C6 17.7462 6.33579 18.082 6.75 18.082C7.16421 18.082 7.5 17.7462 7.5 17.332H6ZM6 12.75V17.332H7.5V12.75H6Z" fill="#1B1D21"></path> <path d="M19.2622 1.023L19.8948 0.619997C19.8918 0.615392 19.8888 0.61082 19.8858 0.606281L19.2622 1.023ZM18.7517 0.750153V1.50015V0.750153ZM18.2412 1.023L17.6177 0.606281C17.6147 0.61079 17.6117 0.615333 17.6088 0.619907L18.2412 1.023ZM15.0692 6L14.4368 5.59691C14.2896 5.82782 14.28 6.12059 14.4117 6.36068C14.5433 6.60077 14.7954 6.75 15.0692 6.75V6ZM16.9102 6L17.519 6.43811C17.6834 6.2097 17.7061 5.90847 17.5777 5.65801C17.4494 5.40755 17.1917 5.25 16.9102 5.25V6ZM14.3322 9.582L13.7235 9.14389C13.7085 9.1648 13.6945 9.18648 13.6817 9.20883L14.3322 9.582ZM14.8652 10.5V9.75L14.8637 9.75L14.8652 10.5ZM22.6352 10.5L22.6368 9.75H22.6352V10.5ZM23.1682 9.582L23.8188 9.20883C23.806 9.18656 23.7921 9.16496 23.7771 9.14411L23.1682 9.582ZM20.5922 6V5.25C20.3109 5.25 20.0532 5.40749 19.9248 5.65789C19.7965 5.90828 19.8191 6.20945 19.9833 6.43789L20.5922 6ZM22.4332 6V6.75C22.707 6.75 22.9591 6.60079 23.0908 6.36073C23.2225 6.12067 23.2129 5.82792 23.0658 5.597L22.4332 6ZM19.8858 0.606281C19.7612 0.419797 19.5925 0.266919 19.3947 0.161191L18.6876 1.4841C18.6679 1.47355 18.6511 1.45831 18.6387 1.43972L19.8858 0.606281ZM19.3947 0.161191C19.1969 0.0554643 18.976 0.000152588 18.7517 0.000152588V1.50015C18.7294 1.50015 18.7074 1.49464 18.6876 1.4841L19.3947 0.161191ZM18.7517 0.000152588C18.5274 0.000152588 18.3066 0.0554654 18.1088 0.161191L18.8158 1.4841C18.7961 1.49464 18.7741 1.50015 18.7517 1.50015V0.000152588ZM18.1088 0.161191C17.911 0.266916 17.7423 0.419792 17.6177 0.606281L18.8648 1.43972C18.8524 1.45831 18.8356 1.47356 18.8158 1.4841L18.1088 0.161191ZM17.6088 0.619907L14.4368 5.59691L15.7017 6.40309L18.8737 1.42609L17.6088 0.619907ZM15.0692 6.75H16.9102V5.25H15.0692V6.75ZM16.3015 5.56189L13.7235 9.14389L14.941 10.0201L17.519 6.43811L16.3015 5.56189ZM13.6817 9.20883C13.5627 9.4163 13.5004 9.65142 13.501 9.89059L15.001 9.88664C15.001 9.91068 14.9948 9.93431 14.9828 9.95517L13.6817 9.20883ZM13.501 9.89059C13.5016 10.1298 13.5652 10.3645 13.6853 10.5714L14.9825 9.81821C14.9945 9.839 15.0009 9.8626 15.001 9.88664L13.501 9.89059ZM13.6853 10.5714C13.8053 10.7782 13.9777 10.9498 14.1851 11.0689L14.9322 9.7682C14.9531 9.78017 14.9704 9.79742 14.9825 9.81821L13.6853 10.5714ZM14.1851 11.0689C14.3925 11.188 14.6276 11.2505 14.8668 11.25L14.8637 9.75C14.8877 9.74995 14.9114 9.75623 14.9322 9.7682L14.1851 11.0689ZM14.8652 11.25H22.6352V9.75H14.8652V11.25ZM22.6337 11.25C22.8729 11.2505 23.1079 11.188 23.3153 11.0689L22.5683 9.7682C22.5891 9.75623 22.6127 9.74995 22.6368 9.75L22.6337 11.25ZM23.3153 11.0689C23.5227 10.9498 23.6951 10.7782 23.8152 10.5714L22.518 9.81821C22.5301 9.79742 22.5474 9.78017 22.5683 9.7682L23.3153 11.0689ZM23.8152 10.5714C23.9353 10.3645 23.9989 10.1298 23.9995 9.89059L22.4995 9.88664C22.4996 9.8626 22.506 9.839 22.518 9.81821L23.8152 10.5714ZM23.9995 9.89059C24.0001 9.65142 23.9378 9.41629 23.8188 9.20883L22.5177 9.95517C22.5057 9.93432 22.4994 9.91068 22.4995 9.88664L23.9995 9.89059ZM23.7771 9.14411L21.2011 5.56211L19.9833 6.43789L22.5593 10.0199L23.7771 9.14411ZM20.5922 6.75H22.4332V5.25H20.5922V6.75ZM23.0658 5.597L19.8948 0.619997L18.6297 1.426L21.8007 6.403L23.0658 5.597Z" fill="#1B1D21"></path> <path d="M19.501 10.5C19.501 10.0858 19.1652 9.75 18.751 9.75C18.3368 9.75 18.001 10.0858 18.001 10.5H19.501ZM18.001 14.535C18.001 14.9492 18.3368 15.285 18.751 15.285C19.1652 15.285 19.501 14.9492 19.501 14.535H18.001ZM18.001 10.5V14.535H19.501V10.5H18.001Z" fill="#1B1D21"></path> <path d="M0.558988 17.2916C0.167726 17.4275 -0.039233 17.8549 0.0967327 18.2462C0.232698 18.6375 0.660101 18.8444 1.05136 18.7084L0.558988 17.2916ZM9.53841 17.952L9.7768 17.2409V17.2409L9.53841 17.952ZM15.8286 23.6319C16.0601 23.9754 16.5262 24.0662 16.8697 23.8346C17.2131 23.6031 17.3039 23.137 17.0724 22.7935L15.8286 23.6319ZM1.05136 18.7084C3.72016 17.781 6.6212 17.7651 9.30003 18.6631L9.7768 17.2409C6.78323 16.2374 3.54134 16.2552 0.558988 17.2916L1.05136 18.7084ZM9.30003 18.6631C11.964 19.5561 14.2586 21.3029 15.8286 23.6319L17.0724 22.7935C15.3179 20.1908 12.7538 18.2388 9.7768 17.2409L9.30003 18.6631Z" fill="#1B1D21"></path> <path d="M21.7499 14.25L21.7489 15H21.7499V14.25ZM23.1794 15.0667C23.5917 15.1056 23.9576 14.8029 23.9966 14.3905C24.0355 13.9782 23.7328 13.6123 23.3204 13.5733L23.1794 15.0667ZM10.5309 17.9007C10.2275 18.1827 10.2102 18.6573 10.4921 18.9607C10.7741 19.2641 11.2487 19.2814 11.5521 18.9994L10.5309 17.9007ZM21.7499 15C22.2328 15 22.7093 15.0223 23.1794 15.0667L23.3204 13.5733C22.8025 13.5244 22.279 13.5 21.7499 13.5V15ZM11.5521 18.9994C14.3218 16.4252 17.9653 14.9952 21.7489 15L21.7508 13.5C17.5876 13.4947 13.5785 15.0681 10.5309 17.9007L11.5521 18.9994Z" fill="#1B1D21"></path> </g></svg>