<svg fill="#1B1D21" height="64px" width="64px" version="1.1" id="Layer_1" xmlns="http://www.w3.org/2000/svg" xmlns:xlink="http://www.w3.org/1999/xlink" viewBox="0 0 512 512" xml:space="preserve"><g id="SVGRepo_bgCarrier" stroke-width="0"></g><g id="SVGRepo_tracerCarrier" stroke-linecap="round" stroke-linejoin="round"></g><g id="SVGRepo_iconCarrier"> <g> <g> <path d="M490.057,431.543h-21.943V256h21.943c7.427,0,14.351-3.757,18.398-9.985c4.048-6.229,4.669-14.081,1.653-20.869 L451.594,93.488c-3.521-7.924-11.38-13.031-20.051-13.031h-65.829V58.514c0-12.118-9.825-21.943-21.943-21.943 s-21.943,9.825-21.943,21.943v21.943H80.457c-8.672,0-16.53,5.107-20.051,13.031L1.892,225.146 c-3.018,6.788-2.395,14.64,1.653,20.869C7.592,252.244,14.515,256,21.943,256h21.943v175.543H21.943 C9.825,431.543,0,441.368,0,453.486s9.825,21.943,21.943,21.943h43.886h102.4h175.543h102.4h43.886 c12.118,0,21.943-9.825,21.943-21.943S502.176,431.543,490.057,431.543z M146.286,431.543H87.772V256h58.514V431.543z M321.829,431.543h-43.886v-21.952c0-12.118-9.825-21.943-21.943-21.943s-21.943,9.825-21.943,21.943v21.952h-43.886V245.029 L256,195.657l65.829,49.371V431.543z M424.229,431.543h-58.514V256h58.514V431.543z M446.172,212.114h-95.086l-81.92-61.44 c-7.801-5.85-18.53-5.853-26.331,0l-81.92,61.44H65.829h-10.12l39.009-87.771h322.566l39.01,87.771H446.172z"></path> </g> </g> </g></svg>