<svg fill="#1B1D21" height="64px" width="64px" version="1.1" id="Layer_1" xmlns="http://www.w3.org/2000/svg" xmlns:xlink="http://www.w3.org/1999/xlink" viewBox="0 0 512 512" xml:space="preserve"><g id="SVGRepo_bgCarrier" stroke-width="0"></g><g id="SVGRepo_tracerCarrier" stroke-linecap="round" stroke-linejoin="round"></g><g id="SVGRepo_iconCarrier"> <g> <g> <g> <path d="M255.839,149.146c9.906,9.905,23.074,15.36,37.081,15.36c28.919,0,52.444-23.524,52.444-52.441 c0-28.916-23.525-52.442-52.443-52.442c-28.916,0-52.441,23.525-52.441,52.442C240.48,126.072,245.935,139.239,255.839,149.146z M292.921,75.673c20.067,0,36.394,16.325,36.394,36.393c0,20.066-16.326,36.391-36.394,36.391 c-9.719,0-18.858-3.786-25.731-10.659c-6.874-6.876-10.66-16.014-10.66-25.732C256.529,91.999,272.855,75.673,292.921,75.673z"></path> <path d="M358.185,112.066c0,4.432,3.593,8.025,8.025,8.025h28.87c4.433,0,8.025-3.593,8.025-8.025 c0-4.433-3.592-8.025-8.025-8.025h-28.87C361.777,104.041,358.185,107.634,358.185,112.066z"></path> <path d="M190.764,120.091h28.871c4.433,0,8.025-3.593,8.025-8.025c0-4.433-3.592-8.025-8.025-8.025h-28.871 c-4.433,0-8.025,3.593-8.025,8.025C182.739,116.498,186.331,120.091,190.764,120.091z"></path> <path d="M344.743,68.269c2.053,0,4.108-0.783,5.675-2.351l20.415-20.416c3.134-3.134,3.134-8.215-0.001-11.349 c-3.133-3.133-8.214-3.134-11.349,0.001l-20.415,20.416c-3.134,3.134-3.134,8.215,0.001,11.349 C340.635,67.486,342.69,68.269,344.743,68.269z"></path> <path d="M235.425,158.213L215.01,178.63c-3.134,3.134-3.134,8.215,0.001,11.349c1.566,1.564,3.621,2.349,5.674,2.349 c2.053,0,4.108-0.783,5.675-2.351l20.415-20.417c3.134-3.134,3.134-8.215-0.001-11.348 C243.641,155.079,238.56,155.078,235.425,158.213z"></path> <path d="M292.921,46.803c4.432,0,8.025-3.592,8.025-8.025l0.001-28.869c0-4.432-3.592-8.025-8.025-8.025 c-4.432,0-8.025,3.593-8.025,8.025l-0.001,28.869C284.896,43.21,288.489,46.803,292.921,46.803z"></path> <path d="M284.896,185.351v28.872c0,4.433,3.593,8.025,8.025,8.025c4.433,0,8.025-3.592,8.025-8.025v-28.872 c0-4.433-3.592-8.025-8.025-8.025C288.489,177.326,284.896,180.919,284.896,185.351z"></path> <path d="M235.425,65.919c1.568,1.567,3.621,2.352,5.675,2.352c2.053,0,4.108-0.784,5.674-2.35 c3.135-3.134,3.135-8.215,0.001-11.349l-20.415-20.416c-3.134-3.134-8.215-3.135-11.349-0.001 c-3.135,3.134-3.135,8.215-0.001,11.348L235.425,65.919z"></path> <path d="M370.835,162.883c0,0.169,0.002,0.338,0.005,0.508h-24.671c-13.699,0-24.843,11.144-24.843,24.842 c0,13.699,11.145,24.842,24.843,24.842h78.883c13.699,0,24.842-11.144,24.842-24.842c0-0.169-0.002-0.338-0.005-0.508h24.671 c13.699,0,24.842-11.144,24.842-24.842s-11.144-24.842-24.842-24.842h-78.883C381.979,138.04,370.835,149.184,370.835,162.883z M483.353,162.883c0,4.848-3.944,8.793-8.793,8.793h-35.034c-2.881,0-5.542,1.545-6.97,4.048 c-1.428,2.503-1.406,5.579,0.061,8.059c0.815,1.378,1.227,2.876,1.227,4.45c0,4.848-3.944,8.793-8.793,8.793h-78.883 c-4.849,0-8.794-3.945-8.794-8.793c0-4.848,3.944-8.793,8.794-8.793h35.033c2.881,0,5.542-1.545,6.97-4.048 c1.428-2.503,1.406-5.579-0.061-8.059c-0.814-1.377-1.226-2.874-1.226-4.45c0-4.848,3.944-8.793,8.793-8.793h78.883 C479.408,154.09,483.353,158.035,483.353,162.883z"></path> <path d="M229.331,310.652h227.576c4.433,0,8.025-3.592,8.025-8.025c0-4.432-3.592-8.025-8.025-8.025H229.331 c-4.433,0-8.025,3.593-8.025,8.025S224.898,310.652,229.331,310.652z"></path> <path d="M162.331,310.652h43.375c4.433,0,8.025-3.592,8.025-8.025c0-4.432-3.592-8.025-8.025-8.025h-43.375 c-4.433,0-8.025,3.593-8.025,8.025S157.898,310.652,162.331,310.652z"></path> <path d="M423.205,328.514H319.566c-4.433,0-8.025,3.592-8.025,8.025c0,4.433,3.592,8.025,8.025,8.025h103.639 c4.433,0,8.025-3.592,8.025-8.025C431.23,332.107,427.638,328.514,423.205,328.514z"></path> <path d="M303.339,336.539c0-4.433-3.592-8.025-8.025-8.025h-54.316c-4.433,0-8.025,3.592-8.025,8.025 c0,4.433,3.592,8.025,8.025,8.025h54.316C299.746,344.564,303.339,340.972,303.339,336.539z"></path> <path d="M335.311,362.425h-39.179c-4.433,0-8.025,3.592-8.025,8.025s3.592,8.025,8.025,8.025h39.179 c4.433,0,8.025-3.592,8.025-8.025C343.336,366.017,339.743,362.425,335.311,362.425z"></path> <path d="M503.975,256.819H134.385c0.979-10.994,1.471-22.89,1.471-35.666c0-46.594-6.392-90.514-17.997-123.671 c-12.71-36.31-29.975-55.503-49.932-55.503c-19.957,0-37.223,19.193-49.932,55.503C6.392,130.638,0,174.558,0,221.152 c0,20.461,1.265,38.656,3.769,54.514v52.272v174.152c0,4.433,3.592,8.025,8.025,8.025h192.707h299.474 c4.433,0,8.025-3.592,8.025-8.025V371.238V264.843C512,260.41,508.408,256.819,503.975,256.819z M33.145,102.783 c9.808-28.024,22.812-44.755,34.783-44.755c11.972,0,24.974,16.731,34.783,44.755c11.024,31.497,17.096,73.534,17.096,118.37 c0,48.547-7.385,105.538-40.64,115.846c-0.076,0.022-0.155,0.044-0.231,0.067c-0.909,0.276-1.84,0.51-2.787,0.715 c-0.065,0.014-0.129,0.029-0.195,0.043v-35.589l20.23-15.246c3.54-2.667,4.247-7.698,1.579-11.238 c-2.665-3.539-7.697-4.246-11.238-1.579l-10.571,7.967V247.41c0-4.433-3.592-8.025-8.025-8.025c-4.433,0-8.025,3.592-8.025,8.025 v90.406c-0.102-0.021-0.203-0.041-0.305-0.063c-0.316-0.07-0.633-0.136-0.945-0.213c-0.324-0.079-0.643-0.171-0.963-0.26 c-0.824-0.229-1.635-0.479-2.429-0.764c-0.076-0.027-0.153-0.05-0.23-0.078c-0.43-0.158-0.853-0.331-1.274-0.504 c-0.165-0.068-0.332-0.134-0.495-0.203c-0.433-0.187-0.861-0.383-1.284-0.586c-0.128-0.062-0.256-0.123-0.383-0.187 c-0.461-0.228-0.916-0.462-1.365-0.709c-0.017-0.009-0.033-0.019-0.05-0.028c-15.893-8.795-24.779-29.804-29.47-54.648 c-0.01-0.048-0.019-0.095-0.027-0.142c-3.474-18.463-4.635-39.033-4.635-58.277C16.049,176.318,22.12,134.28,33.145,102.783z M211.495,483.207c-1.559,1.556-3.107,3.125-4.645,4.709c-0.537,0.552-1.068,1.109-1.602,1.664 c-1.103,1.15-2.203,2.305-3.294,3.47c-0.32,0.34-0.647,0.674-0.965,1.016H19.819v-158.23c2.392,0.004,4.9,0.039,7.494,0.103 c8.272,9.584,18.271,15.509,29.839,17.736c0.239,0.046,0.475,0.088,0.714,0.131c0.652,0.116,1.306,0.224,1.969,0.317 c0.022,0.003,0.046,0.007,0.068,0.011v85.933H47.668c-4.433,0-8.025,3.592-8.025,8.025s3.592,8.025,8.025,8.025h80.164 c4.432,0,8.025-3.592,8.025-8.025s-3.593-8.025-8.025-8.025H75.952v-85.928c0.269-0.037,0.538-0.079,0.807-0.121 c0.103-0.016,0.204-0.03,0.305-0.047c0.63-0.103,1.263-0.217,1.896-0.343c0.101-0.019,0.2-0.04,0.3-0.06 c0.639-0.132,1.279-0.275,1.92-0.431c0.063-0.016,0.124-0.031,0.186-0.047c6.471-1.61,13.032-4.578,19.252-9.525 c50.488,8.848,123.459,28.942,196.469,74.548c-31.227,17.696-59.736,39.346-85.314,64.818 C211.679,483.021,211.588,483.115,211.495,483.207z M223.353,494.066c1.36-1.35,2.725-2.693,4.103-4.022 c0.246-0.236,0.489-0.479,0.734-0.716c1.893-1.813,3.804-3.604,5.731-5.375c0.495-0.457,0.994-0.9,1.49-1.352 c1.41-1.285,2.829-2.563,4.257-3.825c0.7-0.618,1.402-1.228,2.104-1.839c1.237-1.078,2.48-2.147,3.731-3.209 c0.783-0.664,1.568-1.33,2.353-1.985c1.187-0.993,2.386-1.972,3.585-2.95c0.821-0.668,1.638-1.346,2.461-2.004 c1.462-1.172,2.938-2.325,4.417-3.475c1.583-1.229,3.168-2.437,4.755-3.632c0.621-0.469,1.24-0.938,1.864-1.402 c1.424-1.057,2.85-2.101,4.278-3.131c0.367-0.265,0.734-0.529,1.102-0.793c96.106-68.835,198.13-74.878,225.632-75.177v114.888 H223.353z M495.951,363.128c-18.466,0.174-62.32,2.596-115.844,19.228c-23.398,7.271-45.688,16.312-66.828,27.06 c-73.038-47.393-146.708-69.509-199.898-79.813c1.372-2.006,2.682-4.123,3.922-6.359c4.265-7.697,7.8-16.854,10.601-27.425 c1.836-6.866,3.399-14.491,4.636-22.952h363.411V363.128z"></path> </g> </g> </g> </g></svg>