<svg width="64px" height="64px" viewBox="0 0 45 45" fill="none" xmlns="http://www.w3.org/2000/svg"><g id="SVGRepo_bgCarrier" stroke-width="0"></g><g id="SVGRepo_tracerCarrier" stroke-linecap="round" stroke-linejoin="round"></g><g id="SVGRepo_iconCarrier"> <path d="M23.125 20.375H29.125" stroke="#1B1D21" stroke-width="2"></path> <path d="M10.125 16.375H34.125" stroke="#1B1D21" stroke-width="2"></path> <path d="M29.125 23.375V13.375C29.125 11.718 27.782 10.375 26.125 10.375C24.468 10.375 23.125 11.718 23.125 13.375M23.125 23.375V13.375C23.125 11.718 21.782 10.375 20.125 10.375C18.468 10.375 17.125 11.718 17.125 13.375" stroke="#1B1D21" stroke-width="2"></path> <mask id="mask0_2_1368" style="mask-type:alpha" maskUnits="userSpaceOnUse" x="2" y="18" width="41" height="21"> <path d="M42.018 18.2505V38.3975H2V18.2505H42.018Z" fill="#000000"></path> </mask> <g mask="url(#mask0_2_1368)"> <path d="M10.136 34.852C9.41198 34.852 8.68798 34.602 8.13598 34.102C7.58398 33.602 6.85998 33.352 6.13598 33.352C5.41199 33.352 4.68798 33.602 4.13598 34.102C3.58398 34.602 2.85999 34.852 2.13598 34.852C1.41199 34.852 0.687984 34.602 0.135984 34.102C-0.416016 33.602 -1.14001 33.352 -1.86402 33.352C-2.58801 33.352 -3.31202 33.602 -3.86402 34.102C-4.41602 34.602 -5.14001 34.852 -5.86402 34.852C-6.58801 34.852 -7.31202 34.602 -7.86402 34.102C-8.41602 33.602 -9.14001 33.352 -9.86402 33.352C-10.588 33.352 -11.312 33.602 -11.864 34.102C-12.416 34.602 -13.14 34.852 -13.864 34.852M58.124 34.866C57.4 34.866 56.676 34.616 56.124 34.116C55.572 33.616 54.848 33.366 54.124 33.366C53.4 33.366 52.676 33.616 52.124 34.116C51.572 34.616 50.848 34.866 50.124 34.866C49.4 34.866 48.676 34.616 48.124 34.116C47.572 33.616 46.848 33.366 46.124 33.366C45.4 33.366 44.676 33.616 44.124 34.116C43.572 34.616 42.848 34.866 42.124 34.866C41.4 34.866 40.676 34.616 40.124 34.116C39.572 33.616 38.848 33.366 38.124 33.366C37.4 33.366 36.676 33.616 36.124 34.116C35.572 34.616 34.848 34.866 34.124 34.866M34.125 34.875C33.401 34.875 32.677 34.625 32.125 34.125C31.573 33.625 30.849 33.375 30.125 33.375C29.401 33.375 28.677 33.625 28.125 34.125C27.573 34.625 26.849 34.875 26.125 34.875C25.401 34.875 24.677 34.625 24.125 34.125C23.573 33.625 22.849 33.375 22.125 33.375C21.401 33.375 20.677 33.625 20.125 34.125C19.573 34.625 18.849 34.875 18.125 34.875C17.401 34.875 16.677 34.625 16.125 34.125C15.573 33.625 14.849 33.375 14.125 33.375C13.401 33.375 12.677 33.625 12.125 34.125C11.573 34.625 10.849 34.875 10.125 34.875" stroke="#1B1D21" stroke-width="2"></path> <path d="M10.136 29.852C9.41198 29.852 8.68798 29.602 8.13598 29.102C7.58398 28.602 6.85998 28.352 6.13598 28.352C5.41199 28.352 4.68798 28.602 4.13598 29.102C3.58398 29.602 2.85999 29.852 2.13598 29.852C1.41199 29.852 0.687984 29.602 0.135984 29.102C-0.416016 28.602 -1.14001 28.352 -1.86402 28.352C-2.58801 28.352 -3.31202 28.602 -3.86402 29.102C-4.41602 29.602 -5.14001 29.852 -5.86402 29.852C-6.58801 29.852 -7.31202 29.602 -7.86402 29.102C-8.41602 28.602 -9.14001 28.352 -9.86402 28.352C-10.588 28.352 -11.312 28.602 -11.864 29.102C-12.416 29.602 -13.14 29.852 -13.864 29.852M58.124 29.866C57.4 29.866 56.676 29.616 56.124 29.116C55.572 28.616 54.848 28.366 54.124 28.366C53.4 28.366 52.676 28.616 52.124 29.116C51.572 29.616 50.848 29.866 50.124 29.866C49.4 29.866 48.676 29.616 48.124 29.116C47.572 28.616 46.848 28.366 46.124 28.366C45.4 28.366 44.676 28.616 44.124 29.116C43.572 29.616 42.848 29.866 42.124 29.866C41.4 29.866 40.676 29.616 40.124 29.116C39.572 28.616 38.848 28.366 38.124 28.366C37.4 28.366 36.676 28.616 36.124 29.116C35.572 29.616 34.848 29.866 34.124 29.866M34.125 29.875C33.401 29.875 32.677 29.625 32.125 29.125C31.573 28.625 30.849 28.375 30.125 28.375C29.401 28.375 28.677 28.625 28.125 29.125C27.573 29.625 26.849 29.875 26.125 29.875C25.401 29.875 24.677 29.625 24.125 29.125C23.573 28.625 22.849 28.375 22.125 28.375C21.401 28.375 20.677 28.625 20.125 29.125C19.573 29.625 18.849 29.875 18.125 29.875C17.401 29.875 16.677 29.625 16.125 29.125C15.573 28.625 14.849 28.375 14.125 28.375C13.401 28.375 12.677 28.625 12.125 29.125C11.573 29.625 10.849 29.875 10.125 29.875" stroke="#1B1D21" stroke-width="2"></path> <path d="M10.136 24.852C9.41198 24.852 8.68798 24.602 8.13598 24.102C7.58398 23.602 6.85998 23.352 6.13598 23.352C5.41199 23.352 4.68798 23.602 4.13598 24.102C3.58398 24.602 2.85999 24.852 2.13598 24.852C1.41199 24.852 0.687984 24.602 0.135984 24.102C-0.416016 23.602 -1.14001 23.352 -1.86402 23.352C-2.58801 23.352 -3.31202 23.602 -3.86402 24.102C-4.41602 24.602 -5.14001 24.852 -5.86402 24.852C-6.58801 24.852 -7.31202 24.602 -7.86402 24.102C-8.41602 23.602 -9.14001 23.352 -9.86402 23.352C-10.588 23.352 -11.312 23.602 -11.864 24.102C-12.416 24.602 -13.14 24.852 -13.864 24.852M58.124 24.866C57.4 24.866 56.676 24.616 56.124 24.116C55.572 23.616 54.848 23.366 54.124 23.366C53.4 23.366 52.676 23.616 52.124 24.116C51.572 24.616 50.848 24.866 50.124 24.866C49.4 24.866 48.676 24.616 48.124 24.116C47.572 23.616 46.848 23.366 46.124 23.366C45.4 23.366 44.676 23.616 44.124 24.116C43.572 24.616 42.848 24.866 42.124 24.866C41.4 24.866 40.676 24.616 40.124 24.116C39.572 23.616 38.848 23.366 38.124 23.366C37.4 23.366 36.676 23.616 36.124 24.116C35.572 24.616 34.848 24.866 34.124 24.866M34.125 24.875C33.401 24.875 32.677 24.625 32.125 24.125C31.573 23.625 30.849 23.375 30.125 23.375C29.401 23.375 28.677 23.625 28.125 24.125C27.573 24.625 26.849 24.875 26.125 24.875C25.401 24.875 24.677 24.625 24.125 24.125C23.573 23.625 22.849 23.375 22.125 23.375C21.401 23.375 20.677 23.625 20.125 24.125C19.573 24.625 18.849 24.875 18.125 24.875C17.401 24.875 16.677 24.625 16.125 24.125C15.573 23.625 14.849 23.375 14.125 23.375C13.401 23.375 12.677 23.625 12.125 24.125C11.573 24.625 10.849 24.875 10.125 24.875" stroke="#1B1D21" stroke-width="2"></path> </g> </g></svg>