<svg fill="#1B1D21" height="64px" width="64px" version="1.1" id="Layer_1" xmlns="http://www.w3.org/2000/svg" xmlns:xlink="http://www.w3.org/1999/xlink" viewBox="0 0 512 512" xml:space="preserve"><g id="SVGRepo_bgCarrier" stroke-width="0"></g><g id="SVGRepo_tracerCarrier" stroke-linecap="round" stroke-linejoin="round"></g><g id="SVGRepo_iconCarrier"> <g> <g> <path d="M368.309,382.945l13.401-73.692c24.94,7.363,44.378,54.643,50.14,73.791c0.77,2.555,2.767,4.567,5.313,5.359 c2.563,0.82,5.337,0.283,7.428-1.389c13.708-10.973,25.766-33.423,5.306-78.061c-5.832-12.716-12.93-24.255-18.55-32.602 c19.949,5.298,42.036,27.165,50.328,37.092c2.012,2.403,5.274,3.425,8.285,2.61c3.034-0.827,5.313-3.343,5.832-6.445 c7.153-42.893-29.075-68.226-45.447-77.328l12.513-25.027c1.548-3.097,0.943-6.84-1.509-9.291 c-2.452-2.462-6.194-3.05-9.291-1.509l-43.687,21.843l-36.219-28.98c-2.138-1.706-5.038-2.218-7.601-1.338 c-2.602,0.872-4.575,3.01-5.235,5.677l-6.186,24.734c-23.73-1.643-69.861,12.783-85.141,17.874 c-3.285,1.094-5.502,4.168-5.502,7.634c0,3.466,2.217,6.54,5.502,7.632l35.622,11.875c-17.316,21.152-28.532,59.031-31.912,71.59 c-0.755,1.871-1.163,3.712-1.163,5.488c0,4.062,3.034,7.491,7.066,7.986c3.961,0.462,7.797-2.083,8.787-6.029 c0.244-0.967,0.519-2.038,0.833-3.177c3.671-6.406,22.189-19.619,44.535-32.052l-12.773,63.887 c-0.307,1.533-0.136,3.042,0.379,4.404c-18.218-1.849-37.249-2.824-56.878-2.824c-7.687,0-15.276,0.157-22.767,0.45 c-1.458-5.315-3.523-12.503-6.009-21.138c-48.198-167.483-44.779-200.315-38.593-204.921 c19.855-4.913,51.287,38.615,63.455,60.497c1.486,2.673,4.299,4.15,7.451,4.129c3.066-0.165,5.769-2.051,6.98-4.875 c20.688-48.269-20.271-89.705-40.7-106.536c16.278-6.17,30.096-1.886,30.757-1.68c3.388,1.14,7.113-0.102,9.149-3.026 c2.044-2.934,1.91-6.846-0.315-9.639c-27.848-34.797-85.935-31.692-109.924-28.658c3.144-15.076,12.647-24.917,12.741-25.011 c2.563-2.552,3.097-6.506,1.313-9.658c-1.784-3.144-5.447-4.732-8.953-3.836c-26.174,6.54-47.067,22.747-55.752,30.322 L67.99,27.428c-2.9-1.472-6.414-1.022-8.874,1.116c-2.46,2.138-3.388,5.541-2.358,8.628l13.095,39.303 C0.833,90.993,0,170.614,0,171.457c0,4.134,3.136,7.601,7.255,8.01c4.024,0.304,7.876-2.374,8.685-6.43 c3.482-17.412,23.596-28.485,42.846-34.899c-31.841,45.164-3.372,120.936-1.91,124.748c1.462,3.794,5.526,5.911,9.472,4.913 c3.946-0.99,6.532-4.763,6.029-8.803c-5.903-47.257,47.656-86.495,68.391-99.784c20.203,60.421,27.762,211.439,28.24,221.362 C76.709,396.96,12.977,437.209,12.977,485.392c0,4.449,3.6,8.082,8.049,8.082h482.925c4.449,0,8.049-3.633,8.049-8.082 C512,439.389,453.898,400.617,368.309,382.945z M297.034,309.473c6.854-17.648,16.113-36.015,26.261-42.785 c2.555-1.704,3.922-4.714,3.513-7.764c-0.409-3.052-2.515-5.596-5.431-6.565l-24.366-8.125 c26.756-7.444,52.419-12.248,58.464-9.238c2.185,1.095,4.747,1.14,6.964,0.11c2.217-1.012,3.852-2.987,4.441-5.359l5.007-20.03 l30.45,24.368c2.46,1.957,5.824,2.301,8.63,0.91l26.693-13.346l-5.298,10.596c-0.99,1.981-1.124,4.286-0.362,6.369 c0.762,2.083,2.35,3.757,4.394,4.63c0.417,0.179,34.93,15.327,42.657,44.268c-15.877-14.698-41.651-33.29-65.585-27.275 c-2.665,0.658-4.795,2.633-5.675,5.227c-0.88,2.592-0.369,5.463,1.336,7.601c0.527,0.658,46.32,59.493,33.209,91.052 c-9.534-24.932-32.148-71.928-67.165-71.928c-3.891,0-7.223,2.78-7.915,6.61l-14.759,81.175 c-6.19-1.051-12.504-1.995-18.931-2.828c0.57-0.853,0.99-1.824,1.204-2.891l16.098-80.488c0.605-3.018-0.566-6.107-3.003-7.98 c-2.444-1.863-5.738-2.159-8.489-0.8C327.044,291.159,310.703,299.954,297.034,309.473z M152.274,144.143 c-0.888-2.085-2.617-3.694-4.763-4.441c-2.146-0.731-4.496-0.552-6.484,0.542c-3.01,1.643-59.25,32.847-78.68,79.811 c-5.078-30.914-4.433-72.582,29.79-89.694c3.49-1.745,5.227-5.736,4.119-9.477c-1.108-3.743-4.779-6.149-8.607-5.724 c-2.232,0.252-39.521,4.645-64.948,22.731c0.55-1.493,1.155-3.003,1.8-4.52c10.792-25.176,29.931-39.456,56.876-42.45 c2.413-0.267,4.583-1.619,5.895-3.663c1.305-2.051,1.619-4.577,0.849-6.885l-9.951-29.862l30.914,15.461 c3.097,1.543,6.83,0.953,9.29-1.509c0.165-0.163,12.726-12.584,31.338-22c-2.759,6.832-4.834,15.06-4.834,24.358 c0,2.413,1.085,4.693,2.948,6.227c1.863,1.525,4.315,2.13,6.681,1.667c0.621-0.134,52.333-10.126,86.43,6.852 c-8.544,1.205-18.314,4.239-28.084,10.755c-2.24,1.493-3.584,4.009-3.584,6.695c0,2.688,1.344,5.203,3.584,6.697 c0.589,0.393,51.83,35.129,49.503,77.306c-15.099-22.616-43.867-58.417-71.134-51.562c-3.034,0.755-7.31,2.804-10.454,8.253 c-13.779,23.918,5.015,103.934,37.477,216.727c1.973,6.866,3.672,12.784,5.017,17.567c-13.148,0.9-25.923,2.254-38.259,4.015 C183.927,356.003,175.485,198.291,152.274,144.143z M29.916,477.377c10.265-48.293,112.588-88.536,232.573-88.536 s222.308,40.244,232.573,88.536H29.916z"></path> </g> </g> </g></svg>