<svg width="64px" height="64px" viewBox="0 0 24 24" id="Layer_1" data-name="Layer 1" xmlns="http://www.w3.org/2000/svg" fill="#1B1D21"><g id="SVGRepo_bgCarrier" stroke-width="0"></g><g id="SVGRepo_tracerCarrier" stroke-linecap="round" stroke-linejoin="round"></g><g id="SVGRepo_iconCarrier"><defs><style>.cls-1{fill:none;stroke:#1B1D21;stroke-miterlimit:10;stroke-width:1.82px;}</style></defs><line class="cls-1" x1="1.09" y1="17.45" x2="22.91" y2="17.45"></line><line class="cls-1" x1="3.82" y1="17.45" x2="3.82" y2="22"></line><line class="cls-1" x1="20.18" y1="17.45" x2="20.18" y2="22"></line><rect class="cls-1" x="5.64" y="6.55" width="12.73" height="10.91"></rect><polyline class="cls-1" points="2 8.36 12 2 22 8.36"></polyline><rect class="cls-1" x="10.18" y="12" width="3.64" height="5.45"></rect><path class="cls-1" d="M1.09,20.63h0a3.4,3.4,0,0,0,5.45,0h0a3.41,3.41,0,0,0,5.45,0h0a3.39,3.39,0,0,0,5.44,0h0a3.4,3.4,0,0,0,5.44,0h0"></path></g></svg>