<svg width="64px" height="64px" viewBox="0 0 400 400" fill="none" xmlns="http://www.w3.org/2000/svg"><g id="SVGRepo_bgCarrier" stroke-width="0"></g><g id="SVGRepo_tracerCarrier" stroke-linecap="round" stroke-linejoin="round"></g><g id="SVGRepo_iconCarrier"> <path d="M109.204 116.04C109.856 104.937 114.459 91.0639 124.389 84.532C149.346 68.1167 185.922 99.5825 179.884 126.37C167.112 183.078 107.635 172.894 107.635 119.658" stroke=" $darkerblue : #1B1D21; //* --------- FONT --------- //" stroke-opacity="0.9" stroke-width="16" stroke-linecap="round" stroke-linejoin="round"></path> <path d="M111.107 107.046C137.893 99.7483 173.805 88.7475 177.821 125.96C178.258 130 181.417 138.454 177.299 141.634C171.5 146.106 149.749 146.966 142.626 147.577C107.546 150.586 116.07 145.044 113.209 109.745" stroke=" $darkerblue : #1B1D21; //* --------- FONT --------- //" stroke-opacity="0.9" stroke-width="16" stroke-linecap="round" stroke-linejoin="round"></path> <path d="M109.361 155.227C90.6007 171.429 58.0005 215.539 59.0235 231.371C59.1572 233.441 67.1497 243.161 72.986 243.161C76.8768 243.161 86.3419 233.201 101.381 213.281C103.497 255.894 104.555 285.009 104.555 300.625C104.555 304.256 88.4021 313.131 88.4021 318.184C88.4021 320.986 131.649 318.761 135.971 318.184C140.107 317.631 142.813 299.111 144.09 262.621C148.723 298.569 151.617 317.09 152.77 318.184C156.387 321.614 190.621 316.543 194.43 314.654C195.4 314.171 188.531 304.983 186.769 302.681C180.206 294.106 183.944 191.802 186.248 187.678C187.49 185.456 232.973 184.299 243.08 183.386" stroke=" $darkerblue : #1B1D21; //* --------- FONT --------- //" stroke-opacity="0.9" stroke-width="16" stroke-linecap="round" stroke-linejoin="round"></path> <path d="M164.344 158.896C189.971 155.887 215.886 158.179 241.885 158.179" stroke=" $darkerblue : #1B1D21; //* --------- FONT --------- //" stroke-opacity="0.9" stroke-width="16" stroke-linecap="round" stroke-linejoin="round"></path> <path d="M252.151 105.461C250.439 174.256 252.897 246.559 251.293 312.624" stroke=" $darkerblue : #1B1D21; //* --------- FONT --------- //" stroke-opacity="0.9" stroke-width="16" stroke-linecap="round" stroke-linejoin="round"></path> <path d="M252.301 100.057C271.672 77.4289 290.547 106.942 311.024 109.504C323.717 111.095 329.106 98.4787 338.288 98.4787C338.478 98.4787 338.288 112.355 338.288 113.178C338.288 134.037 349.261 159.511 319.413 162.001C287.84 164.636 291.695 135.415 257.076 148.023" stroke=" $darkerblue : #1B1D21; //* --------- FONT --------- //" stroke-opacity="0.9" stroke-width="16" stroke-linecap="round" stroke-linejoin="round"></path> <path d="M152.771 230.453C136.373 230.895 120.135 231.503 104.163 232.768" stroke=" $darkerblue : #1B1D21; //* --------- FONT --------- //" stroke-opacity="0.9" stroke-width="16" stroke-linecap="round" stroke-linejoin="round"></path> <path d="M93.0037 171.429C91.849 151.294 87.2409 123.869 93.0037 111.649C95.0912 107.223 98.8006 108.786 104.159 107.776" stroke=" $darkerblue : #1B1D21; //* --------- FONT --------- //" stroke-opacity="0.9" stroke-width="16" stroke-linecap="round" stroke-linejoin="round"></path> <path d="M182.861 107.008C203.325 97.5669 195.903 133.85 193.171 148.283" stroke=" $darkerblue : #1B1D21; //* --------- FONT --------- //" stroke-opacity="0.9" stroke-width="16" stroke-linecap="round" stroke-linejoin="round"></path> <path d="M190.963 186.475C189.394 209.589 193.925 222.362 181.704 226.981" stroke=" $darkerblue : #1B1D21; //* --------- FONT --------- //" stroke-opacity="0.9" stroke-width="16" stroke-linecap="round" stroke-linejoin="round"></path> <path d="M153.928 184.677C159.104 178.239 159.847 192.802 156.619 187.671" stroke=" $darkerblue : #1B1D21; //* --------- FONT --------- //" stroke-opacity="0.9" stroke-width="16" stroke-linecap="round" stroke-linejoin="round"></path> </g></svg>