<svg width="16" height="16" viewBox="0 0 16 16" fill="none" xmlns="http://www.w3.org/2000/svg">
<path d="M5.18907 12.4375C5.18907 12.5 5.12657 12.5312 5.03282 12.5312C4.93907 12.5625 4.87657 12.5 4.87657 12.4375C4.87657 12.375 4.93907 12.3125 5.03282 12.3125C5.12657 12.3125 5.18907 12.375 5.18907 12.4375ZM4.22032 12.2812C4.25157 12.2188 4.34532 12.1875 4.43907 12.2188C4.53282 12.25 4.56407 12.3125 4.56407 12.375C4.53282 12.4375 4.43907 12.4688 4.37657 12.4375C4.28282 12.4375 4.22032 12.3438 4.22032 12.2812ZM5.62657 12.25C5.68907 12.2188 5.78282 12.2812 5.78282 12.3438C5.81407 12.4062 5.75157 12.4375 5.65782 12.4688C5.56407 12.5 5.47032 12.4688 5.47032 12.4062C5.47032 12.3125 5.53282 12.25 5.62657 12.25ZM7.65782 0.25C12.0016 0.25 15.5328 3.5625 15.5328 7.875C15.5328 11.3438 13.4078 14.3125 10.2828 15.3438C9.87657 15.4375 9.72032 15.1875 9.72032 14.9688C9.72032 14.7188 9.75157 13.4062 9.75157 12.375C9.75157 11.625 9.50157 11.1562 9.22032 10.9062C10.9703 10.7188 12.8141 10.4688 12.8141 7.46875C12.8141 6.59375 12.5016 6.1875 12.0016 5.625C12.0641 5.40625 12.3453 4.59375 11.9078 3.5C11.2516 3.28125 9.75157 4.34375 9.75157 4.34375C9.12657 4.15625 8.47032 4.09375 7.78282 4.09375C7.12657 4.09375 6.47032 4.15625 5.84532 4.34375C5.84532 4.34375 4.31407 3.3125 3.68907 3.5C3.25157 4.59375 3.50157 5.40625 3.59532 5.625C3.09532 6.1875 2.84532 6.59375 2.84532 7.46875C2.84532 10.4688 4.62657 10.7188 6.37657 10.9062C6.12657 11.125 5.93907 11.4688 5.87657 11.9688C5.40782 12.1875 4.28282 12.5312 3.59532 11.3125C3.15782 10.5625 2.37657 10.5 2.37657 10.5C1.62657 10.5 2.34532 11 2.34532 11C2.84532 11.2188 3.18907 12.125 3.18907 12.125C3.65782 13.5312 5.84532 13.0625 5.84532 13.0625C5.84532 13.7188 5.84532 14.7812 5.84532 15C5.84532 15.1875 5.72032 15.4375 5.31407 15.375C2.18907 14.3125 0.0328207 11.3438 0.0328207 7.875C0.0328207 3.5625 3.34532 0.25 7.65782 0.25ZM3.06407 11.0312C3.09532 11 3.15782 11.0312 3.22032 11.0625C3.28282 11.125 3.28282 11.2188 3.25157 11.25C3.18907 11.2812 3.12657 11.25 3.06407 11.2188C3.03282 11.1562 3.00157 11.0625 3.06407 11.0312ZM2.72032 10.7812C2.75157 10.75 2.78282 10.75 2.84532 10.7812C2.90782 10.8125 2.93907 10.8438 2.93907 10.875C2.90782 10.9375 2.84532 10.9375 2.78282 10.9062C2.72032 10.875 2.68907 10.8438 2.72032 10.7812ZM3.72032 11.9062C3.78282 11.8438 3.87657 11.875 3.93907 11.9375C4.00157 12 4.00157 12.0938 3.97032 12.125C3.93907 12.1875 3.84532 12.1562 3.78282 12.0938C3.68907 12.0312 3.68907 11.9375 3.72032 11.9062ZM3.37657 11.4375C3.43907 11.4062 3.50157 11.4375 3.56407 11.5C3.59532 11.5625 3.59532 11.6562 3.56407 11.6875C3.50157 11.7188 3.43907 11.6875 3.37657 11.625C3.31407 11.5625 3.31407 11.4688 3.37657 11.4375Z" fill="#1B1D21"/>
</svg>
