<svg width="15" height="15" viewBox="0 0 15 15" fill="none" xmlns="http://www.w3.org/2000/svg">
<path d="M7.44608 3.40625C9.41483 3.40625 11.0398 5.03125 11.0398 7C11.0398 9 9.41483 10.5938 7.44608 10.5938C5.44608 10.5938 3.85233 9 3.85233 7C3.85233 5.03125 5.44608 3.40625 7.44608 3.40625ZM7.44608 9.34375C8.72733 9.34375 9.75858 8.3125 9.75858 7C9.75858 5.71875 8.72733 4.6875 7.44608 4.6875C6.13358 4.6875 5.10233 5.71875 5.10233 7C5.10233 8.3125 6.16483 9.34375 7.44608 9.34375ZM12.0086 3.28125C12.0086 3.75 11.6336 4.125 11.1648 4.125C10.6961 4.125 10.3211 3.75 10.3211 3.28125C10.3211 2.8125 10.6961 2.4375 11.1648 2.4375C11.6336 2.4375 12.0086 2.8125 12.0086 3.28125ZM14.3836 4.125C14.4461 5.28125 14.4461 8.75 14.3836 9.90625C14.3211 11.0312 14.0711 12 13.2586 12.8438C12.4461 13.6562 11.4461 13.9062 10.3211 13.9688C9.16483 14.0312 5.69608 14.0312 4.53983 13.9688C3.41483 13.9062 2.44608 13.6562 1.60233 12.8438C0.789827 12 0.539827 11.0312 0.477327 9.90625C0.414827 8.75 0.414827 5.28125 0.477327 4.125C0.539827 3 0.789827 2 1.60233 1.1875C2.44608 0.375 3.41483 0.125 4.53983 0.0625C5.69608 0 9.16483 0 10.3211 0.0625C11.4461 0.125 12.4461 0.375 13.2586 1.1875C14.0711 2 14.3211 3 14.3836 4.125ZM12.8836 11.125C13.2586 10.2188 13.1648 8.03125 13.1648 7C13.1648 6 13.2586 3.8125 12.8836 2.875C12.6336 2.28125 12.1648 1.78125 11.5711 1.5625C10.6336 1.1875 8.44608 1.28125 7.44608 1.28125C6.41483 1.28125 4.22733 1.1875 3.32108 1.5625C2.69608 1.8125 2.22733 2.28125 1.97733 2.875C1.60233 3.8125 1.69608 6 1.69608 7C1.69608 8.03125 1.60233 10.2188 1.97733 11.125C2.22733 11.75 2.69608 12.2188 3.32108 12.4688C4.22733 12.8438 6.41483 12.75 7.44608 12.75C8.44608 12.75 10.6336 12.8438 11.5711 12.4688C12.1648 12.2188 12.6648 11.75 12.8836 11.125Z" fill="#1B1D21"/>
</svg>
