<svg width="17" height="14" viewBox="0 0 17 14" fill="none" xmlns="http://www.w3.org/2000/svg">
<path d="M14.6754 3.75C14.6754 3.90625 14.6754 4.03125 14.6754 4.1875C14.6754 8.53125 11.3941 13.5 5.3629 13.5C3.4879 13.5 1.76915 12.9688 0.331649 12.0312C0.581649 12.0625 0.831649 12.0938 1.1129 12.0938C2.64415 12.0938 4.0504 11.5625 5.1754 10.6875C3.7379 10.6562 2.51915 9.71875 2.1129 8.40625C2.33165 8.4375 2.51915 8.46875 2.7379 8.46875C3.01915 8.46875 3.33165 8.40625 3.58165 8.34375C2.08165 8.03125 0.956649 6.71875 0.956649 5.125V5.09375C1.39415 5.34375 1.9254 5.46875 2.45665 5.5C1.5504 4.90625 0.987899 3.90625 0.987899 2.78125C0.987899 2.15625 1.14415 1.59375 1.4254 1.125C3.0504 3.09375 5.4879 4.40625 8.20665 4.5625C8.14415 4.3125 8.1129 4.0625 8.1129 3.8125C8.1129 2 9.58165 0.53125 11.3941 0.53125C12.3316 0.53125 13.1754 0.90625 13.8004 1.5625C14.5191 1.40625 15.2379 1.125 15.8629 0.75C15.6129 1.53125 15.1129 2.15625 14.4254 2.5625C15.0816 2.5 15.7379 2.3125 16.3004 2.0625C15.8629 2.71875 15.3004 3.28125 14.6754 3.75Z" fill="#1B1D21"/>
</svg>
