<svg width="18" height="12" viewBox="0 0 18 12" fill="none" xmlns="http://www.w3.org/2000/svg">
<path d="M17.2573 1.90625C17.6323 3.21875 17.6323 6.03125 17.6323 6.03125C17.6323 6.03125 17.6323 8.8125 17.2573 10.1562C17.0698 10.9062 16.476 11.4688 15.7573 11.6562C14.4135 12 9.10101 12 9.10101 12C9.10101 12 3.75726 12 2.41351 11.6562C1.69476 11.4688 1.10101 10.9062 0.91351 10.1562C0.53851 8.8125 0.53851 6.03125 0.53851 6.03125C0.53851 6.03125 0.53851 3.21875 0.91351 1.90625C1.10101 1.15625 1.69476 0.5625 2.41351 0.375C3.75726 0 9.10101 0 9.10101 0C9.10101 0 14.4135 0 15.7573 0.375C16.476 0.5625 17.0698 1.15625 17.2573 1.90625ZM7.35101 8.5625L11.7885 6.03125L7.35101 3.5V8.5625Z" fill="#1B1D21"/>
</svg>
