<svg width="65" height="65" viewBox="0 0 65 65" fill="none" xmlns="http://www.w3.org/2000/svg">
<circle cx="33" cy="33.25" r="20.5" stroke="#FAC515" stroke-width="3"/>
<path d="M41.132 41.3817C36.9926 45.5211 32.3031 48.2233 28.1267 49.2972C23.9126 50.3808 20.516 49.7571 18.5046 47.7456C16.4932 45.7342 15.8694 42.3376 16.953 38.1235C18.027 33.9472 20.7292 29.2576 24.8686 25.1182C29.008 20.9788 33.6975 18.2766 37.8739 17.2027C42.088 16.1191 45.4846 16.7429 47.496 18.7543C49.5074 20.7657 50.1312 24.1623 49.0476 28.3764C47.9736 32.5528 45.2714 37.2423 41.132 41.3817Z" stroke="#FAC515" stroke-width="3"/>
<path d="M41.1314 25.1182C45.2708 29.2576 47.973 33.9471 49.047 38.1235C50.1306 42.3376 49.5068 45.7342 47.4954 47.7456C45.484 49.757 42.0874 50.3808 37.8733 49.2972C33.6969 48.2233 29.0074 45.5211 24.868 41.3817C20.7286 37.2423 18.0264 32.5528 16.9525 28.3764C15.8688 24.1623 16.4926 20.7657 18.504 18.7543C20.5154 16.7429 23.9121 16.1191 28.1262 17.2027C32.3025 18.2766 36.992 20.9788 41.1314 25.1182Z" stroke="#FAC515" stroke-width="3"/>
</svg>
