<svg width="24" height="24" viewBox="0 0 24 24" fill="none" xmlns="http://www.w3.org/2000/svg">
<path d="M21.5344 20.4657L17.475 16.4157C18.9077 14.71 19.6266 12.517 19.4817 10.2942C19.3368 8.07131 18.3394 5.9902 16.6975 4.48488C15.0555 2.97956 12.8958 2.16624 10.6688 2.21456C8.44172 2.26288 6.31931 3.1691 4.74419 4.74422C3.16907 6.31935 2.26285 8.44175 2.21453 10.6688C2.16621 12.8958 2.97953 15.0555 4.48485 16.6975C5.99017 18.3394 8.07128 19.3369 10.2941 19.4817C12.517 19.6266 14.7099 18.9077 16.4156 17.475L20.4656 21.5344C20.609 21.673 20.8006 21.7505 21 21.7505C21.1994 21.7505 21.391 21.673 21.5344 21.5344C21.6752 21.3922 21.7542 21.2002 21.7542 21C21.7542 20.7999 21.6752 20.6078 21.5344 20.4657ZM3.74999 10.875C3.74999 9.46583 4.16787 8.08829 4.95077 6.91659C5.73368 5.74489 6.84645 4.83166 8.14837 4.29238C9.4503 3.75311 10.8829 3.61201 12.265 3.88693C13.6471 4.16185 14.9167 4.84044 15.9131 5.83689C16.9096 6.83334 17.5882 8.10289 17.8631 9.48501C18.138 10.8671 17.9969 12.2997 17.4576 13.6016C16.9184 14.9036 16.0051 16.0163 14.8334 16.7992C13.6617 17.5822 12.2842 18 10.875 18C8.98609 17.9975 7.17526 17.2461 5.8396 15.9104C4.50394 14.5748 3.75247 12.7639 3.74999 10.875Z" fill="#5E6778"/>
</svg>
