<svg width="25" height="25" viewBox="0 0 25 25" fill="none" xmlns="http://www.w3.org/2000/svg">
<path d="M7.8125 2.78042C7.3981 2.78042 7.00067 2.92671 6.70765 3.18711C6.41462 3.44751 6.25 3.80068 6.25 4.16894C6.25 4.53719 6.41462 4.89036 6.70765 5.15076C7.00067 5.41116 7.3981 5.55745 7.8125 5.55745C8.2269 5.55745 8.62433 5.41116 8.91735 5.15076C9.21038 4.89036 9.375 4.53719 9.375 4.16894C9.375 3.80068 9.21038 3.44751 8.91735 3.18711C8.62433 2.92671 8.2269 2.78042 7.8125 2.78042ZM3.39062 2.78042C3.71344 1.96741 4.31209 1.26338 5.10406 0.765403C5.89603 0.267421 6.84232 0 7.8125 0C8.78268 0 9.72897 0.267421 10.5209 0.765403C11.3129 1.26338 11.9116 1.96741 12.2344 2.78042H23.4375C23.8519 2.78042 24.2493 2.92671 24.5424 3.18711C24.8354 3.44751 25 3.80068 25 4.16894C25 4.53719 24.8354 4.89036 24.5424 5.15076C24.2493 5.41116 23.8519 5.55745 23.4375 5.55745H12.2344C11.9116 6.37047 11.3129 7.07449 10.5209 7.57247C9.72897 8.07045 8.78268 8.33787 7.8125 8.33787C6.84232 8.33787 5.89603 8.07045 5.10406 7.57247C4.31209 7.07449 3.71344 6.37047 3.39062 5.55745H1.5625C1.1481 5.55745 0.750672 5.41116 0.457646 5.15076C0.16462 4.89036 0 4.53719 0 4.16894C0 3.80068 0.16462 3.44751 0.457646 3.18711C0.750672 2.92671 1.1481 2.78042 1.5625 2.78042H3.39062ZM17.1875 11.1115C16.7731 11.1115 16.3757 11.2578 16.0826 11.5182C15.7896 11.7786 15.625 12.1317 15.625 12.5C15.625 12.8683 15.7896 13.2214 16.0826 13.4818C16.3757 13.7422 16.7731 13.8885 17.1875 13.8885C17.6019 13.8885 17.9993 13.7422 18.2924 13.4818C18.5854 13.2214 18.75 12.8683 18.75 12.5C18.75 12.1317 18.5854 11.7786 18.2924 11.5182C17.9993 11.2578 17.6019 11.1115 17.1875 11.1115ZM12.7656 11.1115C13.0884 10.2985 13.6871 9.59445 14.4791 9.09647C15.271 8.59849 16.2173 8.33106 17.1875 8.33106C18.1577 8.33106 19.104 8.59849 19.8959 9.09647C20.6879 9.59445 21.2866 10.2985 21.6094 11.1115H23.4375C23.8519 11.1115 24.2493 11.2578 24.5424 11.5182C24.8354 11.7786 25 12.1317 25 12.5C25 12.8683 24.8354 13.2214 24.5424 13.4818C24.2493 13.7422 23.8519 13.8885 23.4375 13.8885H21.6094C21.2866 14.7015 20.6879 15.4056 19.8959 15.9035C19.104 16.4015 18.1577 16.6689 17.1875 16.6689C16.2173 16.6689 15.271 16.4015 14.4791 15.9035C13.6871 15.4056 13.0884 14.7015 12.7656 13.8885H1.5625C1.1481 13.8885 0.750672 13.7422 0.457646 13.4818C0.16462 13.2214 0 12.8683 0 12.5C0 12.1317 0.16462 11.7786 0.457646 11.5182C0.750672 11.2578 1.1481 11.1115 1.5625 11.1115H12.7656ZM7.8125 19.4426C7.3981 19.4426 7.00067 19.5888 6.70765 19.8492C6.41462 20.1096 6.25 20.4628 6.25 20.8311C6.25 21.1993 6.41462 21.5525 6.70765 21.8129C7.00067 22.0733 7.3981 22.2196 7.8125 22.2196C8.2269 22.2196 8.62433 22.0733 8.91735 21.8129C9.21038 21.5525 9.375 21.1993 9.375 20.8311C9.375 20.4628 9.21038 20.1096 8.91735 19.8492C8.62433 19.5888 8.2269 19.4426 7.8125 19.4426ZM3.39062 19.4426C3.71344 18.6295 4.31209 17.9255 5.10406 17.4275C5.89603 16.9296 6.84232 16.6621 7.8125 16.6621C8.78268 16.6621 9.72897 16.9296 10.5209 17.4275C11.3129 17.9255 11.9116 18.6295 12.2344 19.4426H23.4375C23.8519 19.4426 24.2493 19.5888 24.5424 19.8492C24.8354 20.1096 25 20.4628 25 20.8311C25 21.1993 24.8354 21.5525 24.5424 21.8129C24.2493 22.0733 23.8519 22.2196 23.4375 22.2196H12.2344C11.9116 23.0326 11.3129 23.7366 10.5209 24.2346C9.72897 24.7326 8.78268 25 7.8125 25C6.84232 25 5.89603 24.7326 5.10406 24.2346C4.31209 23.7366 3.71344 23.0326 3.39062 22.2196H1.5625C1.1481 22.2196 0.750672 22.0733 0.457646 21.8129C0.16462 21.5525 0 21.1993 0 20.8311C0 20.4628 0.16462 20.1096 0.457646 19.8492C0.750672 19.5888 1.1481 19.4426 1.5625 19.4426H3.39062Z" fill="#264653"/>
</svg>
