<svg width="40" height="40" viewBox="0 0 40 40" fill="none" xmlns="http://www.w3.org/2000/svg">
<rect width="40" height="40" rx="20" fill="white"/>
<path d="M20 29C19.872 29.0013 19.7459 28.969 19.6344 28.9063C19.2312 28.6813 9.875 23.3656 9.875 16.625C9.875 15.4444 10.2465 14.2937 10.9368 13.336C11.6271 12.3783 12.6012 11.662 13.7212 11.2887C14.8412 10.9153 16.0503 10.9038 17.1772 11.2559C18.3041 11.6079 19.2916 12.3055 20 13.25C20.7084 12.3055 21.6959 11.6079 22.8228 11.2559C23.9497 10.9038 25.1588 10.9153 26.2788 11.2887C27.3988 11.662 28.3729 12.3783 29.0632 13.336C29.7535 14.2937 30.125 15.4444 30.125 16.625C30.125 19.4938 28.4656 22.4375 25.1937 25.3813C23.708 26.7169 22.0903 27.898 20.3656 28.9063C20.2541 28.969 20.128 29.0013 20 29ZM15.5 12.5C14.406 12.5 13.3568 12.9346 12.5832 13.7082C11.8096 14.4818 11.375 15.531 11.375 16.625C11.375 21.8 18.3125 26.3469 20 27.3781C21.6875 26.3469 28.625 21.8 28.625 16.625C28.6259 15.6714 28.2963 14.747 27.6924 14.0089C27.0885 13.2709 26.2476 12.765 25.3127 12.5771C24.3777 12.3892 23.4066 12.5311 22.5645 12.9785C21.7224 13.426 21.0613 14.1513 20.6937 15.0313C20.6372 15.1688 20.5411 15.2865 20.4176 15.3693C20.2941 15.4521 20.1487 15.4963 20 15.4963C19.8513 15.4963 19.7059 15.4521 19.5824 15.3693C19.4589 15.2865 19.3628 15.1688 19.3062 15.0313C18.9941 14.2796 18.4656 13.6377 17.7879 13.187C17.1102 12.7363 16.3139 12.4972 15.5 12.5Z" fill="#0E9384"/>
</svg>
