<svg width="46" height="42" viewBox="0 0 46 42" fill="none" xmlns="http://www.w3.org/2000/svg">
<path d="M33.2679 0C29.0272 0 25.3144 1.94296 23 5.22717C20.6856 1.94296 16.9728 0 12.7321 0C9.35654 0.00405382 6.12028 1.4346 3.73336 3.97778C1.34645 6.52096 0.00380473 9.9691 0 13.5657C0 28.8818 21.314 41.2791 22.2217 41.7911C22.4609 41.9282 22.7283 42 23 42C23.2717 42 23.5391 41.9282 23.7783 41.7911C24.686 41.2791 46 28.8818 46 13.5657C45.9962 9.9691 44.6536 6.52096 42.2666 3.97778C39.8797 1.4346 36.6435 0.00405382 33.2679 0ZM23 38.2465C19.2502 35.9185 3.28571 25.3132 3.28571 13.5657C3.28897 10.8974 4.28527 8.33937 6.05611 6.4526C7.82695 4.56582 10.2278 3.5043 12.7321 3.50083C16.7263 3.50083 20.0798 5.76761 21.4804 9.40847C21.6041 9.72951 21.8147 10.0041 22.0853 10.1974C22.3559 10.3906 22.6743 10.4938 23 10.4938C23.3258 10.4938 23.6441 10.3906 23.9147 10.1974C24.1853 10.0041 24.3959 9.72951 24.5196 9.40847C25.9202 5.76105 29.2737 3.50083 33.2679 3.50083C35.7722 3.5043 38.1731 4.56582 39.9439 6.4526C41.7147 8.33937 42.711 10.8974 42.7143 13.5657C42.7143 25.2957 26.7457 35.9163 23 38.2465Z" fill="#F8F8F8"/>
</svg>
