<svg width="56" height="56" viewBox="0 0 56 56" fill="none" xmlns="http://www.w3.org/2000/svg">
<rect width="56" height="56" rx="28" fill="#0E9384"/>
<path d="M40 26.4375V38C39.9991 38.361 39.9012 38.715 39.7165 39.0251C39.5317 39.3352 39.267 39.5899 38.95 39.7625C38.6593 39.9228 38.3319 40.0046 38 40H32C31.7348 40 31.4805 39.8947 31.2929 39.7071C31.1054 39.5196 31 39.2652 31 39V33C31 32.7348 30.8947 32.4804 30.7071 32.2929C30.5196 32.1054 30.2652 32 30 32H26C25.7348 32 25.4805 32.1054 25.2929 32.2929C25.1054 32.4804 25 32.7348 25 33V39C25 39.2652 24.8947 39.5196 24.7071 39.7071C24.5196 39.8947 24.2652 40 24 40H18C17.7163 40.0011 17.4356 39.9414 17.1769 39.825C16.9182 39.7085 16.6874 39.5381 16.5 39.325C16.1749 38.9409 15.9976 38.4533 16 37.95V26.4375C16.0001 26.16 16.0579 25.8856 16.1699 25.6316C16.2818 25.3777 16.4453 25.1498 16.65 24.9625L26.65 15.875C27.0187 15.5377 27.5003 15.3506 28 15.3506C28.4997 15.3506 28.9813 15.5377 29.35 15.875L39.35 24.9625C39.5548 25.1498 39.7183 25.3777 39.8302 25.6316C39.9421 25.8856 39.9999 26.16 40 26.4375Z" fill="white"/>
</svg>
