<svg width="103" height="95" viewBox="0 0 103 138" fill="none" xmlns="http://www.w3.org/2000/svg">
<path d="M43 5C43 2.23858 45.2386 0 48 0H55C57.7614 0 60 2.23858 60 5V138H43V5Z" fill="#E9614D" fill-opacity="0.55"/>
<path d="M14.039 23.6394C14.0431 23.0455 14.0451 22.7485 14.072 22.4986C14.3267 20.1355 16.2098 18.2783 18.5762 18.0563C18.8264 18.0328 19.1234 18.0349 19.7173 18.039L90.7584 18.5297C92.4385 18.5413 93.2786 18.5471 93.918 18.8785C94.4805 19.17 94.9363 19.6321 95.22 20.1985C95.5425 20.8425 95.5367 21.6826 95.5251 23.3627L95.5135 25.0417C95.5019 26.7219 95.4961 27.5619 95.1647 28.2014C94.8732 28.7639 94.4111 29.2196 93.8446 29.5033C93.2007 29.8259 92.3606 29.8201 90.6805 29.8085L19.6394 29.3178C19.0455 29.3137 18.7485 29.3116 18.4986 29.2847C16.1355 29.03 14.2783 27.1469 14.0563 24.7806C14.0328 24.5303 14.0348 24.2333 14.039 23.6394V23.6394Z" fill="#E55039"/>
<path d="M4.0593 44.9999C4.07075 43.3431 5.42314 42.0093 7.07995 42.0207L81.1286 42.5322C83.89 42.5513 86.113 44.8053 86.094 47.5666L86.083 49.1523C86.0639 51.9137 83.81 54.1368 81.0486 54.1177L6.99993 53.6062C5.34311 53.5948 4.00928 52.2424 4.02072 50.5856L4.0593 44.9999Z" fill="#F8C291"/>
<path d="M11.0379 70.9999C11.0569 68.2385 13.3109 66.0155 16.0723 66.0345L95.5373 66.5834C97.1942 66.5949 98.528 67.9473 98.5166 69.6041L98.4856 74.0865C98.4741 75.7433 97.1218 77.0771 95.4649 77.0657L15.9999 76.5168C13.2385 76.4977 11.0155 74.2437 11.0345 71.4824L11.0379 70.9999Z" fill="#EE923F"/>
<path d="M3.99579 94.1101C4.00723 92.4533 5.35962 91.1194 7.01644 91.1309L86.1845 91.6777C88.9382 91.6967 91.155 93.9444 91.136 96.6981V96.6981C91.117 99.4518 88.8693 101.669 86.1156 101.65L6.94756 101.103C5.29074 101.091 3.95691 99.739 3.96835 98.0821L3.99579 94.1101Z" fill="#E76C59"/>
<path d="M35.4746 27.2383C35.6816 27.0977 35.832 27.0273 35.9258 27.0273C36.0391 27.0273 36.1562 27.0879 36.2773 27.209C36.2773 27.3535 36.2461 27.4844 36.1836 27.6016C36.125 27.7188 36.0449 27.8145 35.9434 27.8887C35.8457 27.959 35.7305 28.0176 35.5977 28.0645C35.4648 28.1113 35.332 28.1445 35.1992 28.1641C35.0547 28.1836 34.9238 28.1934 34.8066 28.1934C34.5801 28.1934 34.373 28.1406 34.1855 28.0352C33.998 27.9336 33.8379 27.793 33.7051 27.6133C33.5879 27.4531 33.4824 27.2441 33.3887 26.9863C33.2949 26.7246 33.2188 26.4512 33.1602 26.166C33.1094 25.9199 33.0684 25.6289 33.0371 25.293C33.0059 24.9531 32.9863 24.625 32.9785 24.3086C32.9668 24.0273 32.9609 23.7109 32.9609 23.3594C32.9609 23.0664 32.9629 22.8125 32.9668 22.5977C32.9707 22.3828 32.9727 22.1582 32.9727 21.9238C32.9727 21.4785 33 21.1094 33.0547 20.8164C33.0312 20.6875 33.0195 20.5625 33.0195 20.4414C33.0195 20.1211 33.1016 19.8398 33.2656 19.5977C33.4336 19.3516 33.6621 19.1621 33.9512 19.0293C34.2441 18.8965 34.5703 18.8301 34.9297 18.8301C35.0586 18.8301 35.1875 18.8555 35.3164 18.9062C35.4492 18.957 35.5566 19.0273 35.6387 19.1172C35.7246 19.2031 35.7676 19.3027 35.7676 19.416C35.7676 19.498 35.7344 19.5645 35.668 19.6152C35.6055 19.6621 35.5273 19.6855 35.4336 19.6855C35.3516 19.6855 35.2656 19.6719 35.1758 19.6445C35.0859 19.6172 35.0293 19.582 35.0059 19.5391V19.5449H34.8418V19.5156C34.541 19.5156 34.2949 19.5801 34.1035 19.709C34.0293 19.7637 33.9629 19.8379 33.9043 19.9316C33.8457 20.0254 33.7988 20.123 33.7637 20.2246C33.7363 20.3066 33.7129 20.418 33.6934 20.5586C33.6777 20.6992 33.668 20.8242 33.6641 20.9336C33.6602 21 33.6582 21.1289 33.6582 21.3203C33.6582 21.4141 33.6641 21.5527 33.6758 21.7363C33.6875 21.916 33.6934 22.0527 33.6934 22.1465C33.6934 22.2402 33.6758 22.3789 33.6406 22.5625C33.6055 22.75 33.5879 22.8906 33.5879 22.9844V23.2715C33.5879 23.6777 33.5977 24.1055 33.6172 24.5547C33.625 24.8086 33.6406 25.0352 33.6641 25.2344C33.6914 25.4336 33.7285 25.6641 33.7754 25.9258C33.8184 26.1523 33.8711 26.3496 33.9336 26.5176C34 26.6855 34.084 26.8496 34.1855 27.0098C34.373 27.3066 34.6328 27.4551 34.9648 27.4551C35.1016 27.4551 35.2715 27.3828 35.4746 27.2383ZM40.877 27.9941C40.748 27.9941 40.6543 27.9707 40.5957 27.9238C40.5371 27.877 40.5078 27.7969 40.5078 27.6836V26.1191C40.4023 26.0449 40.207 25.9805 39.9219 25.9258C39.6406 25.8672 39.3691 25.8301 39.1074 25.8145C39.0293 25.9473 38.9629 26.1504 38.9082 26.4238L38.873 26.6055C38.8105 26.9258 38.7539 27.1855 38.7031 27.3848C38.6523 27.584 38.5898 27.7441 38.5156 27.8652C38.207 27.8652 38.0312 27.7852 37.9883 27.625C38.0625 27.5195 38.1621 27.1445 38.2871 26.5C38.3926 25.9492 38.5234 25.2168 38.6797 24.3027C38.8594 23.2402 39.0234 22.3477 39.1719 21.625C39.3203 20.8984 39.4766 20.2871 39.6406 19.791C39.8203 19.2363 39.9961 18.959 40.168 18.959C40.3359 18.959 40.4648 18.9941 40.5547 19.0645C40.5547 19.3613 40.6328 20.1328 40.7891 21.3789C40.9453 22.625 41.0234 23.4453 41.0234 23.8398C41.0234 24.2148 41.0664 24.8203 41.1523 25.6562C41.2344 26.5156 41.2754 27.1602 41.2754 27.5898C41.2754 27.8594 41.1426 27.9941 40.877 27.9941ZM40.25 25.416C40.3203 25.416 40.4023 25.4043 40.4961 25.3809C40.4844 25.209 40.4434 24.7734 40.373 24.0742C40.1895 22.2227 40.0977 21.1172 40.0977 20.7578C40.0977 20.6992 40.0996 20.6641 40.1035 20.6523C40.0254 20.7305 39.916 21.0918 39.7754 21.7363C39.6348 22.3809 39.5039 23.0742 39.3828 23.8164C39.2617 24.5547 39.1953 25.043 39.1836 25.2812C39.5234 25.3711 39.8789 25.416 40.25 25.416ZM46.0215 20.6055C46.0996 20.082 46.1543 19.584 46.1855 19.1113V19.041C46.2012 18.9395 46.248 18.8574 46.3262 18.7949C46.4082 18.7324 46.5039 18.7012 46.6133 18.7012C46.6836 18.7012 46.748 18.7344 46.8066 18.8008C46.8652 18.8633 46.8945 18.9316 46.8945 19.0059C46.8945 20.0137 46.9316 21.4473 47.0059 23.3066C47.0762 25.2168 47.1113 26.6504 47.1113 27.6074C47.1113 27.7285 47.0879 27.8438 47.041 27.9531C46.9941 28.0625 46.9336 28.1504 46.8594 28.2168C46.7852 28.2832 46.7109 28.3164 46.6367 28.3164C46.5586 28.3164 46.4941 28.2734 46.4434 28.1875C46.3965 28.1055 46.373 27.9902 46.373 27.8418C46.373 27.1582 46.3652 26.3164 46.3496 25.3164C46.334 24.3164 46.3262 23.4746 46.3262 22.791V22.1816C46.2754 22.4902 46.1523 23.0293 45.957 23.7988C45.7617 24.5723 45.6387 25.1641 45.5879 25.5742V25.6504L45.5527 25.873C45.5371 25.9902 45.5195 26.0879 45.5 26.166C45.4844 26.2402 45.459 26.3223 45.4238 26.4121C45.3535 26.6035 45.2305 26.6992 45.0547 26.6992C44.7695 26.6992 44.627 26.3262 44.627 25.5801C44.627 25.166 44.584 24.7207 44.498 24.2441C44.416 23.7676 44.2812 23.1797 44.0938 22.4805C43.9062 21.8008 43.7891 21.3516 43.7422 21.1328C43.7266 21.6992 43.7188 22.1816 43.7188 22.5801C43.7188 23.127 43.7363 23.9492 43.7715 25.0469C43.8027 26.2148 43.8184 27.0371 43.8184 27.5137C43.8184 27.6895 43.7578 27.8398 43.6367 27.9648C43.4414 27.9648 43.3047 27.9023 43.2266 27.7773C43.1484 27.6523 43.1094 27.4688 43.1094 27.2266C43.1094 27.0547 43.1191 26.7285 43.1387 26.248C43.1582 25.7715 43.168 25.4492 43.168 25.2812C43.168 24.7617 43.1621 23.9863 43.1504 22.9551C43.1348 22.0371 43.127 21.2637 43.127 20.6348C43.127 20.1152 43.1328 19.5977 43.1445 19.082L43.4785 18.8945C43.5957 18.8984 43.7285 19.0762 43.877 19.4277C44.0918 19.959 44.3516 20.9531 44.6562 22.4102C44.7695 22.9492 44.873 23.4727 44.9668 23.9805C45.0684 24.5312 45.127 24.8398 45.1426 24.9062C45.1738 24.7461 45.2324 24.4805 45.3184 24.1094C45.3418 24 45.3633 23.8965 45.3828 23.7988C45.4062 23.7012 45.4277 23.6094 45.4473 23.5234C45.6074 22.8008 45.7227 22.2637 45.793 21.9121C45.8633 21.5605 45.9395 21.125 46.0215 20.6055ZM51.7168 27.9941C51.5879 27.9941 51.4941 27.9707 51.4355 27.9238C51.377 27.877 51.3477 27.7969 51.3477 27.6836V26.1191C51.2422 26.0449 51.0469 25.9805 50.7617 25.9258C50.4805 25.8672 50.209 25.8301 49.9473 25.8145C49.8691 25.9473 49.8027 26.1504 49.748 26.4238L49.7129 26.6055C49.6504 26.9258 49.5938 27.1855 49.543 27.3848C49.4922 27.584 49.4297 27.7441 49.3555 27.8652C49.0469 27.8652 48.8711 27.7852 48.8281 27.625C48.9023 27.5195 49.002 27.1445 49.127 26.5C49.2324 25.9492 49.3633 25.2168 49.5195 24.3027C49.6992 23.2402 49.8633 22.3477 50.0117 21.625C50.1602 20.8984 50.3164 20.2871 50.4805 19.791C50.6602 19.2363 50.8359 18.959 51.0078 18.959C51.1758 18.959 51.3047 18.9941 51.3945 19.0645C51.3945 19.3613 51.4727 20.1328 51.6289 21.3789C51.7852 22.625 51.8633 23.4453 51.8633 23.8398C51.8633 24.2148 51.9062 24.8203 51.9922 25.6562C52.0742 26.5156 52.1152 27.1602 52.1152 27.5898C52.1152 27.8594 51.9824 27.9941 51.7168 27.9941ZM51.0898 25.416C51.1602 25.416 51.2422 25.4043 51.3359 25.3809C51.3242 25.209 51.2832 24.7734 51.2129 24.0742C51.0293 22.2227 50.9375 21.1172 50.9375 20.7578C50.9375 20.6992 50.9395 20.6641 50.9434 20.6523C50.8652 20.7305 50.7559 21.0918 50.6152 21.7363C50.4746 22.3809 50.3438 23.0742 50.2227 23.8164C50.1016 24.5547 50.0352 25.043 50.0234 25.2812C50.3633 25.3711 50.7188 25.416 51.0898 25.416ZM55.0742 24.4609C54.8633 23.7891 54.7168 23.291 54.6348 22.9668V27.6953C54.6348 27.8242 54.6113 27.9199 54.5645 27.9824C54.5176 28.0449 54.4297 28.0762 54.3008 28.0762C54.2109 28.0762 54.1367 28.0449 54.0781 27.9824C54.0234 27.916 53.9961 27.8359 53.9961 27.7422V27.6484C53.9961 26.6914 54.0039 25.5176 54.0195 24.127C54.0352 22.7363 54.043 21.5645 54.043 20.6113V19.1348C54.043 19.0371 54.0625 18.9707 54.1016 18.9355C54.1445 18.8965 54.2305 18.877 54.3594 18.877C54.5547 18.877 54.7363 18.916 54.9043 18.9941C55.0762 19.0723 55.2227 19.1797 55.3438 19.3164C55.457 19.4492 55.5547 19.6035 55.6367 19.7793C55.7188 19.9512 55.7793 20.1309 55.8184 20.3184C55.8535 20.498 55.8711 20.6816 55.8711 20.8691C55.8711 21.0449 55.8438 21.2695 55.7891 21.543C55.7617 21.6836 55.6914 21.9062 55.5781 22.2109L55.4375 22.5566L55.3145 22.8672C55.3184 23.1562 55.3652 23.5215 55.4551 23.9629C55.5488 24.4043 55.6543 24.8105 55.7715 25.1816C55.877 25.5254 56.0195 25.9629 56.1992 26.4941L56.5508 27.5547V27.584C56.5508 27.6504 56.5469 27.709 56.5391 27.7598C56.5352 27.8105 56.5273 27.8652 56.5156 27.9238C56.4883 28.0566 56.4023 28.123 56.2578 28.123C56.1094 28.123 55.9648 28.0156 55.8242 27.8008V27.7598C55.8008 27.3418 55.7266 26.873 55.6016 26.3535C55.4805 25.8301 55.3047 25.1992 55.0742 24.4609ZM54.6055 22.4277C54.7461 22.2949 54.8809 22.1406 55.0098 21.9648L55.1973 20.9277C55.2051 20.8574 55.209 20.8047 55.209 20.7695C55.209 20.5312 55.1621 20.2617 55.0684 19.9609C55.0215 19.8164 54.9609 19.6953 54.8867 19.5977C54.8164 19.5 54.7402 19.4434 54.6582 19.4277C54.6582 19.623 54.6484 20.0234 54.6289 20.6289C54.6055 21.1719 54.5938 21.5879 54.5938 21.877C54.5938 22.0801 54.5977 22.2637 54.6055 22.4277ZM61.6074 28.2402C61.4043 28.2402 61.2715 28.1562 61.209 27.9883V27.9766C61.1738 27.9883 61.0859 28.0332 60.9453 28.1113C60.8125 28.1855 60.6992 28.2383 60.6055 28.2695C60.5117 28.3008 60.418 28.3164 60.3242 28.3164C60.1094 28.3164 59.9082 28.2812 59.7207 28.2109C59.5371 28.1406 59.375 28.043 59.2344 27.918C59.1094 27.8125 58.9922 27.6719 58.8828 27.4961C58.7734 27.3164 58.6797 27.127 58.6016 26.9277C58.5352 26.7637 58.4766 26.5645 58.4258 26.3301C58.3789 26.0918 58.3418 25.8633 58.3145 25.6445C58.291 25.4609 58.2695 25.2441 58.25 24.9941C58.2344 24.7402 58.2266 24.5332 58.2266 24.373C58.2227 24.2715 58.2207 24.0918 58.2207 23.834V23.4238C58.2168 23.291 58.2148 23.1328 58.2148 22.9492C58.2148 22.5664 58.2285 22.1543 58.2559 21.7129C58.2832 21.2949 58.3477 20.877 58.4492 20.459C58.5039 20.2402 58.5645 20.0488 58.6309 19.8848C58.7012 19.7168 58.7891 19.5566 58.8945 19.4043C59 19.248 59.1172 19.1191 59.2461 19.0176C59.375 18.9121 59.5273 18.8281 59.7031 18.7656C59.875 18.707 60.0645 18.6777 60.2715 18.6777C60.6035 18.6777 60.7695 18.791 60.7695 19.0176C60.7695 19.0996 60.7383 19.168 60.6758 19.2227C60.6133 19.2734 60.5391 19.2988 60.4531 19.2988C60.4258 19.2988 60.3691 19.2891 60.2832 19.2695C60.1973 19.25 60.1387 19.2402 60.1074 19.2402C59.959 19.2402 59.8242 19.2871 59.7031 19.3809C59.582 19.4707 59.4805 19.6035 59.3984 19.7793C59.3086 19.9746 59.2324 20.1719 59.1699 20.3711C59.1074 20.5703 59.0605 20.7949 59.0293 21.0449C58.9824 21.3652 58.9473 21.627 58.9238 21.8301C58.9043 22.0332 58.8906 22.2578 58.8828 22.5039C58.8672 22.8672 58.8594 23.2461 58.8594 23.6406V23.9688C58.8555 24.0781 58.8535 24.2168 58.8535 24.3848C58.8535 24.627 58.8555 24.834 58.8594 25.0059C58.8672 25.1777 58.8828 25.373 58.9062 25.5918C58.9297 25.834 58.9609 26.0488 59 26.2363C59.043 26.4199 59.0996 26.6055 59.1699 26.793C59.2402 26.9883 59.3262 27.1484 59.4277 27.2734C59.5293 27.3984 59.6543 27.5 59.8027 27.5781C59.9512 27.6602 60.1172 27.7012 60.3008 27.7012C60.6562 27.7012 60.9512 27.5332 61.1855 27.1973C61.1816 26.9316 61.1621 26.6621 61.127 26.3887C61.0957 26.1152 61.0508 25.9277 60.9922 25.8262L60.8047 25.8496C60.6953 25.8652 60.6016 25.873 60.5234 25.873C60.25 25.873 60.1133 25.7598 60.1133 25.5332C60.1133 25.459 60.1543 25.3945 60.2363 25.3398C60.3184 25.2812 60.4238 25.2383 60.5527 25.2109C60.791 25.1602 60.9902 25.1348 61.1504 25.1348C61.3105 25.1348 61.4355 25.1953 61.5254 25.3164C61.6152 25.4375 61.6602 25.5898 61.6602 25.7734C61.6602 26.0117 61.7012 26.3691 61.7832 26.8457C61.8613 27.334 61.9004 27.6895 61.9004 27.9121C61.9004 28.0059 61.873 28.084 61.8184 28.1465C61.7637 28.209 61.6934 28.2402 61.6074 28.2402ZM63.4414 20.4766C63.4453 20.1953 63.4473 19.9004 63.4473 19.5918C63.3887 19.5254 63.3594 19.4434 63.3594 19.3457C63.3594 19.248 63.3926 19.1621 63.459 19.0879C63.5293 19.0137 63.6113 18.9766 63.7051 18.9766C63.9941 18.9766 64.1387 19.2617 64.1387 19.832C64.1387 20.3359 64.1582 21.0293 64.1973 21.9121C64.2324 22.8418 64.25 23.5391 64.25 24.0039C64.293 24.1016 64.332 24.3066 64.3672 24.6191C64.4023 24.9316 64.4199 25.1914 64.4199 25.3984C64.4199 25.5742 64.4492 25.791 64.5078 26.0488C64.5664 26.3066 64.6445 26.5684 64.7422 26.834C64.8477 27.1113 64.9844 27.3418 65.1523 27.5254C65.3242 27.7051 65.502 27.7949 65.6855 27.7949C65.7988 27.7949 65.8926 27.7598 65.9668 27.6895C66.041 27.6152 66.0918 27.5098 66.1191 27.373C66.1465 27.2402 66.1641 27.1309 66.1719 27.0449C66.1797 26.9551 66.1836 26.8457 66.1836 26.7168V24.373C66.1836 24.0996 66.1582 23.7227 66.1074 23.2422C66.0566 22.7617 66.0312 22.3848 66.0312 22.1113V22.0293L66.0195 21.6777L66.0078 21.332C66.0078 21.0742 65.9941 20.7324 65.9668 20.3066C65.9355 19.8184 65.9199 19.4746 65.9199 19.2754C65.9199 19.1816 65.9668 19.1035 66.0605 19.041C66.1543 18.9785 66.2578 18.9473 66.3711 18.9473L66.6641 19.2285V19.4277C66.6641 19.5176 66.6504 19.6367 66.623 19.7852C66.5918 19.9609 66.5762 20.0859 66.5762 20.1602C66.5762 20.8633 66.6133 21.8691 66.6875 23.1777C66.7578 24.5176 66.793 25.5625 66.793 26.3125C66.793 26.5312 66.7852 26.7188 66.7695 26.875C66.7539 27.0312 66.7246 27.1934 66.6816 27.3613C66.6348 27.5449 66.5684 27.6953 66.4824 27.8125C66.4004 27.9258 66.2871 28.0215 66.1426 28.0996C65.9863 28.1777 65.8086 28.2168 65.6094 28.2168C65.3672 28.2168 65.1465 28.1621 64.9473 28.0527C64.748 27.9434 64.5762 27.7832 64.4316 27.5723C64.2793 27.3535 64.1484 27.1133 64.0391 26.8516C63.9297 26.5898 63.8418 26.2891 63.7754 25.9492C63.7012 25.5742 63.6406 25.2188 63.5938 24.8828C63.5508 24.543 63.5176 24.1719 63.4941 23.7695C63.4551 23.0664 63.4355 22.2988 63.4355 21.4668C63.4355 21.0879 63.4375 20.7578 63.4414 20.4766ZM70.3438 27.3496C70.8008 27.3496 71.0293 27.4551 71.0293 27.666V27.707C70.9785 27.8086 70.8887 27.8906 70.7598 27.9531C70.6348 28.0117 70.5137 28.0469 70.3965 28.0586C70.2637 28.0664 70.1328 28.0703 70.0039 28.0703H69.6289C69.5312 28.0703 69.4551 28.0664 69.4004 28.0586C69.3496 28.0547 69.293 28.041 69.2305 28.0176C69.0977 27.9707 69.0312 27.8574 69.0312 27.6777V20.7051C69.0312 20.5801 69.0039 20.377 68.9492 20.0957C68.8945 19.8145 68.8672 19.6094 68.8672 19.4805V19.4395C69 19.2246 69.0996 19.084 69.166 19.0176C69.2637 19.0176 69.4121 19 69.6113 18.9648C69.8105 18.9297 69.959 18.9121 70.0566 18.9121C70.1855 18.9121 70.3086 18.9512 70.4258 19.0293C70.5469 19.1035 70.6074 19.1953 70.6074 19.3047C70.6074 19.543 70.4258 19.6621 70.0625 19.6621C70 19.6621 69.9434 19.6602 69.8926 19.6562C69.8418 19.6523 69.7832 19.6504 69.7168 19.6504C69.6504 19.6504 69.6074 19.6523 69.5879 19.6562C69.5879 19.8477 69.6035 20.1777 69.6348 20.6465C69.666 21.1152 69.6816 21.4453 69.6816 21.6367C69.6816 21.7617 69.6719 21.9941 69.6523 22.334C69.6328 22.6777 69.623 22.9023 69.623 23.0078C69.6191 23.0078 69.6777 22.9941 69.7988 22.9668C69.9512 22.9238 70.0801 22.9023 70.1855 22.9023C70.2793 22.9023 70.3613 22.9355 70.4316 23.002C70.502 23.0684 70.5371 23.1465 70.5371 23.2363C70.5371 23.3379 70.5059 23.4258 70.4434 23.5C70.3848 23.5703 70.3105 23.6055 70.2207 23.6055C70.1738 23.6055 70.1289 23.6035 70.0859 23.5996C70.0391 23.5957 69.9844 23.5938 69.9219 23.5938C69.8047 23.5938 69.7227 23.623 69.6758 23.6816V27.3848L70.3438 27.3496Z" fill="black"/>
<path d="M44.3281 49.1797C44.5508 49.6758 44.6621 50.2188 44.6621 50.8086C44.6621 51.0977 44.5684 51.4434 44.3809 51.8457C44.2637 52.0879 44.1309 52.2969 43.9824 52.4727C43.834 52.6484 43.6484 52.7949 43.4258 52.9121C43.1836 53.0371 42.9219 53.0996 42.6406 53.0996H42.5938C42.2188 53.0996 42.0312 53 42.0312 52.8008C42.0312 52.5469 42.041 52.0547 42.0605 51.3242C42.0801 50.5938 42.0898 50.1016 42.0898 49.8477C42.0898 49.2344 42.0762 48.4219 42.0488 47.4102C42.0215 46.3984 42.0078 45.5859 42.0078 44.9727V44.9023C42.0078 44.7852 42.0117 44.6855 42.0195 44.6035C42.0273 44.5215 42.0449 44.4297 42.0723 44.3281C42.0957 44.2227 42.1406 44.1406 42.207 44.082C42.2734 44.0234 42.3574 43.9941 42.459 43.9941C42.834 43.9941 43.1582 44.0781 43.4316 44.2461C43.7051 44.4102 43.9141 44.6406 44.0586 44.9375C44.2031 45.2344 44.2754 45.5762 44.2754 45.9629C44.2754 46.2012 44.2305 46.4531 44.1406 46.7188C44.0547 46.9805 43.9375 47.2227 43.7891 47.4453C43.6406 47.668 43.4785 47.8418 43.3027 47.9668C43.7676 48.2793 44.1094 48.6836 44.3281 49.1797ZM43.2441 44.832C43.1113 44.7266 42.9727 44.6738 42.8281 44.6738C42.7148 44.6738 42.6582 44.7988 42.6582 45.0488C42.6582 45.4395 42.666 45.9082 42.6816 46.4551C42.6973 47.002 42.7051 47.4492 42.7051 47.7969C42.8066 47.7734 42.9023 47.7168 42.9922 47.627C43.0859 47.5371 43.168 47.4199 43.2383 47.2754C43.3555 47.0449 43.4668 46.7715 43.5723 46.4551C43.623 46.2988 43.6621 46.1895 43.6895 46.127V45.6992C43.6895 45.543 43.6484 45.3848 43.5664 45.2246C43.4844 45.0645 43.377 44.9336 43.2441 44.832ZM43.8828 51.6113C43.9883 51.377 44.041 51.1191 44.041 50.8379C44.041 50.4707 44.0098 50.1348 43.9473 49.8301C43.8887 49.5215 43.8125 49.2871 43.7188 49.127C43.6289 48.9785 43.5391 48.8516 43.4492 48.7461C43.3594 48.6406 43.2832 48.5703 43.2207 48.5352L43.127 48.4941H42.6992C42.7383 49.5488 42.7578 50.875 42.7578 52.4727C43.0195 52.4336 43.2461 52.3379 43.4375 52.1855C43.6328 52.0332 43.7812 51.8418 43.8828 51.6113ZM47.5508 49.4609C47.3398 48.7891 47.1934 48.291 47.1113 47.9668V52.6953C47.1113 52.8242 47.0879 52.9199 47.041 52.9824C46.9941 53.0449 46.9062 53.0762 46.7773 53.0762C46.6875 53.0762 46.6133 53.0449 46.5547 52.9824C46.5 52.916 46.4727 52.8359 46.4727 52.7422V52.6484C46.4727 51.6914 46.4805 50.5176 46.4961 49.127C46.5117 47.7363 46.5195 46.5645 46.5195 45.6113V44.1348C46.5195 44.0371 46.5391 43.9707 46.5781 43.9355C46.6211 43.8965 46.707 43.877 46.8359 43.877C47.0312 43.877 47.2129 43.916 47.3809 43.9941C47.5527 44.0723 47.6992 44.1797 47.8203 44.3164C47.9336 44.4492 48.0312 44.6035 48.1133 44.7793C48.1953 44.9512 48.2559 45.1309 48.2949 45.3184C48.3301 45.498 48.3477 45.6816 48.3477 45.8691C48.3477 46.0449 48.3203 46.2695 48.2656 46.543C48.2383 46.6836 48.168 46.9062 48.0547 47.2109L47.9141 47.5566L47.791 47.8672C47.7949 48.1562 47.8418 48.5215 47.9316 48.9629C48.0254 49.4043 48.1309 49.8105 48.248 50.1816C48.3535 50.5254 48.4961 50.9629 48.6758 51.4941L49.0273 52.5547V52.584C49.0273 52.6504 49.0234 52.709 49.0156 52.7598C49.0117 52.8105 49.0039 52.8652 48.9922 52.9238C48.9648 53.0566 48.8789 53.123 48.7344 53.123C48.5859 53.123 48.4414 53.0156 48.3008 52.8008V52.7598C48.2773 52.3418 48.2031 51.873 48.0781 51.3535C47.957 50.8301 47.7812 50.1992 47.5508 49.4609ZM47.082 47.4277C47.2227 47.2949 47.3574 47.1406 47.4863 46.9648L47.6738 45.9277C47.6816 45.8574 47.6855 45.8047 47.6855 45.7695C47.6855 45.5312 47.6387 45.2617 47.5449 44.9609C47.498 44.8164 47.4375 44.6953 47.3633 44.5977C47.293 44.5 47.2168 44.4434 47.1348 44.4277C47.1348 44.623 47.125 45.0234 47.1055 45.6289C47.082 46.1719 47.0703 46.5879 47.0703 46.877C47.0703 47.0801 47.0742 47.2637 47.082 47.4277ZM52.2148 52.3496C52.6719 52.3496 52.9004 52.4551 52.9004 52.666V52.707C52.8496 52.8086 52.7598 52.8906 52.6309 52.9531C52.5059 53.0117 52.3848 53.0469 52.2676 53.0586C52.1348 53.0664 52.0039 53.0703 51.875 53.0703H51.5C51.4023 53.0703 51.3262 53.0664 51.2715 53.0586C51.2207 53.0547 51.1641 53.041 51.1016 53.0176C50.9688 52.9707 50.9023 52.8574 50.9023 52.6777V45.7051C50.9023 45.5801 50.875 45.377 50.8203 45.0957C50.7656 44.8145 50.7383 44.6094 50.7383 44.4805V44.4395C50.8711 44.2246 50.9707 44.084 51.0371 44.0176C51.1348 44.0176 51.2832 44 51.4824 43.9648C51.6816 43.9297 51.8301 43.9121 51.9277 43.9121C52.0566 43.9121 52.1797 43.9512 52.2969 44.0293C52.418 44.1035 52.4785 44.1953 52.4785 44.3047C52.4785 44.543 52.2969 44.6621 51.9336 44.6621C51.8711 44.6621 51.8145 44.6602 51.7637 44.6562C51.7129 44.6523 51.6543 44.6504 51.5879 44.6504C51.5215 44.6504 51.4785 44.6523 51.459 44.6562C51.459 44.8477 51.4746 45.1777 51.5059 45.6465C51.5371 46.1152 51.5527 46.4453 51.5527 46.6367C51.5527 46.7617 51.543 46.9941 51.5234 47.334C51.5039 47.6777 51.4941 47.9023 51.4941 48.0078C51.4902 48.0078 51.5488 47.9941 51.6699 47.9668C51.8223 47.9238 51.9512 47.9023 52.0566 47.9023C52.1504 47.9023 52.2324 47.9355 52.3027 48.002C52.373 48.0684 52.4082 48.1465 52.4082 48.2363C52.4082 48.3379 52.377 48.4258 52.3145 48.5C52.2559 48.5703 52.1816 48.6055 52.0918 48.6055C52.0449 48.6055 52 48.6035 51.957 48.5996C51.9102 48.5957 51.8555 48.5938 51.793 48.5938C51.6758 48.5938 51.5938 48.623 51.5469 48.6816V52.3848L52.2148 52.3496ZM56.4746 46.8008L56.4629 47.5801C56.4629 47.8926 56.4805 48.3516 56.5156 48.957C56.5508 49.5586 56.5684 50.0195 56.5684 50.3398C56.5684 50.582 56.5859 50.9414 56.6211 51.418C56.6523 51.9258 56.668 52.2852 56.668 52.4961C56.668 52.8867 56.5527 53.082 56.3223 53.082C56.1973 53.082 56.1016 53.0234 56.0352 52.9062C55.9688 52.7852 55.9355 52.6426 55.9355 52.4785C55.9355 52.2949 55.9512 51.9746 55.9824 51.5176C56.0137 51.0605 56.0293 50.7422 56.0293 50.5625C56.0293 50.1797 56.002 49.5566 55.9473 48.6934C55.8926 47.8301 55.8652 47.207 55.8652 46.8242L55.877 46.3672C55.8809 46.207 55.8828 46.0098 55.8828 45.7754C55.8828 45.1934 55.8457 44.8203 55.7715 44.6562L55.4609 44.6914C55.2969 44.7109 55.1836 44.7207 55.1211 44.7207C55.0156 44.7207 54.9238 44.6895 54.8457 44.627C54.7676 44.5645 54.7285 44.4863 54.7285 44.3926C54.7285 44.2988 54.8242 44.2168 55.0156 44.1465C55.3047 44.0449 55.7773 43.9746 56.4336 43.9355C56.6406 43.9238 56.8066 43.918 56.9316 43.918C57.0332 43.918 57.123 43.9512 57.2012 44.0176C57.2793 44.084 57.3184 44.1641 57.3184 44.2578C57.3184 44.3516 57.2832 44.4277 57.2129 44.4863C57.1465 44.5449 57.0605 44.5742 56.9551 44.5742L56.7383 44.5625L56.5273 44.5508C56.4648 44.5508 56.4238 44.5527 56.4043 44.5566C56.459 45.0371 56.4863 45.5293 56.4863 46.0332L56.4746 46.8008ZM61.6543 52.9941C61.5254 52.9941 61.4316 52.9707 61.373 52.9238C61.3145 52.877 61.2852 52.7969 61.2852 52.6836V51.1191C61.1797 51.0449 60.9844 50.9805 60.6992 50.9258C60.418 50.8672 60.1465 50.8301 59.8848 50.8145C59.8066 50.9473 59.7402 51.1504 59.6855 51.4238L59.6504 51.6055C59.5879 51.9258 59.5312 52.1855 59.4805 52.3848C59.4297 52.584 59.3672 52.7441 59.293 52.8652C58.9844 52.8652 58.8086 52.7852 58.7656 52.625C58.8398 52.5195 58.9395 52.1445 59.0645 51.5C59.1699 50.9492 59.3008 50.2168 59.457 49.3027C59.6367 48.2402 59.8008 47.3477 59.9492 46.625C60.0977 45.8984 60.2539 45.2871 60.418 44.791C60.5977 44.2363 60.7734 43.959 60.9453 43.959C61.1133 43.959 61.2422 43.9941 61.332 44.0645C61.332 44.3613 61.4102 45.1328 61.5664 46.3789C61.7227 47.625 61.8008 48.4453 61.8008 48.8398C61.8008 49.2148 61.8438 49.8203 61.9297 50.6562C62.0117 51.5156 62.0527 52.1602 62.0527 52.5898C62.0527 52.8594 61.9199 52.9941 61.6543 52.9941ZM61.0273 50.416C61.0977 50.416 61.1797 50.4043 61.2734 50.3809C61.2617 50.209 61.2207 49.7734 61.1504 49.0742C60.9668 47.2227 60.875 46.1172 60.875 45.7578C60.875 45.6992 60.877 45.6641 60.8809 45.6523C60.8027 45.7305 60.6934 46.0918 60.5527 46.7363C60.4121 47.3809 60.2812 48.0742 60.1602 48.8164C60.0391 49.5547 59.9727 50.043 59.9609 50.2812C60.3008 50.3711 60.6562 50.416 61.0273 50.416ZM67.2324 53.2402C67.0293 53.2402 66.8965 53.1562 66.834 52.9883V52.9766C66.7988 52.9883 66.7109 53.0332 66.5703 53.1113C66.4375 53.1855 66.3242 53.2383 66.2305 53.2695C66.1367 53.3008 66.043 53.3164 65.9492 53.3164C65.7344 53.3164 65.5332 53.2812 65.3457 53.2109C65.1621 53.1406 65 53.043 64.8594 52.918C64.7344 52.8125 64.6172 52.6719 64.5078 52.4961C64.3984 52.3164 64.3047 52.127 64.2266 51.9277C64.1602 51.7637 64.1016 51.5645 64.0508 51.3301C64.0039 51.0918 63.9668 50.8633 63.9395 50.6445C63.916 50.4609 63.8945 50.2441 63.875 49.9941C63.8594 49.7402 63.8516 49.5332 63.8516 49.373C63.8477 49.2715 63.8457 49.0918 63.8457 48.834V48.4238C63.8418 48.291 63.8398 48.1328 63.8398 47.9492C63.8398 47.5664 63.8535 47.1543 63.8809 46.7129C63.9082 46.2949 63.9727 45.877 64.0742 45.459C64.1289 45.2402 64.1895 45.0488 64.2559 44.8848C64.3262 44.7168 64.4141 44.5566 64.5195 44.4043C64.625 44.248 64.7422 44.1191 64.8711 44.0176C65 43.9121 65.1523 43.8281 65.3281 43.7656C65.5 43.707 65.6895 43.6777 65.8965 43.6777C66.2285 43.6777 66.3945 43.791 66.3945 44.0176C66.3945 44.0996 66.3633 44.168 66.3008 44.2227C66.2383 44.2734 66.1641 44.2988 66.0781 44.2988C66.0508 44.2988 65.9941 44.2891 65.9082 44.2695C65.8223 44.25 65.7637 44.2402 65.7324 44.2402C65.584 44.2402 65.4492 44.2871 65.3281 44.3809C65.207 44.4707 65.1055 44.6035 65.0234 44.7793C64.9336 44.9746 64.8574 45.1719 64.7949 45.3711C64.7324 45.5703 64.6855 45.7949 64.6543 46.0449C64.6074 46.3652 64.5723 46.627 64.5488 46.8301C64.5293 47.0332 64.5156 47.2578 64.5078 47.5039C64.4922 47.8672 64.4844 48.2461 64.4844 48.6406V48.9688C64.4805 49.0781 64.4785 49.2168 64.4785 49.3848C64.4785 49.627 64.4805 49.834 64.4844 50.0059C64.4922 50.1777 64.5078 50.373 64.5312 50.5918C64.5547 50.834 64.5859 51.0488 64.625 51.2363C64.668 51.4199 64.7246 51.6055 64.7949 51.793C64.8652 51.9883 64.9512 52.1484 65.0527 52.2734C65.1543 52.3984 65.2793 52.5 65.4277 52.5781C65.5762 52.6602 65.7422 52.7012 65.9258 52.7012C66.2812 52.7012 66.5762 52.5332 66.8105 52.1973C66.8066 51.9316 66.7871 51.6621 66.752 51.3887C66.7207 51.1152 66.6758 50.9277 66.6172 50.8262L66.4297 50.8496C66.3203 50.8652 66.2266 50.873 66.1484 50.873C65.875 50.873 65.7383 50.7598 65.7383 50.5332C65.7383 50.459 65.7793 50.3945 65.8613 50.3398C65.9434 50.2812 66.0488 50.2383 66.1777 50.2109C66.416 50.1602 66.6152 50.1348 66.7754 50.1348C66.9355 50.1348 67.0605 50.1953 67.1504 50.3164C67.2402 50.4375 67.2852 50.5898 67.2852 50.7734C67.2852 51.0117 67.3262 51.3691 67.4082 51.8457C67.4863 52.334 67.5254 52.6895 67.5254 52.9121C67.5254 53.0059 67.498 53.084 67.4434 53.1465C67.3887 53.209 67.3184 53.2402 67.2324 53.2402ZM71.6973 50.791L71.8848 51.623L71.8965 51.6816C71.8965 51.1152 71.9043 50.418 71.9199 49.5898C71.9355 48.7617 71.9434 48.0645 71.9434 47.498V43.9473C71.9902 43.748 72.1211 43.6484 72.3359 43.6484C72.5508 43.6484 72.6582 43.8047 72.6582 44.1172V44.1875C72.6113 44.2852 72.5879 44.4023 72.5879 44.5391C72.5879 45.0234 72.5762 45.7617 72.5527 46.7539C72.5254 47.6797 72.5117 48.4199 72.5117 48.9746V52.6426C72.5117 52.7676 72.4766 52.8867 72.4062 53C72.3398 53.1172 72.2598 53.1758 72.166 53.1758C71.998 53.1758 71.6699 52.3516 71.1816 50.7031C70.6699 48.9688 70.1875 47.1992 69.7344 45.3945V49.332C69.7344 49.7148 69.7637 50.2852 69.8223 51.043C69.877 51.8281 69.9043 52.3984 69.9043 52.7539C69.9043 52.8242 69.8594 52.8848 69.7695 52.9355C69.6836 52.9863 69.5879 53.0117 69.4824 53.0117C69.3066 53.0117 69.2188 52.9492 69.2188 52.8242C69.2188 52.793 69.2285 52.6738 69.248 52.4668C69.2676 52.2598 69.2773 52.0918 69.2773 51.9629C69.2773 51.5176 69.252 50.8457 69.2012 49.9473C69.1504 49.0488 69.125 48.4805 69.125 48.2422V46.7129C69.125 46.4316 69.1387 46.0645 69.166 45.6113C69.1934 45.1582 69.207 44.791 69.207 44.5098V44.4336C69.207 44.0352 69.2949 43.8359 69.4707 43.8359C69.5801 43.8359 69.7148 44.0098 69.875 44.3574C70.1406 44.9355 70.4746 45.9668 70.877 47.4512C71.1035 48.2988 71.377 49.4121 71.6973 50.791ZM76.1797 52.3496C76.6367 52.3496 76.8652 52.4551 76.8652 52.666V52.707C76.8145 52.8086 76.7246 52.8906 76.5957 52.9531C76.4707 53.0117 76.3496 53.0469 76.2324 53.0586C76.0996 53.0664 75.9688 53.0703 75.8398 53.0703H75.4648C75.3672 53.0703 75.291 53.0664 75.2363 53.0586C75.1855 53.0547 75.1289 53.041 75.0664 53.0176C74.9336 52.9707 74.8672 52.8574 74.8672 52.6777V45.7051C74.8672 45.5801 74.8398 45.377 74.7852 45.0957C74.7305 44.8145 74.7031 44.6094 74.7031 44.4805V44.4395C74.8359 44.2246 74.9355 44.084 75.002 44.0176C75.0996 44.0176 75.248 44 75.4473 43.9648C75.6465 43.9297 75.7949 43.9121 75.8926 43.9121C76.0215 43.9121 76.1445 43.9512 76.2617 44.0293C76.3828 44.1035 76.4434 44.1953 76.4434 44.3047C76.4434 44.543 76.2617 44.6621 75.8984 44.6621C75.8359 44.6621 75.7793 44.6602 75.7285 44.6562C75.6777 44.6523 75.6191 44.6504 75.5527 44.6504C75.4863 44.6504 75.4434 44.6523 75.4238 44.6562C75.4238 44.8477 75.4395 45.1777 75.4707 45.6465C75.502 46.1152 75.5176 46.4453 75.5176 46.6367C75.5176 46.7617 75.5078 46.9941 75.4883 47.334C75.4688 47.6777 75.459 47.9023 75.459 48.0078C75.4551 48.0078 75.5137 47.9941 75.6348 47.9668C75.7871 47.9238 75.916 47.9023 76.0215 47.9023C76.1152 47.9023 76.1973 47.9355 76.2676 48.002C76.3379 48.0684 76.373 48.1465 76.373 48.2363C76.373 48.3379 76.3418 48.4258 76.2793 48.5C76.2207 48.5703 76.1465 48.6055 76.0566 48.6055C76.0098 48.6055 75.9648 48.6035 75.9219 48.5996C75.875 48.5957 75.8203 48.5938 75.7578 48.5938C75.6406 48.5938 75.5586 48.623 75.5117 48.6816V52.3848L76.1797 52.3496Z" fill="black"/>
<path d="M39.1953 73.6504C39.2148 72.5684 39.2246 71.8105 39.2246 71.377C39.2246 69.502 39.1211 68.0742 38.9141 67.0938C39.0352 66.9141 39.1895 66.8242 39.377 66.8242C39.666 66.8242 39.9336 66.8906 40.1797 67.0234C40.4258 67.1523 40.627 67.3281 40.7832 67.5508C40.9355 67.7734 41.0527 68.0195 41.1348 68.2891C41.2168 68.5586 41.2578 68.834 41.2578 69.1152C41.2578 69.709 41.1289 70.2441 40.8711 70.7207C40.6133 71.1973 40.2422 71.5664 39.7578 71.8281C39.7578 72.1758 39.7734 72.791 39.8047 73.6738C39.8359 74.5605 39.8516 75.1914 39.8516 75.5664C39.8516 75.7188 39.8184 75.8398 39.752 75.9297C39.6855 76.0195 39.5859 76.0645 39.4531 76.0645C39.3633 76.0645 39.293 76.0254 39.2422 75.9473C39.1914 75.8652 39.166 75.7695 39.166 75.6602C39.166 75.4062 39.1758 74.7363 39.1953 73.6504ZM40.4199 70.3223C40.5684 69.9941 40.6426 69.625 40.6426 69.2148V69.209C40.6426 68.9941 40.6211 68.7617 40.5781 68.5117C40.5625 68.4141 40.5215 68.3184 40.4551 68.2246C40.3926 68.127 40.3574 68.0723 40.3496 68.0605C40.2949 67.9902 40.1465 67.8633 39.9043 67.6797L39.5879 67.4512C39.5957 67.873 39.6191 68.5059 39.6582 69.3496C39.7012 70.1934 39.7246 70.8262 39.7285 71.248C40.0449 70.9551 40.2754 70.6465 40.4199 70.3223ZM45.8223 75.9941C45.6934 75.9941 45.5996 75.9707 45.541 75.9238C45.4824 75.877 45.4531 75.7969 45.4531 75.6836V74.1191C45.3477 74.0449 45.1523 73.9805 44.8672 73.9258C44.5859 73.8672 44.3145 73.8301 44.0527 73.8145C43.9746 73.9473 43.9082 74.1504 43.8535 74.4238L43.8184 74.6055C43.7559 74.9258 43.6992 75.1855 43.6484 75.3848C43.5977 75.584 43.5352 75.7441 43.4609 75.8652C43.1523 75.8652 42.9766 75.7852 42.9336 75.625C43.0078 75.5195 43.1074 75.1445 43.2324 74.5C43.3379 73.9492 43.4688 73.2168 43.625 72.3027C43.8047 71.2402 43.9688 70.3477 44.1172 69.625C44.2656 68.8984 44.4219 68.2871 44.5859 67.791C44.7656 67.2363 44.9414 66.959 45.1133 66.959C45.2812 66.959 45.4102 66.9941 45.5 67.0645C45.5 67.3613 45.5781 68.1328 45.7344 69.3789C45.8906 70.625 45.9688 71.4453 45.9688 71.8398C45.9688 72.2148 46.0117 72.8203 46.0977 73.6562C46.1797 74.5156 46.2207 75.1602 46.2207 75.5898C46.2207 75.8594 46.0879 75.9941 45.8223 75.9941ZM45.1953 73.416C45.2656 73.416 45.3477 73.4043 45.4414 73.3809C45.4297 73.209 45.3887 72.7734 45.3184 72.0742C45.1348 70.2227 45.043 69.1172 45.043 68.7578C45.043 68.6992 45.0449 68.6641 45.0488 68.6523C44.9707 68.7305 44.8613 69.0918 44.7207 69.7363C44.5801 70.3809 44.4492 71.0742 44.3281 71.8164C44.207 72.5547 44.1406 73.043 44.1289 73.2812C44.4688 73.3711 44.8242 73.416 45.1953 73.416ZM49.1797 72.4609C48.9688 71.7891 48.8223 71.291 48.7402 70.9668V75.6953C48.7402 75.8242 48.7168 75.9199 48.6699 75.9824C48.623 76.0449 48.5352 76.0762 48.4062 76.0762C48.3164 76.0762 48.2422 76.0449 48.1836 75.9824C48.1289 75.916 48.1016 75.8359 48.1016 75.7422V75.6484C48.1016 74.6914 48.1094 73.5176 48.125 72.127C48.1406 70.7363 48.1484 69.5645 48.1484 68.6113V67.1348C48.1484 67.0371 48.168 66.9707 48.207 66.9355C48.25 66.8965 48.3359 66.877 48.4648 66.877C48.6602 66.877 48.8418 66.916 49.0098 66.9941C49.1816 67.0723 49.3281 67.1797 49.4492 67.3164C49.5625 67.4492 49.6602 67.6035 49.7422 67.7793C49.8242 67.9512 49.8848 68.1309 49.9238 68.3184C49.959 68.498 49.9766 68.6816 49.9766 68.8691C49.9766 69.0449 49.9492 69.2695 49.8945 69.543C49.8672 69.6836 49.7969 69.9062 49.6836 70.2109L49.543 70.5566L49.4199 70.8672C49.4238 71.1562 49.4707 71.5215 49.5605 71.9629C49.6543 72.4043 49.7598 72.8105 49.877 73.1816C49.9824 73.5254 50.125 73.9629 50.3047 74.4941L50.6562 75.5547V75.584C50.6562 75.6504 50.6523 75.709 50.6445 75.7598C50.6406 75.8105 50.6328 75.8652 50.6211 75.9238C50.5938 76.0566 50.5078 76.123 50.3633 76.123C50.2148 76.123 50.0703 76.0156 49.9297 75.8008V75.7598C49.9062 75.3418 49.832 74.873 49.707 74.3535C49.5859 73.8301 49.4102 73.1992 49.1797 72.4609ZM48.7109 70.4277C48.8516 70.2949 48.9863 70.1406 49.1152 69.9648L49.3027 68.9277C49.3105 68.8574 49.3145 68.8047 49.3145 68.7695C49.3145 68.5312 49.2676 68.2617 49.1738 67.9609C49.127 67.8164 49.0664 67.6953 48.9922 67.5977C48.9219 67.5 48.8457 67.4434 48.7637 67.4277C48.7637 67.623 48.7539 68.0234 48.7344 68.6289C48.7109 69.1719 48.6992 69.5879 48.6992 69.877C48.6992 70.0801 48.7031 70.2637 48.7109 70.4277ZM54.3301 75.6777V75.748L54.0312 75.9531L53.7148 75.9648C53.5234 75.9766 53.3574 75.9824 53.2168 75.9824C52.5254 75.9824 52.1797 75.8633 52.1797 75.625C52.1797 75.4336 52.3008 75.3379 52.543 75.3379C52.5977 75.3379 52.6445 75.3398 52.6836 75.3438L52.7949 75.3555C52.8574 75.3555 52.9023 75.3359 52.9297 75.2969C52.957 75.2539 52.9707 75.1797 52.9707 75.0742C52.9707 74.4258 52.9336 73.5 52.8594 72.2969C52.7852 71.0977 52.748 70.1738 52.748 69.5254L52.7598 68.9102L52.7715 68.3008C52.7715 68.0625 52.7617 67.8398 52.7422 67.6328C52.6367 67.668 52.543 67.6855 52.4609 67.6855C52.2734 67.6855 52.1797 67.5898 52.1797 67.3984C52.1797 67.3047 52.2383 67.2227 52.3555 67.1523C52.4727 67.0781 52.625 67.0234 52.8125 66.9883C53.1367 66.9297 53.4199 66.9004 53.6621 66.9004C53.7559 66.9004 53.8379 66.9336 53.9082 67C53.9785 67.0625 54.0137 67.1387 54.0137 67.2285C54.0137 67.3145 53.9863 67.3906 53.9316 67.457C53.8809 67.5195 53.8145 67.5508 53.7324 67.5508C53.6855 67.5508 53.6465 67.5488 53.6152 67.5449H53.5215C53.4395 67.5449 53.3809 67.5625 53.3457 67.5977C53.3105 67.6328 53.293 67.6973 53.293 67.791C53.293 68.6035 53.3418 69.7734 53.4395 71.3008C53.5371 72.8281 53.5859 73.998 53.5859 74.8105V75.2734C53.668 75.2617 53.75 75.2559 53.832 75.2559C54.1641 75.2559 54.3301 75.3965 54.3301 75.6777ZM57.125 67.9844C57.0781 68.1406 57.0547 68.293 57.0547 68.4414C57.0547 68.75 57.0957 69.0645 57.1777 69.3848C57.2598 69.7012 57.3691 69.9941 57.5059 70.2637L57.5938 70.4395C57.9688 71.1777 58.2188 71.6797 58.3438 71.9453C58.4805 72.2305 58.5898 72.5547 58.6719 72.918C58.7539 73.2773 58.7949 73.6367 58.7949 73.9961C58.7949 74.2461 58.7598 74.5 58.6895 74.7578C58.623 75.0156 58.5273 75.2578 58.4023 75.4844C58.2695 75.7227 58.0938 75.9121 57.875 76.0527C57.6562 76.1934 57.416 76.2637 57.1543 76.2637C56.8652 76.2637 56.6191 76.2109 56.416 76.1055C56.2871 76.043 56.2227 75.9609 56.2227 75.8594C56.2227 75.7656 56.2461 75.6895 56.293 75.6309C56.3398 75.5684 56.4062 75.5371 56.4922 75.5371C56.5859 75.5371 56.7051 75.5664 56.8496 75.625C56.9902 75.6875 57.0918 75.7188 57.1543 75.7188C57.3027 75.7188 57.4395 75.6523 57.5645 75.5195C57.6934 75.3867 57.7949 75.2148 57.8691 75.0039C57.9395 74.8086 57.9922 74.6152 58.0273 74.4238C58.0664 74.2324 58.0859 74.0645 58.0859 73.9199C58.0859 73.5801 58.0312 73.2207 57.9219 72.8418C57.8125 72.4629 57.666 72.0918 57.4824 71.7285L57.3125 71.3945C57.1211 71.0234 56.9668 70.7109 56.8496 70.457C56.7324 70.1992 56.6309 69.9277 56.5449 69.6426C56.4277 69.2598 56.3691 68.8887 56.3691 68.5293C56.3691 68.2402 56.418 67.9688 56.5156 67.7148C56.6133 67.457 56.7637 67.2383 56.9668 67.0586C57.1699 66.8711 57.416 66.7773 57.7051 66.7773C57.8496 66.7773 57.9902 66.8184 58.127 66.9004C58.2637 66.9824 58.3594 67.0859 58.4141 67.2109L58.209 67.4688C58.0098 67.4688 57.8535 67.4297 57.7402 67.3516C57.5996 67.3672 57.4727 67.4355 57.3594 67.5566C57.25 67.6777 57.1719 67.8203 57.125 67.9844Z" fill="black" fill-opacity="0.71"/>
<path d="M26.9199 93.6055C26.998 93.082 27.0527 92.584 27.084 92.1113V92.041C27.0996 91.9395 27.1465 91.8574 27.2246 91.7949C27.3066 91.7324 27.4023 91.7012 27.5117 91.7012C27.582 91.7012 27.6465 91.7344 27.7051 91.8008C27.7637 91.8633 27.793 91.9316 27.793 92.0059C27.793 93.0137 27.8301 94.4473 27.9043 96.3066C27.9746 98.2168 28.0098 99.6504 28.0098 100.607C28.0098 100.729 27.9863 100.844 27.9395 100.953C27.8926 101.062 27.832 101.15 27.7578 101.217C27.6836 101.283 27.6094 101.316 27.5352 101.316C27.457 101.316 27.3926 101.273 27.3418 101.188C27.2949 101.105 27.2715 100.99 27.2715 100.842C27.2715 100.158 27.2637 99.3164 27.248 98.3164C27.2324 97.3164 27.2246 96.4746 27.2246 95.791V95.1816C27.1738 95.4902 27.0508 96.0293 26.8555 96.7988C26.6602 97.5723 26.5371 98.1641 26.4863 98.5742V98.6504L26.4512 98.873C26.4355 98.9902 26.418 99.0879 26.3984 99.166C26.3828 99.2402 26.3574 99.3223 26.3223 99.4121C26.252 99.6035 26.1289 99.6992 25.9531 99.6992C25.668 99.6992 25.5254 99.3262 25.5254 98.5801C25.5254 98.166 25.4824 97.7207 25.3965 97.2441C25.3145 96.7676 25.1797 96.1797 24.9922 95.4805C24.8047 94.8008 24.6875 94.3516 24.6406 94.1328C24.625 94.6992 24.6172 95.1816 24.6172 95.5801C24.6172 96.127 24.6348 96.9492 24.6699 98.0469C24.7012 99.2148 24.7168 100.037 24.7168 100.514C24.7168 100.689 24.6562 100.84 24.5352 100.965C24.3398 100.965 24.2031 100.902 24.125 100.777C24.0469 100.652 24.0078 100.469 24.0078 100.227C24.0078 100.055 24.0176 99.7285 24.0371 99.248C24.0566 98.7715 24.0664 98.4492 24.0664 98.2812C24.0664 97.7617 24.0605 96.9863 24.0488 95.9551C24.0332 95.0371 24.0254 94.2637 24.0254 93.6348C24.0254 93.1152 24.0312 92.5977 24.043 92.082L24.377 91.8945C24.4941 91.8984 24.627 92.0762 24.7754 92.4277C24.9902 92.959 25.25 93.9531 25.5547 95.4102C25.668 95.9492 25.7715 96.4727 25.8652 96.9805C25.9668 97.5312 26.0254 97.8398 26.041 97.9062C26.0723 97.7461 26.1309 97.4805 26.2168 97.1094C26.2402 97 26.2617 96.8965 26.2812 96.7988C26.3047 96.7012 26.3262 96.6094 26.3457 96.5234C26.5059 95.8008 26.6211 95.2637 26.6914 94.9121C26.7617 94.5605 26.8379 94.125 26.9199 93.6055ZM30.8867 91.8125C31.0195 91.7461 31.1621 91.7129 31.3145 91.7129C31.5215 91.7129 31.7109 91.7559 31.8828 91.8418C32.0547 91.9277 32.2012 92.0527 32.3223 92.2168C32.4512 92.3965 32.5605 92.5859 32.6504 92.7852C32.7402 92.9844 32.8125 93.2129 32.8672 93.4707C32.9297 93.7793 32.9785 94.0527 33.0137 94.291C33.0488 94.5293 33.0723 94.7949 33.084 95.0879C33.1113 95.6777 33.125 96.2109 33.125 96.6875V97.3789C33.125 97.5547 33.1074 97.8105 33.0723 98.1465C33.0371 98.4785 33.0195 98.7285 33.0195 98.8965V98.9492C32.9688 99.1641 32.9434 99.4277 32.9434 99.7402C32.9434 99.9629 32.8965 100.193 32.8027 100.432C32.709 100.67 32.5742 100.877 32.3984 101.053C32.2188 101.24 32.0176 101.334 31.7949 101.334C31.584 101.334 31.3867 101.262 31.2031 101.117C31.0234 100.973 30.873 100.779 30.752 100.537C30.6387 100.314 30.5371 100.043 30.4473 99.7227C30.3574 99.4023 30.2871 99.082 30.2363 98.7617C30.1895 98.4805 30.1504 98.1738 30.1191 97.8418C30.0918 97.5059 30.0723 97.209 30.0605 96.9512C30.0527 96.6543 30.0488 96.4434 30.0488 96.3184C30.0488 96.0996 30.0469 95.8848 30.043 95.6738L30.0312 94.918C30.0312 94.4414 30.0508 94.0156 30.0898 93.6406C30.1289 93.2188 30.2109 92.8418 30.3359 92.5098C30.4023 92.3379 30.4785 92.1973 30.5645 92.0879C30.6504 91.9746 30.7578 91.8828 30.8867 91.8125ZM31.7598 92.5098C31.6426 92.4004 31.5137 92.3457 31.373 92.3457C31.1855 92.3457 31.0371 92.502 30.9277 92.8145C30.8066 93.1699 30.7285 93.5293 30.6934 93.8926C30.6426 94.373 30.6133 94.7773 30.6055 95.1055L30.5996 95.3281C30.5918 95.7031 30.5879 95.9121 30.5879 95.9551V96.0078C30.5879 96.5391 30.6406 97.1973 30.7461 97.9824C30.8125 98.4941 30.8887 98.9375 30.9746 99.3125C31.0645 99.6875 31.1797 100.004 31.3203 100.262C31.4688 100.539 31.6348 100.678 31.8184 100.678C31.9785 100.678 32.1152 100.527 32.2285 100.227C32.3262 99.9609 32.3984 99.6328 32.4453 99.2422C32.4922 98.8477 32.5293 98.4238 32.5566 97.9707C32.5723 97.6934 32.5801 97.4277 32.5801 97.1738C32.5801 96.8145 32.5742 96.4453 32.5625 96.0664C32.543 95.6406 32.4961 95.1016 32.4219 94.4492C32.3555 93.9141 32.2363 93.4258 32.0645 92.9844C31.9824 92.7773 31.8809 92.6191 31.7598 92.5098ZM37.7363 98.791L37.9238 99.623L37.9355 99.6816C37.9355 99.1152 37.9434 98.418 37.959 97.5898C37.9746 96.7617 37.9824 96.0645 37.9824 95.498V91.9473C38.0293 91.748 38.1602 91.6484 38.375 91.6484C38.5898 91.6484 38.6973 91.8047 38.6973 92.1172V92.1875C38.6504 92.2852 38.627 92.4023 38.627 92.5391C38.627 93.0234 38.6152 93.7617 38.5918 94.7539C38.5645 95.6797 38.5508 96.4199 38.5508 96.9746V100.643C38.5508 100.768 38.5156 100.887 38.4453 101C38.3789 101.117 38.2988 101.176 38.2051 101.176C38.0371 101.176 37.709 100.352 37.2207 98.7031C36.709 96.9688 36.2266 95.1992 35.7734 93.3945V97.332C35.7734 97.7148 35.8027 98.2852 35.8613 99.043C35.916 99.8281 35.9434 100.398 35.9434 100.754C35.9434 100.824 35.8984 100.885 35.8086 100.936C35.7227 100.986 35.627 101.012 35.5215 101.012C35.3457 101.012 35.2578 100.949 35.2578 100.824C35.2578 100.793 35.2676 100.674 35.2871 100.467C35.3066 100.26 35.3164 100.092 35.3164 99.9629C35.3164 99.5176 35.291 98.8457 35.2402 97.9473C35.1895 97.0488 35.1641 96.4805 35.1641 96.2422V94.7129C35.1641 94.4316 35.1777 94.0645 35.2051 93.6113C35.2324 93.1582 35.2461 92.791 35.2461 92.5098V92.4336C35.2461 92.0352 35.334 91.8359 35.5098 91.8359C35.6191 91.8359 35.7539 92.0098 35.9141 92.3574C36.1797 92.9355 36.5137 93.9668 36.916 95.4512C37.1426 96.2988 37.416 97.4121 37.7363 98.791ZM42.2715 94.8008L42.2598 95.5801C42.2598 95.8926 42.2773 96.3516 42.3125 96.957C42.3477 97.5586 42.3652 98.0195 42.3652 98.3398C42.3652 98.582 42.3828 98.9414 42.418 99.418C42.4492 99.9258 42.4648 100.285 42.4648 100.496C42.4648 100.887 42.3496 101.082 42.1191 101.082C41.9941 101.082 41.8984 101.023 41.832 100.906C41.7656 100.785 41.7324 100.643 41.7324 100.479C41.7324 100.295 41.748 99.9746 41.7793 99.5176C41.8105 99.0605 41.8262 98.7422 41.8262 98.5625C41.8262 98.1797 41.7988 97.5566 41.7441 96.6934C41.6895 95.8301 41.6621 95.207 41.6621 94.8242L41.6738 94.3672C41.6777 94.207 41.6797 94.0098 41.6797 93.7754C41.6797 93.1934 41.6426 92.8203 41.5684 92.6562L41.2578 92.6914C41.0938 92.7109 40.9805 92.7207 40.918 92.7207C40.8125 92.7207 40.7207 92.6895 40.6426 92.627C40.5645 92.5645 40.5254 92.4863 40.5254 92.3926C40.5254 92.2988 40.6211 92.2168 40.8125 92.1465C41.1016 92.0449 41.5742 91.9746 42.2305 91.9355C42.4375 91.9238 42.6035 91.918 42.7285 91.918C42.8301 91.918 42.9199 91.9512 42.998 92.0176C43.0762 92.084 43.1152 92.1641 43.1152 92.2578C43.1152 92.3516 43.0801 92.4277 43.0098 92.4863C42.9434 92.5449 42.8574 92.5742 42.752 92.5742L42.5352 92.5625L42.3242 92.5508C42.2617 92.5508 42.2207 92.5527 42.2012 92.5566C42.2559 93.0371 42.2832 93.5293 42.2832 94.0332L42.2715 94.8008ZM45.0312 98.6504C45.0508 97.5684 45.0605 96.8105 45.0605 96.377C45.0605 94.502 44.957 93.0742 44.75 92.0938C44.8711 91.9141 45.0254 91.8242 45.2129 91.8242C45.502 91.8242 45.7695 91.8906 46.0156 92.0234C46.2617 92.1523 46.4629 92.3281 46.6191 92.5508C46.7715 92.7734 46.8887 93.0195 46.9707 93.2891C47.0527 93.5586 47.0938 93.834 47.0938 94.1152C47.0938 94.709 46.9648 95.2441 46.707 95.7207C46.4492 96.1973 46.0781 96.5664 45.5938 96.8281C45.5938 97.1758 45.6094 97.791 45.6406 98.6738C45.6719 99.5605 45.6875 100.191 45.6875 100.566C45.6875 100.719 45.6543 100.84 45.5879 100.93C45.5215 101.02 45.4219 101.064 45.2891 101.064C45.1992 101.064 45.1289 101.025 45.0781 100.947C45.0273 100.865 45.002 100.77 45.002 100.66C45.002 100.406 45.0117 99.7363 45.0312 98.6504ZM46.2559 95.3223C46.4043 94.9941 46.4785 94.625 46.4785 94.2148V94.209C46.4785 93.9941 46.457 93.7617 46.4141 93.5117C46.3984 93.4141 46.3574 93.3184 46.291 93.2246C46.2285 93.127 46.1934 93.0723 46.1855 93.0605C46.1309 92.9902 45.9824 92.8633 45.7402 92.6797L45.4238 92.4512C45.4316 92.873 45.4551 93.5059 45.4941 94.3496C45.5371 95.1934 45.5605 95.8262 45.5645 96.248C45.8809 95.9551 46.1113 95.6465 46.2559 95.3223ZM50.5273 100.35C50.9844 100.35 51.2129 100.455 51.2129 100.666V100.707C51.1621 100.809 51.0723 100.891 50.9434 100.953C50.8184 101.012 50.6973 101.047 50.5801 101.059C50.4473 101.066 50.3164 101.07 50.1875 101.07H49.8125C49.7148 101.07 49.6387 101.066 49.584 101.059C49.5332 101.055 49.4766 101.041 49.4141 101.018C49.2812 100.971 49.2148 100.857 49.2148 100.678V93.7051C49.2148 93.5801 49.1875 93.377 49.1328 93.0957C49.0781 92.8145 49.0508 92.6094 49.0508 92.4805V92.4395C49.1836 92.2246 49.2832 92.084 49.3496 92.0176C49.4473 92.0176 49.5957 92 49.7949 91.9648C49.9941 91.9297 50.1426 91.9121 50.2402 91.9121C50.3691 91.9121 50.4922 91.9512 50.6094 92.0293C50.7305 92.1035 50.791 92.1953 50.791 92.3047C50.791 92.543 50.6094 92.6621 50.2461 92.6621C50.1836 92.6621 50.127 92.6602 50.0762 92.6562C50.0254 92.6523 49.9668 92.6504 49.9004 92.6504C49.834 92.6504 49.791 92.6523 49.7715 92.6562C49.7715 92.8477 49.7871 93.1777 49.8184 93.6465C49.8496 94.1152 49.8652 94.4453 49.8652 94.6367C49.8652 94.7617 49.8555 94.9941 49.8359 95.334C49.8164 95.6777 49.8066 95.9023 49.8066 96.0078C49.8027 96.0078 49.8613 95.9941 49.9824 95.9668C50.1348 95.9238 50.2637 95.9023 50.3691 95.9023C50.4629 95.9023 50.5449 95.9355 50.6152 96.002C50.6855 96.0684 50.7207 96.1465 50.7207 96.2363C50.7207 96.3379 50.6895 96.4258 50.627 96.5C50.5684 96.5703 50.4941 96.6055 50.4043 96.6055C50.3574 96.6055 50.3125 96.6035 50.2695 96.5996C50.2227 96.5957 50.168 96.5938 50.1055 96.5938C49.9883 96.5938 49.9062 96.623 49.8594 96.6816V100.385L50.5273 100.35ZM54.0488 96.8926C54.0801 97.6348 54.0957 98.6777 54.0957 100.021V100.326H55.0098C55.1816 100.443 55.2676 100.562 55.2676 100.684C55.2676 100.773 55.2383 100.854 55.1797 100.924C55.1211 100.99 55.0488 101.023 54.9629 101.023C54.9238 101.023 54.8828 101.016 54.8398 101L54.7812 100.982C54.7227 100.998 54.6465 101.006 54.5527 101.006L54.3594 100.994C54.3008 100.99 54.2363 100.988 54.166 100.988C54.084 101.086 53.9707 101.135 53.8262 101.135C53.7207 101.135 53.627 101.096 53.5449 101.018C53.4629 100.943 53.4219 100.855 53.4219 100.754C53.4219 100.684 53.4355 100.594 53.4629 100.484C53.4863 100.371 53.498 100.285 53.498 100.227C53.498 99.3633 53.459 97.998 53.3809 96.1309C53.2988 94.3145 53.2578 92.9512 53.2578 92.041C53.2578 91.9707 53.2852 91.9121 53.3398 91.8652C53.3984 91.8184 53.4688 91.7949 53.5508 91.7949C53.6484 91.7949 53.7324 91.8301 53.8027 91.9004C53.877 91.9668 53.9141 92.0469 53.9141 92.1406C53.9141 92.5742 53.9355 93.2949 53.9785 94.3027C54.0176 95.2168 54.0371 95.9355 54.0371 96.459L54.0488 96.6055C54.0527 96.6484 54.0547 96.6973 54.0547 96.752C54.0547 96.7988 54.0527 96.8281 54.0488 96.8398V96.8926ZM57.5762 96.8926C57.6074 97.6348 57.623 98.6777 57.623 100.021V100.326H58.5371C58.709 100.443 58.7949 100.562 58.7949 100.684C58.7949 100.773 58.7656 100.854 58.707 100.924C58.6484 100.99 58.5762 101.023 58.4902 101.023C58.4512 101.023 58.4102 101.016 58.3672 101L58.3086 100.982C58.25 100.998 58.1738 101.006 58.0801 101.006L57.8867 100.994C57.8281 100.99 57.7637 100.988 57.6934 100.988C57.6113 101.086 57.498 101.135 57.3535 101.135C57.248 101.135 57.1543 101.096 57.0723 101.018C56.9902 100.943 56.9492 100.855 56.9492 100.754C56.9492 100.684 56.9629 100.594 56.9902 100.484C57.0137 100.371 57.0254 100.285 57.0254 100.227C57.0254 99.3633 56.9863 97.998 56.9082 96.1309C56.8262 94.3145 56.7852 92.9512 56.7852 92.041C56.7852 91.9707 56.8125 91.9121 56.8672 91.8652C56.9258 91.8184 56.9961 91.7949 57.0781 91.7949C57.1758 91.7949 57.2598 91.8301 57.3301 91.9004C57.4043 91.9668 57.4414 92.0469 57.4414 92.1406C57.4414 92.5742 57.4629 93.2949 57.5059 94.3027C57.5449 95.2168 57.5645 95.9355 57.5645 96.459L57.5762 96.6055C57.5801 96.6484 57.582 96.6973 57.582 96.752C57.582 96.7988 57.5801 96.8281 57.5762 96.8398V96.8926ZM62.2754 100.678V100.748L61.9766 100.953L61.6602 100.965C61.4688 100.977 61.3027 100.982 61.1621 100.982C60.4707 100.982 60.125 100.863 60.125 100.625C60.125 100.434 60.2461 100.338 60.4883 100.338C60.543 100.338 60.5898 100.34 60.6289 100.344L60.7402 100.355C60.8027 100.355 60.8477 100.336 60.875 100.297C60.9023 100.254 60.916 100.18 60.916 100.074C60.916 99.4258 60.8789 98.5 60.8047 97.2969C60.7305 96.0977 60.6934 95.1738 60.6934 94.5254L60.7051 93.9102L60.7168 93.3008C60.7168 93.0625 60.707 92.8398 60.6875 92.6328C60.582 92.668 60.4883 92.6855 60.4062 92.6855C60.2188 92.6855 60.125 92.5898 60.125 92.3984C60.125 92.3047 60.1836 92.2227 60.3008 92.1523C60.418 92.0781 60.5703 92.0234 60.7578 91.9883C61.082 91.9297 61.3652 91.9004 61.6074 91.9004C61.7012 91.9004 61.7832 91.9336 61.8535 92C61.9238 92.0625 61.959 92.1387 61.959 92.2285C61.959 92.3145 61.9316 92.3906 61.877 92.457C61.8262 92.5195 61.7598 92.5508 61.6777 92.5508C61.6309 92.5508 61.5918 92.5488 61.5605 92.5449H61.4668C61.3848 92.5449 61.3262 92.5625 61.291 92.5977C61.2559 92.6328 61.2383 92.6973 61.2383 92.791C61.2383 93.6035 61.2871 94.7734 61.3848 96.3008C61.4824 97.8281 61.5312 98.998 61.5312 99.8105V100.273C61.6133 100.262 61.6953 100.256 61.7773 100.256C62.1094 100.256 62.2754 100.396 62.2754 100.678ZM65.7852 100.35C66.2422 100.35 66.4707 100.455 66.4707 100.666V100.707C66.4199 100.809 66.3301 100.891 66.2012 100.953C66.0762 101.012 65.9551 101.047 65.8379 101.059C65.7051 101.066 65.5742 101.07 65.4453 101.07H65.0703C64.9727 101.07 64.8965 101.066 64.8418 101.059C64.791 101.055 64.7344 101.041 64.6719 101.018C64.5391 100.971 64.4727 100.857 64.4727 100.678V93.7051C64.4727 93.5801 64.4453 93.377 64.3906 93.0957C64.3359 92.8145 64.3086 92.6094 64.3086 92.4805V92.4395C64.4414 92.2246 64.541 92.084 64.6074 92.0176C64.7051 92.0176 64.8535 92 65.0527 91.9648C65.252 91.9297 65.4004 91.9121 65.498 91.9121C65.627 91.9121 65.75 91.9512 65.8672 92.0293C65.9883 92.1035 66.0488 92.1953 66.0488 92.3047C66.0488 92.543 65.8672 92.6621 65.5039 92.6621C65.4414 92.6621 65.3848 92.6602 65.334 92.6562C65.2832 92.6523 65.2246 92.6504 65.1582 92.6504C65.0918 92.6504 65.0488 92.6523 65.0293 92.6562C65.0293 92.8477 65.0449 93.1777 65.0762 93.6465C65.1074 94.1152 65.123 94.4453 65.123 94.6367C65.123 94.7617 65.1133 94.9941 65.0938 95.334C65.0742 95.6777 65.0645 95.9023 65.0645 96.0078C65.0605 96.0078 65.1191 95.9941 65.2402 95.9668C65.3926 95.9238 65.5215 95.9023 65.627 95.9023C65.7207 95.9023 65.8027 95.9355 65.873 96.002C65.9434 96.0684 65.9785 96.1465 65.9785 96.2363C65.9785 96.3379 65.9473 96.4258 65.8848 96.5C65.8262 96.5703 65.752 96.6055 65.6621 96.6055C65.6152 96.6055 65.5703 96.6035 65.5273 96.5996C65.4805 96.5957 65.4258 96.5938 65.3633 96.5938C65.2461 96.5938 65.1641 96.623 65.1172 96.6816V100.385L65.7852 100.35ZM69.6406 97.4609C69.4297 96.7891 69.2832 96.291 69.2012 95.9668V100.695C69.2012 100.824 69.1777 100.92 69.1309 100.982C69.084 101.045 68.9961 101.076 68.8672 101.076C68.7773 101.076 68.7031 101.045 68.6445 100.982C68.5898 100.916 68.5625 100.836 68.5625 100.742V100.648C68.5625 99.6914 68.5703 98.5176 68.5859 97.127C68.6016 95.7363 68.6094 94.5645 68.6094 93.6113V92.1348C68.6094 92.0371 68.6289 91.9707 68.668 91.9355C68.7109 91.8965 68.7969 91.877 68.9258 91.877C69.1211 91.877 69.3027 91.916 69.4707 91.9941C69.6426 92.0723 69.7891 92.1797 69.9102 92.3164C70.0234 92.4492 70.1211 92.6035 70.2031 92.7793C70.2852 92.9512 70.3457 93.1309 70.3848 93.3184C70.4199 93.498 70.4375 93.6816 70.4375 93.8691C70.4375 94.0449 70.4102 94.2695 70.3555 94.543C70.3281 94.6836 70.2578 94.9062 70.1445 95.2109L70.0039 95.5566L69.8809 95.8672C69.8848 96.1562 69.9316 96.5215 70.0215 96.9629C70.1152 97.4043 70.2207 97.8105 70.3379 98.1816C70.4434 98.5254 70.5859 98.9629 70.7656 99.4941L71.1172 100.555V100.584C71.1172 100.65 71.1133 100.709 71.1055 100.76C71.1016 100.811 71.0938 100.865 71.082 100.924C71.0547 101.057 70.9688 101.123 70.8242 101.123C70.6758 101.123 70.5312 101.016 70.3906 100.801V100.76C70.3672 100.342 70.293 99.873 70.168 99.3535C70.0469 98.8301 69.8711 98.1992 69.6406 97.4609ZM69.1719 95.4277C69.3125 95.2949 69.4473 95.1406 69.5762 94.9648L69.7637 93.9277C69.7715 93.8574 69.7754 93.8047 69.7754 93.7695C69.7754 93.5312 69.7285 93.2617 69.6348 92.9609C69.5879 92.8164 69.5273 92.6953 69.4531 92.5977C69.3828 92.5 69.3066 92.4434 69.2246 92.4277C69.2246 92.623 69.2148 93.0234 69.1953 93.6289C69.1719 94.1719 69.1602 94.5879 69.1602 94.877C69.1602 95.0801 69.1641 95.2637 69.1719 95.4277Z" fill="black"/>
<path d="M100.061 25.0607C100.646 24.4749 100.646 23.5251 100.061 22.9393L90.5147 13.3934C89.9289 12.8076 88.9792 12.8076 88.3934 13.3934C87.8076 13.9792 87.8076 14.9289 88.3934 15.5147L96.8787 24L88.3934 32.4853C87.8076 33.0711 87.8076 34.0208 88.3934 34.6066C88.9792 35.1924 89.9289 35.1924 90.5147 34.6066L100.061 25.0607ZM86 25.5L99 25.5L99 22.5L86 22.5L86 25.5Z" fill="#E55039"/>
<path d="M0.939339 46.9393C0.353553 47.5251 0.353553 48.4749 0.939339 49.0607L10.4853 58.6066C11.0711 59.1924 12.0208 59.1924 12.6066 58.6066C13.1924 58.0208 13.1924 57.0711 12.6066 56.4853L4.12132 48L12.6066 39.5147C13.1924 38.9289 13.1924 37.9792 12.6066 37.3934C12.0208 36.8076 11.0711 36.8076 10.4853 37.3934L0.939339 46.9393ZM11 46.5H2V49.5H11V46.5Z" fill="#F8C291"/>
<path d="M102.061 73.0607C102.646 72.4749 102.646 71.5251 102.061 70.9393L92.5147 61.3934C91.9289 60.8076 90.9792 60.8076 90.3934 61.3934C89.8076 61.9792 89.8076 62.9289 90.3934 63.5147L98.8787 72L90.3934 80.4853C89.8076 81.0711 89.8076 82.0208 90.3934 82.6066C90.9792 83.1924 91.9289 83.1924 92.5147 82.6066L102.061 73.0607ZM86 73.5H101V70.5H86V73.5Z" fill="#EE923F"/>
<path d="M0.93934 94.9393C0.353553 95.5251 0.353553 96.4749 0.93934 97.0607L10.4853 106.607C11.0711 107.192 12.0208 107.192 12.6066 106.607C13.1924 106.021 13.1924 105.071 12.6066 104.485L4.12132 96L12.6066 87.5147C13.1924 86.9289 13.1924 85.9792 12.6066 85.3934C12.0208 84.8076 11.0711 84.8076 10.4853 85.3934L0.93934 94.9393ZM11 94.5H2V97.5H11V94.5Z" fill="#E76C59"/>
</svg>
