<svg width="32" height="32" viewBox="0 0 32 32" fill="none" xmlns="http://www.w3.org/2000/svg">
<path d="M27.7125 16.7125L22.4625 21.9625C22.2705 22.146 22.0155 22.2489 21.75 22.25C21.5517 22.2497 21.358 22.1904 21.1935 22.0797C21.0289 21.969 20.901 21.8119 20.826 21.6284C20.751 21.4448 20.7322 21.2431 20.7721 21.0489C20.812 20.8546 20.9087 20.6766 21.05 20.5375L24.5875 17H13C12.7348 17 12.4804 16.8946 12.2929 16.7071C12.1054 16.5196 12 16.2652 12 16C12 15.7348 12.1054 15.4804 12.2929 15.2929C12.4804 15.1054 12.7348 15 13 15H24.5875L21.05 11.4625C20.861 11.2752 20.7542 11.0205 20.753 10.7544C20.7519 10.4884 20.8564 10.2327 21.0438 10.0437C21.2311 9.85478 21.4858 9.74796 21.7518 9.74679C22.0179 9.74562 22.2735 9.85019 22.4625 10.0375L27.7125 15.2875C27.9003 15.4771 28.0056 15.7332 28.0056 16C28.0056 16.2668 27.9003 16.5229 27.7125 16.7125ZM13 26H6V6H13C13.2652 6 13.5196 5.89464 13.7071 5.70711C13.8946 5.51957 14 5.26522 14 5C14 4.73478 13.8946 4.48043 13.7071 4.29289C13.5196 4.10536 13.2652 4 13 4H6C5.46957 4 4.96086 4.21071 4.58579 4.58579C4.21071 4.96086 4 5.46957 4 6V26C4 26.5304 4.21071 27.0391 4.58579 27.4142C4.96086 27.7893 5.46957 28 6 28H13C13.2652 28 13.5196 27.8946 13.7071 27.7071C13.8946 27.5196 14 27.2652 14 27C14 26.7348 13.8946 26.4804 13.7071 26.2929C13.5196 26.1054 13.2652 26 13 26Z" fill="#8D95A5"/>
</svg>
