<svg width="44" height="48" viewBox="0 0 44 48" fill="none" xmlns="http://www.w3.org/2000/svg">
<circle cx="22" cy="24.2499" r="20.5" stroke="#395EA2" stroke-width="3"/>
<path d="M30.1315 32.3817C25.9921 36.5211 21.3026 39.2233 17.1262 40.2972C12.9122 41.3808 9.51553 40.7571 7.50412 38.7456C5.49271 36.7342 4.86892 33.3376 5.95255 29.1235C7.02647 24.9472 9.72868 20.2576 13.8681 16.1182C18.0075 11.9788 22.697 9.27662 26.8734 8.2027C31.0875 7.11907 34.4841 7.74286 36.4955 9.75427C38.5069 11.7657 39.1307 15.1623 38.0471 19.3764C36.9731 23.5528 34.2709 28.2423 30.1315 32.3817Z" stroke="#395EA2" stroke-width="3"/>
<path d="M30.1314 16.1182C34.2708 20.2576 36.973 24.9471 38.047 29.1235C39.1306 33.3376 38.5068 36.7342 36.4954 38.7456C34.484 40.757 31.0874 41.3808 26.8733 40.2972C22.6969 39.2233 18.0074 36.5211 13.868 32.3817C9.72859 28.2423 7.02638 23.5528 5.95245 19.3764C4.86883 15.1623 5.49262 11.7657 7.50402 9.75426C9.51543 7.74285 12.9121 7.11906 17.1262 8.20269C21.3025 9.27661 25.992 11.9788 30.1314 16.1182Z" stroke="#395EA2" stroke-width="3"/>
</svg>
