<svg width="155" height="60" viewBox="0 0 155 60" fill="none" xmlns="http://www.w3.org/2000/svg">
<path d="M73.43 39.23C73.67 39.23 73.88 39.32 74.06 39.5C74.24 39.66 74.33 39.86 74.33 40.1C74.33 40.36 74.24 40.58 74.06 40.76C73.88 40.92 73.67 41 73.43 41H62.72C62.46 41 62.24 40.91 62.06 40.73C61.9 40.55 61.82 40.34 61.82 40.1V20.9C61.82 20.66 61.91 20.45 62.09 20.27C62.27 20.09 62.5 20 62.78 20C63.02 20 63.23 20.09 63.41 20.27C63.61 20.45 63.71 20.66 63.71 20.9V39.74L63.14 39.23H73.43ZM91.6168 33.32C91.6168 34.84 91.2868 36.21 90.6268 37.43C89.9668 38.63 89.0668 39.58 87.9268 40.28C86.7868 40.96 85.4868 41.3 84.0268 41.3C82.6068 41.3 81.3168 40.96 80.1568 40.28C79.0168 39.58 78.1068 38.63 77.4268 37.43C76.7668 36.21 76.4368 34.84 76.4368 33.32C76.4368 31.78 76.7668 30.41 77.4268 29.21C78.1068 28.01 79.0168 27.06 80.1568 26.36C81.3168 25.66 82.6068 25.31 84.0268 25.31C85.4868 25.31 86.7868 25.66 87.9268 26.36C89.0668 27.06 89.9668 28.01 90.6268 29.21C91.2868 30.41 91.6168 31.78 91.6168 33.32ZM89.8168 33.32C89.8168 32.1 89.5668 31.02 89.0668 30.08C88.5668 29.12 87.8768 28.37 86.9968 27.83C86.1368 27.27 85.1468 26.99 84.0268 26.99C82.9468 26.99 81.9668 27.27 81.0868 27.83C80.2068 28.37 79.5068 29.12 78.9868 30.08C78.4868 31.02 78.2368 32.1 78.2368 33.32C78.2368 34.54 78.4868 35.62 78.9868 36.56C79.5068 37.5 80.2068 38.25 81.0868 38.81C81.9668 39.35 82.9468 39.62 84.0268 39.62C85.1468 39.62 86.1368 39.35 86.9968 38.81C87.8768 38.25 88.5668 37.5 89.0668 36.56C89.5668 35.62 89.8168 34.54 89.8168 33.32ZM102.192 25.31C103.152 25.31 104.032 25.42 104.832 25.64C105.632 25.84 106.272 26.12 106.752 26.48C107.252 26.84 107.502 27.23 107.502 27.65C107.502 27.85 107.432 28.05 107.292 28.25C107.152 28.43 106.962 28.52 106.722 28.52C106.482 28.52 106.282 28.46 106.122 28.34C105.982 28.22 105.832 28.08 105.672 27.92C105.532 27.76 105.322 27.61 105.042 27.47C104.782 27.35 104.412 27.24 103.932 27.14C103.452 27.04 102.902 26.99 102.282 26.99C101.162 26.99 100.152 27.27 99.2523 27.83C98.3523 28.39 97.6423 29.15 97.1223 30.11C96.6023 31.05 96.3423 32.11 96.3423 33.29C96.3423 34.49 96.5923 35.57 97.0923 36.53C97.5923 37.49 98.2823 38.25 99.1623 38.81C100.042 39.35 101.072 39.62 102.252 39.62C103.052 39.62 103.672 39.55 104.112 39.41C104.552 39.27 104.932 39.11 105.252 38.93C105.632 38.71 105.902 38.5 106.062 38.3C106.242 38.08 106.472 37.97 106.752 37.97C107.012 37.97 107.202 38.05 107.322 38.21C107.462 38.35 107.532 38.54 107.532 38.78C107.532 39.1 107.292 39.46 106.812 39.86C106.352 40.24 105.712 40.58 104.892 40.88C104.072 41.16 103.132 41.3 102.072 41.3C100.572 41.3 99.2523 40.95 98.1123 40.25C96.9923 39.55 96.1123 38.6 95.4723 37.4C94.8523 36.18 94.5423 34.81 94.5423 33.29C94.5423 31.83 94.8623 30.5 95.5023 29.3C96.1423 28.1 97.0323 27.14 98.1723 26.42C99.3323 25.68 100.672 25.31 102.192 25.31ZM123.54 25.67C123.8 25.67 124.01 25.76 124.17 25.94C124.35 26.12 124.44 26.34 124.44 26.6V40.1C124.44 40.34 124.35 40.55 124.17 40.73C123.99 40.91 123.78 41 123.54 41C123.28 41 123.06 40.91 122.88 40.73C122.72 40.55 122.64 40.34 122.64 40.1V36.53L123.15 36.29C123.15 36.85 122.99 37.42 122.67 38C122.37 38.58 121.95 39.12 121.41 39.62C120.87 40.12 120.23 40.53 119.49 40.85C118.77 41.15 117.99 41.3 117.15 41.3C115.79 41.3 114.57 40.95 113.49 40.25C112.43 39.55 111.59 38.59 110.97 37.37C110.37 36.15 110.07 34.78 110.07 33.26C110.07 31.7 110.38 30.33 111 29.15C111.62 27.95 112.46 27.01 113.52 26.33C114.58 25.65 115.78 25.31 117.12 25.31C117.98 25.31 118.78 25.46 119.52 25.76C120.28 26.06 120.94 26.47 121.5 26.99C122.06 27.51 122.49 28.11 122.79 28.79C123.11 29.45 123.27 30.14 123.27 30.86L122.64 30.41V26.6C122.64 26.34 122.72 26.12 122.88 25.94C123.06 25.76 123.28 25.67 123.54 25.67ZM117.3 39.62C118.36 39.62 119.3 39.35 120.12 38.81C120.94 38.25 121.58 37.49 122.04 36.53C122.52 35.55 122.76 34.46 122.76 33.26C122.76 32.08 122.52 31.02 122.04 30.08C121.58 29.14 120.94 28.39 120.12 27.83C119.3 27.27 118.36 26.99 117.3 26.99C116.26 26.99 115.32 27.26 114.48 27.8C113.66 28.34 113.01 29.08 112.53 30.02C112.07 30.96 111.84 32.04 111.84 33.26C111.84 34.46 112.07 35.55 112.53 36.53C113.01 37.49 113.66 38.25 114.48 38.81C115.3 39.35 116.24 39.62 117.3 39.62ZM131.263 21.95C131.263 22.49 131.103 23.02 130.783 23.54C130.463 24.04 130.073 24.46 129.613 24.8C129.173 25.12 128.723 25.28 128.263 25.28C128.103 25.28 127.953 25.23 127.813 25.13C127.673 25.03 127.603 24.85 127.603 24.59C127.603 24.31 127.693 24.15 127.873 24.11C128.053 24.07 128.293 23.98 128.593 23.84C128.913 23.66 129.163 23.45 129.343 23.21C129.523 22.97 129.613 22.69 129.613 22.37C129.613 22.11 129.533 21.91 129.373 21.77C129.233 21.63 129.063 21.56 128.863 21.56C128.723 21.56 128.583 21.59 128.443 21.65C128.303 21.69 128.183 21.75 128.083 21.83C127.963 21.73 127.863 21.62 127.783 21.5C127.723 21.36 127.693 21.2 127.693 21.02C127.733 20.68 127.923 20.39 128.263 20.15C128.603 19.91 128.983 19.79 129.403 19.79C129.943 19.79 130.383 20.01 130.723 20.45C131.083 20.87 131.263 21.37 131.263 21.95ZM136.463 41C136.163 41 135.913 40.91 135.713 40.73C135.533 40.55 135.443 40.34 135.443 40.1V20.9C135.443 20.66 135.533 20.45 135.713 20.27C135.893 20.09 136.103 20 136.343 20H144.443C145.583 20 146.603 20.25 147.503 20.75C148.403 21.23 149.103 21.9 149.603 22.76C150.123 23.62 150.383 24.59 150.383 25.67C150.383 26.55 150.223 27.36 149.903 28.1C149.583 28.84 149.133 29.47 148.553 29.99C147.973 30.49 147.323 30.86 146.603 31.1L145.553 30.77C146.293 30.83 146.983 31.07 147.623 31.49C148.263 31.89 148.773 32.45 149.153 33.17C149.553 33.87 149.763 34.72 149.783 35.72C149.803 36.58 149.843 37.25 149.903 37.73C149.983 38.21 150.093 38.57 150.233 38.81C150.373 39.05 150.553 39.24 150.773 39.38C150.973 39.5 151.103 39.67 151.163 39.89C151.243 40.11 151.223 40.32 151.103 40.52C151.023 40.68 150.903 40.8 150.743 40.88C150.603 40.94 150.453 40.97 150.293 40.97C150.133 40.97 149.973 40.93 149.813 40.85C149.533 40.69 149.243 40.44 148.943 40.1C148.663 39.76 148.423 39.26 148.223 38.6C148.043 37.94 147.953 37.02 147.953 35.84C147.953 35.06 147.823 34.42 147.563 33.92C147.323 33.42 147.003 33.04 146.603 32.78C146.223 32.5 145.793 32.31 145.313 32.21C144.853 32.09 144.413 32.03 143.993 32.03H137.003L137.333 31.61V40.1C137.333 40.34 137.253 40.55 137.093 40.73C136.933 40.91 136.723 41 136.463 41ZM137.003 30.38H144.533C145.213 30.32 145.853 30.1 146.453 29.72C147.053 29.32 147.533 28.78 147.893 28.1C148.273 27.42 148.463 26.63 148.463 25.73C148.463 24.59 148.073 23.65 147.293 22.91C146.533 22.15 145.533 21.77 144.293 21.77H137.123L137.333 21.35V30.8L137.003 30.38Z" fill="white"/>
<circle cx="30" cy="30.2499" r="20.5" stroke="#395EA2" stroke-width="3"/>
<path d="M38.1315 38.3817C33.9921 42.5211 29.3026 45.2233 25.1262 46.2972C20.9122 47.3808 17.5155 46.7571 15.5041 44.7456C13.4927 42.7342 12.8689 39.3376 13.9525 35.1235C15.0265 30.9472 17.7287 26.2576 21.8681 22.1182C26.0075 17.9788 30.697 15.2766 34.8734 14.2027C39.0875 13.1191 42.4841 13.7429 44.4955 15.7543C46.5069 17.7657 47.1307 21.1623 46.0471 25.3764C44.9731 29.5528 42.2709 34.2423 38.1315 38.3817Z" stroke="#395EA2" stroke-width="3"/>
<path d="M38.1314 22.1182C42.2708 26.2576 44.973 30.9471 46.047 35.1235C47.1306 39.3376 46.5068 42.7342 44.4954 44.7456C42.484 46.757 39.0874 47.3808 34.8733 46.2972C30.6969 45.2233 26.0074 42.5211 21.868 38.3817C17.7286 34.2423 15.0264 29.5528 13.9525 25.3764C12.8688 21.1623 13.4926 17.7657 15.504 15.7543C17.5154 13.7429 20.9121 13.1191 25.1262 14.2027C29.3025 15.2766 33.992 17.9788 38.1314 22.1182Z" stroke="#395EA2" stroke-width="3"/>
</svg>
