<svg width="25" height="24" viewBox="0 0 25 24" fill="none" xmlns="http://www.w3.org/2000/svg">
<path d="M12.1448 6C11.4031 6 10.6781 6.21993 10.0614 6.63199C9.4447 7.04404 8.96406 7.62971 8.68023 8.31494C8.3964 9.00016 8.32214 9.75416 8.46683 10.4816C8.61153 11.209 8.96868 11.8772 9.49312 12.4016C10.0176 12.9261 10.6858 13.2832 11.4132 13.4279C12.1406 13.5726 12.8946 13.4984 13.5798 13.2145C14.2651 12.9307 14.8507 12.4501 15.2628 11.8334C15.6748 11.2167 15.8948 10.4917 15.8948 9.75C15.8923 8.7562 15.4964 7.80381 14.7937 7.10108C14.091 6.39836 13.1386 6.00247 12.1448 6ZM12.1448 12C11.6998 12 11.2648 11.868 10.8947 11.6208C10.5247 11.3736 10.2363 11.0222 10.066 10.611C9.89575 10.1999 9.85119 9.7475 9.93801 9.31105C10.0248 8.87459 10.2391 8.47368 10.5538 8.15901C10.8685 7.84434 11.2694 7.63005 11.7058 7.54323C12.1423 7.45642 12.5947 7.50097 13.0058 7.67127C13.4169 7.84157 13.7683 8.12996 14.0156 8.49997C14.2628 8.86998 14.3948 9.30499 14.3948 9.75C14.3923 10.346 14.1545 10.9168 13.733 11.3383C13.3116 11.7597 12.7408 11.9975 12.1448 12ZM12.1448 1.5C9.9575 1.50248 7.86052 2.37247 6.31389 3.91911C4.76725 5.46575 3.89726 7.56273 3.89478 9.75C3.89478 12.6937 5.25415 15.8156 7.83228 18.7687C8.99117 20.1064 10.2926 21.3136 11.7135 22.3687C11.8413 22.4538 11.9913 22.4992 12.1448 22.4992C12.2982 22.4992 12.4483 22.4538 12.576 22.3687C14.0011 21.3151 15.3058 20.1079 16.4667 18.7687C19.0354 15.8156 20.3948 12.6937 20.3948 9.75C20.3923 7.56273 19.5223 5.46575 17.9757 3.91911C16.429 2.37247 14.3321 1.50248 12.1448 1.5ZM12.1448 20.8125C10.5979 19.5937 5.39478 15.1125 5.39478 9.75C5.39478 7.95979 6.10593 6.2429 7.3718 4.97703C8.63767 3.71116 10.3546 3 12.1448 3C13.935 3 15.6519 3.71116 16.9177 4.97703C18.1836 6.2429 18.8948 7.95979 18.8948 9.75C18.8948 15.1125 13.6917 19.5937 12.1448 20.8125Z" fill="#484E5B"/>
</svg>
