<svg width="24" height="24" viewBox="0 0 24 24" fill="none" xmlns="http://www.w3.org/2000/svg">
<path d="M12 2.25C10.3067 2.24987 8.64254 2.69074 7.17139 3.52921C5.70025 4.36768 4.47283 5.57483 3.61 7.03182C2.74716 8.4888 2.27865 10.1454 2.25059 11.8385C2.22254 13.5315 2.6359 15.2027 3.44999 16.6875L2.65312 19.5C2.57878 19.7563 2.5746 20.0278 2.64102 20.2863C2.70744 20.5447 2.84201 20.7806 3.0307 20.9693C3.21939 21.158 3.45527 21.2926 3.71372 21.359C3.97217 21.4254 4.24371 21.4212 4.49999 21.3469L7.31249 20.55C8.61589 21.2644 10.0654 21.6713 11.5501 21.7397C13.0349 21.8081 14.5156 21.5361 15.8791 20.9445C17.2427 20.353 18.4529 19.4575 19.4173 18.3266C20.3818 17.1956 21.0749 15.8592 21.4437 14.4193C21.8125 12.9795 21.8473 11.4744 21.5453 10.0191C21.2433 8.56374 20.6126 7.19672 19.7014 6.02249C18.7901 4.84826 17.6225 3.8979 16.2877 3.24406C14.9529 2.59022 13.4863 2.25021 12 2.25ZM12 20.25C10.519 20.2486 9.06551 19.8504 7.79062 19.0969C7.67297 19.0313 7.54092 18.9959 7.40624 18.9938C7.33654 18.9938 7.26717 19.0033 7.19999 19.0219L4.08749 19.9125L4.97812 16.8C5.00552 16.7015 5.01299 16.5985 5.00012 16.4971C4.98724 16.3957 4.95426 16.2979 4.90312 16.2094C3.97439 14.6439 3.58946 12.8152 3.80828 11.0082C4.0271 9.20119 4.83738 7.51726 6.11293 6.21872C7.38847 4.92018 9.05765 4.07993 10.8605 3.82886C12.6633 3.57779 14.4986 3.92998 16.0804 4.83059C17.6622 5.7312 18.9017 7.12965 19.606 8.80813C20.3102 10.4866 20.4396 12.3509 19.9739 14.1105C19.5083 15.8702 18.4738 17.4264 17.0315 18.5369C15.5892 19.6474 13.8202 20.2497 12 20.25ZM13.125 12C13.125 12.2225 13.059 12.44 12.9354 12.625C12.8118 12.81 12.6361 12.9542 12.4305 13.0394C12.2249 13.1245 11.9987 13.1468 11.7805 13.1034C11.5623 13.06 11.3618 12.9528 11.2045 12.7955C11.0472 12.6382 10.94 12.4377 10.8966 12.2195C10.8532 12.0012 10.8755 11.775 10.9606 11.5695C11.0458 11.3639 11.19 11.1882 11.375 11.0646C11.56 10.941 11.7775 10.875 12 10.875C12.2984 10.875 12.5845 10.9935 12.7955 11.2045C13.0065 11.4155 13.125 11.7016 13.125 12ZM8.62499 12C8.62499 12.2225 8.55901 12.44 8.4354 12.625C8.31178 12.81 8.13608 12.9542 7.93051 13.0394C7.72495 13.1245 7.49875 13.1468 7.28052 13.1034C7.06229 13.06 6.86183 12.9528 6.7045 12.7955C6.54716 12.6382 6.44002 12.4377 6.39661 12.2195C6.3532 12.0012 6.37548 11.775 6.46063 11.5695C6.54578 11.3639 6.68997 11.1882 6.87498 11.0646C7.05998 10.941 7.27749 10.875 7.49999 10.875C7.79836 10.875 8.08451 10.9935 8.29549 11.2045C8.50647 11.4155 8.62499 11.7016 8.62499 12ZM17.625 12C17.625 12.2225 17.559 12.44 17.4354 12.625C17.3118 12.81 17.1361 12.9542 16.9305 13.0394C16.7249 13.1245 16.4987 13.1468 16.2805 13.1034C16.0623 13.06 15.8618 12.9528 15.7045 12.7955C15.5472 12.6382 15.44 12.4377 15.3966 12.2195C15.3532 12.0012 15.3755 11.775 15.4606 11.5695C15.5458 11.3639 15.69 11.1882 15.875 11.0646C16.06 10.941 16.2775 10.875 16.5 10.875C16.7984 10.875 17.0845 10.9935 17.2955 11.2045C17.5065 11.4155 17.625 11.7016 17.625 12Z" fill="#5E6778"/>
</svg>
