<svg width="24" height="24" viewBox="0 0 24 24" fill="none" xmlns="http://www.w3.org/2000/svg">
<path d="M20.7 16.4906C20.1469 15.5344 19.4813 13.7156 19.4813 10.5V9.83438C19.4813 5.68125 16.1531 2.27813 12.0563 2.25H12C11.0163 2.25123 10.0425 2.4462 9.13418 2.82378C8.22584 3.20135 7.40077 3.75414 6.70608 4.45058C6.01138 5.14702 5.46065 5.97347 5.08535 6.88275C4.71005 7.79202 4.51752 8.76632 4.51875 9.75V10.5C4.51875 13.7156 3.85313 15.5344 3.3 16.4906C3.16623 16.7185 3.09503 16.9777 3.0936 17.2419C3.09218 17.5061 3.16058 17.7661 3.29188 17.9954C3.42319 18.2247 3.61274 18.4152 3.84135 18.5477C4.06995 18.6803 4.32951 18.75 4.59375 18.75H8.25C8.25 19.7446 8.64509 20.6984 9.34835 21.4016C10.0516 22.1049 11.0054 22.5 12 22.5C12.9946 22.5 13.9484 22.1049 14.6517 21.4016C15.3549 20.6984 15.75 19.7446 15.75 18.75H19.4063C19.6704 18.7517 19.9303 18.6831 20.1593 18.5513C20.3883 18.4196 20.5781 18.2293 20.7094 18C20.8395 17.7694 20.9071 17.5088 20.9055 17.2441C20.9038 16.9793 20.833 16.7196 20.7 16.4906ZM12 21C11.404 20.9975 10.8332 20.7597 10.4117 20.3383C9.99032 19.9168 9.75247 19.346 9.75 18.75H14.25C14.2475 19.346 14.0097 19.9168 13.5883 20.3383C13.1668 20.7597 12.596 20.9975 12 21ZM4.59375 17.25C5.24063 16.125 6.01875 14.0531 6.01875 10.5V9.75C6.01628 8.96295 6.16917 8.18316 6.46866 7.45532C6.76814 6.72747 7.20832 6.06589 7.76398 5.50849C8.31963 4.95109 8.97984 4.50884 9.70674 4.20708C10.4336 3.90533 11.213 3.75 12 3.75H12.0469C15.3188 3.76875 17.9813 6.50625 17.9813 9.83438V10.5C17.9813 14.0531 18.7594 16.125 19.4063 17.25H4.59375Z" fill="#5E6778"/>
</svg>
