<svg width="24" height="24" viewBox="0 0 24 24" fill="none" xmlns="http://www.w3.org/2000/svg">
<path d="M6.00002 12.6C5.84089 12.6 5.68828 12.5368 5.57576 12.4243C5.46324 12.3118 5.40002 12.1592 5.40002 12C5.40002 11.8409 5.46324 11.6883 5.57576 11.5758C5.68828 11.4632 5.84089 11.4 6.00002 11.4H18C18.1592 11.4 18.3118 11.4632 18.4243 11.5758C18.5368 11.6883 18.6 11.8409 18.6 12C18.6 12.1592 18.5368 12.3118 18.4243 12.4243C18.3118 12.5368 18.1592 12.6 18 12.6H6.00002Z" fill="#8D95A5"/>
<path d="M11.4 6.00002C11.4 5.84089 11.4632 5.68828 11.5758 5.57576C11.6883 5.46324 11.8409 5.40002 12 5.40002C12.1592 5.40002 12.3118 5.46324 12.4243 5.57576C12.5368 5.68828 12.6 5.84089 12.6 6.00002V18C12.6 18.1592 12.5368 18.3118 12.4243 18.4243C12.3118 18.5368 12.1592 18.6 12 18.6C11.8409 18.6 11.6883 18.5368 11.5758 18.4243C11.4632 18.3118 11.4 18.1592 11.4 18V6.00002Z" fill="#8D95A5"/>
</svg>
