<svg width="36" height="36" viewBox="0 0 36 36" fill="none" xmlns="http://www.w3.org/2000/svg">
<rect width="36" height="36" rx="18" fill="white"/>
<path opacity="0.2" fill-rule="evenodd" clip-rule="evenodd" d="M19.5 12.5C19.1022 12.5 18.7206 12.658 18.4393 12.9393C18.158 13.2206 18 13.6022 18 14V17.5H14.5C14.1022 17.5 13.7206 17.658 13.4393 17.9393C13.158 18.2206 13 18.6022 13 19C13 19.3978 13.158 19.7794 13.4393 20.0607C13.7206 20.342 14.1022 20.5 14.5 20.5H18V24C18 24.3978 18.158 24.7794 18.4393 25.0607C18.7206 25.342 19.1022 25.5 19.5 25.5C19.8978 25.5 20.2794 25.342 20.5607 25.0607C20.842 24.7794 21 24.3978 21 24V20.5H24.5C24.8978 20.5 25.2794 20.342 25.5607 20.0607C25.842 19.7794 26 19.3978 26 19C26 18.6022 25.842 18.2206 25.5607 17.9393C25.2794 17.658 24.8978 17.5 24.5 17.5H21V14C21 13.6022 20.842 13.2206 20.5607 12.9393C20.2794 12.658 19.8978 12.5 19.5 12.5Z" fill="#0E9384"/>
<path d="M13 18.5C12.8674 18.5 12.7402 18.4473 12.6464 18.3536C12.5527 18.2598 12.5 18.1326 12.5 18C12.5 17.8674 12.5527 17.7402 12.6464 17.6464C12.7402 17.5527 12.8674 17.5 13 17.5H23C23.1326 17.5 23.2598 17.5527 23.3536 17.6464C23.4473 17.7402 23.5 17.8674 23.5 18C23.5 18.1326 23.4473 18.2598 23.3536 18.3536C23.2598 18.4473 23.1326 18.5 23 18.5H13Z" fill="#0E9384"/>
<path d="M17.5 13C17.5 12.8674 17.5527 12.7402 17.6464 12.6464C17.7402 12.5527 17.8674 12.5 18 12.5C18.1326 12.5 18.2598 12.5527 18.3536 12.6464C18.4473 12.7402 18.5 12.8674 18.5 13V23C18.5 23.1326 18.4473 23.2598 18.3536 23.3536C18.2598 23.4473 18.1326 23.5 18 23.5C17.8674 23.5 17.7402 23.4473 17.6464 23.3536C17.5527 23.2598 17.5 23.1326 17.5 23V13Z" fill="#0E9384"/>
</svg>
