<svg width="24" height="24" viewBox="0 0 24 24" fill="none" xmlns="http://www.w3.org/2000/svg">
<path d="M22.5 19.5H21V10.8281C20.9999 10.62 20.9566 10.4142 20.8726 10.2237C20.7887 10.0333 20.6661 9.86238 20.5125 9.7219L13.0125 2.90627C12.736 2.6533 12.3748 2.513 12 2.513C11.6252 2.513 11.264 2.6533 10.9875 2.90627L3.4875 9.7219C3.33394 9.86238 3.2113 10.0333 3.12737 10.2237C3.04344 10.4142 3.00007 10.62 3 10.8281V19.5H1.5C1.30109 19.5 1.11032 19.579 0.96967 19.7197C0.829018 19.8603 0.75 20.0511 0.75 20.25C0.75 20.4489 0.829018 20.6397 0.96967 20.7804C1.11032 20.921 1.30109 21 1.5 21H22.5C22.6989 21 22.8897 20.921 23.0303 20.7804C23.171 20.6397 23.25 20.4489 23.25 20.25C23.25 20.0511 23.171 19.8603 23.0303 19.7197C22.8897 19.579 22.6989 19.5 22.5 19.5ZM4.5 10.8281L12 4.01252L19.5 10.8281V19.5H15V15C15 14.6022 14.842 14.2207 14.5607 13.9394C14.2794 13.6581 13.8978 13.5 13.5 13.5H10.5C10.1022 13.5 9.72064 13.6581 9.43934 13.9394C9.15804 14.2207 9 14.6022 9 15V19.5H4.5V10.8281ZM13.5 19.5H10.5V15H13.5V19.5Z" fill="#8D95A5"/>
</svg>
