<svg width="40" height="40" viewBox="0 0 40 40" fill="none" xmlns="http://www.w3.org/2000/svg">
<rect width="40" height="40" rx="20" fill="white"/>
<path d="M30.5 27.5H29V18.8281C28.9999 18.62 28.9566 18.4142 28.8726 18.2237C28.7887 18.0333 28.6661 17.8624 28.5125 17.7219L21.0125 10.9063C20.736 10.6533 20.3748 10.513 20 10.513C19.6252 10.513 19.264 10.6533 18.9875 10.9063L11.4875 17.7219C11.3339 17.8624 11.2113 18.0333 11.1274 18.2237C11.0434 18.4142 11.0001 18.62 11 18.8281V27.5H9.5C9.30109 27.5 9.11032 27.579 8.96967 27.7197C8.82902 27.8603 8.75 28.0511 8.75 28.25C8.75 28.4489 8.82902 28.6397 8.96967 28.7804C9.11032 28.921 9.30109 29 9.5 29H30.5C30.6989 29 30.8897 28.921 31.0303 28.7804C31.171 28.6397 31.25 28.4489 31.25 28.25C31.25 28.0511 31.171 27.8603 31.0303 27.7197C30.8897 27.579 30.6989 27.5 30.5 27.5ZM12.5 18.8281L20 12.0125L27.5 18.8281V27.5H23V23C23 22.6022 22.842 22.2207 22.5607 21.9394C22.2794 21.6581 21.8978 21.5 21.5 21.5H18.5C18.1022 21.5 17.7206 21.6581 17.4393 21.9394C17.158 22.2207 17 22.6022 17 23V27.5H12.5V18.8281ZM21.5 27.5H18.5V23H21.5V27.5Z" fill="#0E9384"/>
</svg>
