<svg xmlns="http://www.w3.org/2000/svg" viewBox="0 0 32 32" aria-hidden="true" role="presentation" focusable="false" style="display: block; height: 24px; width: 24px; fill: currentcolor;"><path d="M2 4h2v2h2V4h2v5a3 3 0 0 1-2 2.83V17a1 1 0 0 0 .88 1H10V5a3 3 0 0 1 3-3h12a3 3 0 0 1 3 3v23h2v2H2v-2h8v-8H7a3 3 0 0 1-3-2.82v-5.35a3 3 0 0 1-2-2.64V4zm23 0H12.88A1 1 0 0 0 12 5v23h14V5a1 1 0 0 0-1-1zm-4.43 13-1.8 3H21a1 1 0 0 1 .91 1.41l-.05.1-2.1 3.49h-2.33l1.8-3H17a1 1 0 0 1-.91-1.41l.05-.1 2.1-3.49h2.33zM23 6a1 1 0 0 1 1 1v6a1 1 0 0 1-1 1h-8a1 1 0 0 1-1-1V7a1 1 0 0 1 1-1h8zm-1 2h-6v4h6V8zM6 8H4v1a1 1 0 0 0 .77.97l.11.02L5 10a1 1 0 0 0 1-.88V8z"></path></svg>