<svg width="32" height="32" viewBox="0 0 32 32" fill="none" xmlns="http://www.w3.org/2000/svg">
<path d="M29.6875 13.0375C29.6565 12.8977 29.5957 12.7662 29.5095 12.6519C29.4232 12.5376 29.3134 12.4432 29.1875 12.375L26.2125 10.725C26.053 10.4016 25.8735 10.0885 25.675 9.78748L25.7375 6.38748C25.7386 6.24487 25.7104 6.10356 25.6545 5.97236C25.5985 5.84117 25.5162 5.72291 25.4125 5.62498C23.9312 4.28193 22.1794 3.27177 20.275 2.66248C20.1382 2.61983 19.994 2.6067 19.8518 2.62393C19.7096 2.64117 19.5726 2.68839 19.45 2.76248L16.5375 4.51248C16.175 4.49998 15.825 4.49998 15.4625 4.51248L12.55 2.76248C12.4274 2.68839 12.2904 2.64117 12.1482 2.62393C12.006 2.6067 11.8618 2.61983 11.725 2.66248C9.81808 3.27224 8.06554 4.28709 6.58749 5.63748C6.48292 5.73204 6.39981 5.84791 6.34375 5.97727C6.28769 6.10664 6.25999 6.24651 6.26249 6.38748L6.32499 9.78748C6.12499 10.0875 5.94999 10.4 5.77499 10.725L2.79999 12.375C2.6759 12.4439 2.56811 12.5387 2.48398 12.6531C2.39986 12.7674 2.34136 12.8985 2.31249 13.0375C1.88745 14.9896 1.88745 17.0103 2.31249 18.9625C2.34354 19.1023 2.40425 19.2338 2.49051 19.3481C2.57678 19.4623 2.68658 19.5568 2.81249 19.625L5.78749 21.275C5.94698 21.5984 6.12649 21.9115 6.32499 22.2125L6.26249 25.6125C6.26135 25.7551 6.28962 25.8964 6.34554 26.0276C6.40146 26.1588 6.48382 26.277 6.58749 26.375C8.06879 27.718 9.82059 28.7282 11.725 29.3375C11.8618 29.3801 12.006 29.3933 12.1482 29.376C12.2904 29.3588 12.4274 29.3116 12.55 29.2375L15.4625 27.4875H16.5375L19.4625 29.2375C19.6146 29.3375 19.793 29.3897 19.975 29.3875C20.0767 29.3831 20.1774 29.3663 20.275 29.3375C22.1819 28.7277 23.9345 27.7129 25.4125 26.3625C25.5171 26.2679 25.6002 26.1521 25.6562 26.0227C25.7123 25.8933 25.74 25.7534 25.7375 25.6125L25.675 22.2125C25.875 21.9125 26.05 21.6 26.225 21.275L29.2 19.625C29.3241 19.5561 29.4319 19.4612 29.516 19.3469C29.6001 19.2326 29.6586 19.1015 29.6875 18.9625C30.1125 17.0103 30.1125 14.9896 29.6875 13.0375ZM27.8125 18.1L24.975 19.675C24.795 19.7796 24.6511 19.9366 24.5625 20.125C24.3568 20.551 24.1186 20.9606 23.85 21.35C23.7359 21.5247 23.6751 21.7288 23.675 21.9375L23.725 25.175C22.6488 26.0913 21.4167 26.8069 20.0875 27.2875L17.3 25.6125C17.1444 25.5219 16.9675 25.4744 16.7875 25.475H16.7125C16.2382 25.5125 15.7618 25.5125 15.2875 25.475C15.0826 25.4638 14.8787 25.5115 14.7 25.6125L11.9125 27.2875C10.5848 26.8092 9.35309 26.0981 8.27499 25.1875L8.32499 21.9375C8.32492 21.7288 8.26411 21.5247 8.14999 21.35C7.88593 20.9577 7.64792 20.5485 7.43749 20.125C7.3452 19.9391 7.2022 19.7831 7.02499 19.675L4.18749 18.1C3.93741 16.7111 3.93741 15.2888 4.18749 13.9L7.02499 12.325C7.20501 12.2204 7.34889 12.0634 7.43749 11.875C7.64315 11.4489 7.88135 11.0394 8.14999 10.65C8.26411 10.4753 8.32492 10.2711 8.32499 10.0625L8.27499 6.82498C9.35119 5.90864 10.5833 5.1931 11.9125 4.71248L14.7 6.38748C14.8782 6.4898 15.0824 6.53761 15.2875 6.52498C15.7618 6.48747 16.2382 6.48747 16.7125 6.52498C16.9174 6.53617 17.1213 6.48846 17.3 6.38748L20.0875 4.71248C21.4151 5.19078 22.6469 5.90191 23.725 6.81248L23.675 10.0625C23.6751 10.2711 23.7359 10.4753 23.85 10.65C24.1141 11.0423 24.3521 11.4515 24.5625 11.875C24.6548 12.0609 24.7978 12.2169 24.975 12.325L27.8125 13.9C28.0626 15.2888 28.0626 16.7111 27.8125 18.1ZM16 8.99998C14.6155 8.99998 13.2621 9.41052 12.111 10.1797C10.9599 10.9489 10.0627 12.0421 9.53284 13.3212C9.00303 14.6003 8.8644 16.0077 9.1345 17.3656C9.40459 18.7235 10.0713 19.9708 11.0502 20.9497C12.0292 21.9287 13.2765 22.5954 14.6344 22.8655C15.9922 23.1356 17.3997 22.997 18.6788 22.4671C19.9579 21.9373 21.0511 21.0401 21.8203 19.889C22.5895 18.7378 23 17.3844 23 16C23 14.1435 22.2625 12.363 20.9497 11.0502C19.637 9.73748 17.8565 8.99998 16 8.99998ZM16 21C15.0111 21 14.0444 20.7067 13.2221 20.1573C12.3999 19.6079 11.759 18.827 11.3806 17.9134C11.0022 16.9998 10.9031 15.9944 11.0961 15.0245C11.289 14.0546 11.7652 13.1637 12.4645 12.4644C13.1637 11.7652 14.0546 11.289 15.0245 11.0961C15.9945 10.9031 16.9998 11.0021 17.9134 11.3806C18.827 11.759 19.6079 12.3999 20.1573 13.2221C20.7068 14.0444 21 15.0111 21 16C21 17.3261 20.4732 18.5978 19.5355 19.5355C18.5979 20.4732 17.3261 21 16 21Z" fill="#8D95A5"/>
</svg>
