<svg width="32" height="32" viewBox="0 0 32 32" fill="none" xmlns="http://www.w3.org/2000/svg">
<path d="M31.1 18.3C30.9282 18.4324 30.7168 18.5028 30.5 18.5C30.3448 18.5 30.1916 18.4639 30.0528 18.3944C29.9139 18.325 29.7931 18.2242 29.7 18.1C29.0973 17.2898 28.3127 16.6325 27.4096 16.1809C26.5064 15.7293 25.5098 15.4961 24.5 15.5C24.2348 15.5 23.9804 15.3947 23.7929 15.2071C23.6054 15.0196 23.5 14.7652 23.5 14.5C23.5 14.2348 23.6054 13.9804 23.7929 13.7929C23.9804 13.6054 24.2348 13.5 24.5 13.5C25.0691 13.4994 25.6264 13.3369 26.1066 13.0315C26.5869 12.7261 26.9703 12.2904 27.2123 11.7753C27.4542 11.2601 27.5446 10.6868 27.4729 10.1222C27.4012 9.55756 27.1704 9.025 26.8074 8.58664C26.4444 8.14829 25.9643 7.82224 25.4229 7.64654C24.8816 7.47085 24.3014 7.45276 23.7502 7.59439C23.199 7.73603 22.6994 8.03154 22.3098 8.44643C21.9202 8.86132 21.6567 9.37847 21.55 9.93751C21.5306 10.0712 21.4843 10.1995 21.4139 10.3148C21.3436 10.4301 21.2506 10.53 21.1405 10.6084C21.0305 10.6867 20.9057 10.742 20.7738 10.7708C20.6418 10.7996 20.5054 10.8014 20.3727 10.7761C20.24 10.7507 20.1138 10.6988 20.0018 10.6233C19.8898 10.5479 19.7942 10.4505 19.7208 10.3371C19.6474 10.2237 19.5978 10.0966 19.5749 9.96343C19.552 9.83031 19.5563 9.69392 19.5875 9.56251C19.7359 8.78479 20.0668 8.05342 20.553 7.42859C21.0393 6.80376 21.667 6.30334 22.3844 5.96851C23.1019 5.63368 23.8886 5.47402 24.6798 5.50266C25.4711 5.53131 26.2442 5.74744 26.9355 6.13327C27.6269 6.5191 28.2168 7.0636 28.6566 7.72196C29.0964 8.38031 29.3735 9.1337 29.4653 9.92011C29.557 10.7065 29.4607 11.5035 29.1842 12.2454C28.9077 12.9873 28.459 13.6529 27.875 14.1875C29.2341 14.7768 30.415 15.712 31.3 16.9C31.3788 17.0051 31.4361 17.1246 31.4687 17.2518C31.5013 17.379 31.5085 17.5114 31.49 17.6414C31.4714 17.7714 31.4274 17.8965 31.3605 18.0095C31.2936 18.1225 31.2051 18.2212 31.1 18.3ZM24.1 26.5625C24.2129 26.8017 24.2277 27.0755 24.1412 27.3255C24.0548 27.5754 23.874 27.7816 23.6375 27.9C23.4995 27.9614 23.3509 27.9954 23.2 28C23.0126 27.9987 22.8293 27.9454 22.6704 27.8461C22.5115 27.7468 22.3833 27.6054 22.3 27.4375C21.7234 26.2579 20.8271 25.2639 19.7134 24.5687C18.5996 23.8734 17.313 23.5048 16 23.5048C14.687 23.5048 13.4004 23.8734 12.2866 24.5687C11.1729 25.2639 10.2766 26.2579 9.7 27.4375C9.64262 27.5558 9.56249 27.6615 9.46419 27.7488C9.3659 27.8361 9.25136 27.9031 9.12714 27.946C9.00291 27.989 8.87144 28.007 8.74024 27.9991C8.60903 27.9912 8.48068 27.9576 8.3625 27.9C8.126 27.7816 7.94521 27.5754 7.85878 27.3255C7.77235 27.0755 7.78714 26.8017 7.9 26.5625C8.82935 24.6489 10.4057 23.1257 12.35 22.2625C11.3548 21.4997 10.6236 20.4442 10.2591 19.2445C9.89458 18.0447 9.91516 16.7608 10.3179 15.5733C10.7206 14.3858 11.4853 13.3543 12.5045 12.6238C13.5236 11.8933 14.7461 11.5004 16 11.5004C17.2539 11.5004 18.4764 11.8933 19.4955 12.6238C20.5147 13.3543 21.2794 14.3858 21.6821 15.5733C22.0848 16.7608 22.1054 18.0447 21.7409 19.2445C21.3765 20.4442 20.6452 21.4997 19.65 22.2625C21.5943 23.1257 23.1707 24.6489 24.1 26.5625ZM16 21.5C16.7911 21.5 17.5645 21.2654 18.2223 20.8259C18.8801 20.3864 19.3928 19.7616 19.6955 19.0307C19.9983 18.2998 20.0775 17.4956 19.9231 16.7196C19.7688 15.9437 19.3878 15.231 18.8284 14.6716C18.269 14.1122 17.5563 13.7312 16.7804 13.5769C16.0044 13.4225 15.2002 13.5017 14.4693 13.8045C13.7384 14.1072 13.1137 14.6199 12.6741 15.2777C12.2346 15.9355 12 16.7089 12 17.5C12.0033 18.5599 12.4258 19.5754 13.1752 20.3248C13.9247 21.0742 14.9402 21.4967 16 21.5ZM8.5 14.5C8.5 14.2348 8.39465 13.9804 8.20711 13.7929C8.01957 13.6054 7.76522 13.5 7.5 13.5C6.93087 13.4994 6.37365 13.3369 5.8934 13.0315C5.41315 12.7261 5.02967 12.2904 4.78774 11.7753C4.54582 11.2601 4.45542 10.6868 4.5271 10.1222C4.59878 9.55756 4.82959 9.025 5.19258 8.58664C5.55556 8.14829 6.03575 7.82224 6.57709 7.64654C7.11842 7.47085 7.69857 7.45276 8.24979 7.59439C8.80102 7.73603 9.30058 8.03154 9.69017 8.44643C10.0798 8.86132 10.3433 9.37847 10.45 9.93751C10.4694 10.0712 10.5157 10.1995 10.5861 10.3148C10.6564 10.4301 10.7495 10.53 10.8595 10.6084C10.9695 10.6867 11.0943 10.742 11.2262 10.7708C11.3582 10.7996 11.4946 10.8014 11.6273 10.7761C11.76 10.7507 11.8862 10.6988 11.9982 10.6233C12.1102 10.5479 12.2058 10.4505 12.2792 10.3371C12.3526 10.2237 12.4022 10.0966 12.4251 9.96343C12.4481 9.83031 12.4438 9.69392 12.4125 9.56251C12.2641 8.78479 11.9332 8.05342 11.447 7.42859C10.9607 6.80376 10.333 6.30334 9.61557 5.96851C8.89811 5.63368 8.11139 5.47402 7.32017 5.50266C6.52895 5.53131 5.75583 5.74744 5.06447 6.13327C4.3731 6.5191 3.78324 7.0636 3.34344 7.72196C2.90363 8.38031 2.62646 9.1337 2.53473 9.92011C2.443 10.7065 2.53934 11.5035 2.81582 12.2454C3.09229 12.9873 3.541 13.6529 4.125 14.1875C2.7659 14.7768 1.58499 15.712 0.700004 16.9C0.540874 17.1122 0.472547 17.3789 0.510055 17.6414C0.547562 17.904 0.687831 18.1409 0.900004 18.3C1.07177 18.4324 1.28319 18.5028 1.5 18.5C1.65525 18.5 1.80836 18.4639 1.94722 18.3944C2.08607 18.325 2.20686 18.2242 2.3 18.1C2.90274 17.2898 3.68727 16.6325 4.59045 16.1809C5.49363 15.7293 6.49023 15.4961 7.5 15.5C7.76522 15.5 8.01957 15.3947 8.20711 15.2071C8.39465 15.0196 8.5 14.7652 8.5 14.5Z" fill="#8D95A5"/>
</svg>
