<svg width="42" height="42" viewBox="0 0 42 42" fill="none" xmlns="http://www.w3.org/2000/svg">
<path fill-rule="evenodd" clip-rule="evenodd" d="M21 0C32.5983 0 42 9.4017 42 21C42.0074 25.8466 40.3313 30.5453 37.2582 34.293L37.3002 34.3392L37.023 34.5744C35.0537 36.9038 32.5995 38.7751 29.832 40.0577C27.0645 41.3402 24.0503 42.0031 21 42C14.805 42 9.24001 39.3183 5.39702 35.0553L4.97702 34.5723L4.69982 34.3413L4.74182 34.2909C1.66901 30.5438 -0.00707158 25.8459 2.24268e-05 21C2.24268e-05 9.4017 9.40171 0 21 0ZM21 31.5C17.094 31.5 13.5639 32.7432 10.9347 34.4505C13.8375 36.6295 17.3703 37.8051 21 37.8C24.6296 37.8051 28.1625 36.6295 31.0653 34.4505C28.0607 32.5261 24.568 31.5022 21 31.5ZM21 4.2C17.8385 4.19991 14.7411 5.0919 12.0639 6.77344C9.38671 8.45499 7.23831 10.8578 5.86565 13.7058C4.493 16.5538 3.95181 19.7312 4.30428 22.873C4.65676 26.0148 5.8886 28.9934 7.85821 31.4664C11.2623 29.0241 15.9075 27.3 21 27.3C26.0925 27.3 30.7377 29.0241 34.1418 31.4664C36.1114 28.9934 37.3432 26.0148 37.6957 22.873C38.0482 19.7312 37.507 16.5538 36.1343 13.7058C34.7617 10.8578 32.6133 8.45499 29.9361 6.77344C27.2589 5.0919 24.1615 4.19991 21 4.2ZM21 8.4C23.2278 8.4 25.3644 9.28499 26.9397 10.8603C28.515 12.4356 29.4 14.5722 29.4 16.8C29.4 19.0278 28.515 21.1644 26.9397 22.7397C25.3644 24.315 23.2278 25.2 21 25.2C18.7722 25.2 16.6356 24.315 15.0603 22.7397C13.485 21.1644 12.6 19.0278 12.6 16.8C12.6 14.5722 13.485 12.4356 15.0603 10.8603C16.6356 9.28499 18.7722 8.4 21 8.4ZM21 12.6C19.8861 12.6 18.8178 13.0425 18.0302 13.8301C17.2425 14.6178 16.8 15.6861 16.8 16.8C16.8 17.9139 17.2425 18.9822 18.0302 19.7698C18.8178 20.5575 19.8861 21 21 21C22.1139 21 23.1822 20.5575 23.9698 19.7698C24.7575 18.9822 25.2 17.9139 25.2 16.8C25.2 15.6861 24.7575 14.6178 23.9698 13.8301C23.1822 13.0425 22.1139 12.6 21 12.6Z" fill="#F8F8F8"/>
</svg>
